<svg width="400" height="442" viewBox="0 0 400 442" fill="none" xmlns="http://www.w3.org/2000/svg">
<path d="M111.86 222.105C111.86 222.105 113.035 220.595 113.035 220.6C113.105 220.655 111.195 231.34 111.405 231.5C111.66 231.7 118.875 221.7 118.99 221.79C119.005 221.8 112.285 237.725 112.49 237.89C112.665 238.025 121.75 225.985 121.775 226.005C121.93 226.125 115.595 242.305 115.855 242.505C116.14 242.725 123.135 232.625 123.405 232.84" stroke="#EBC246" stroke-width="3" stroke-linecap="round" stroke-linejoin="round"/>
<path d="M93.7247 84.28C93.7647 84.31 97.4197 79.51 97.4397 79.525C97.6547 79.69 92.6997 93.38 93.0297 93.64C93.1147 93.705 101.995 81.53 102.3 81.77C102.805 82.165 91.7747 102.09 92.1747 102.4C92.4897 102.645 102.1 89.015 102.43 89.275C102.525 89.35 88.2997 115.935 88.3147 115.945C88.5397 116.12 101.025 99.455 101.135 99.54C101.355 99.71 86.5147 125.095 86.9197 125.41C87.1997 125.63 98.5097 109.605 98.9797 109.97C99.6097 110.465 83.5997 136.885 84.2647 137.405C84.5197 137.605 97.5996 120.245 97.6446 120.28C98.1546 120.68 80.4947 149.49 80.5697 149.545C81.0897 149.95 93.4947 131.985 93.9897 132.37C94.7397 132.955 77.2397 160.2 77.7947 160.635C78.1047 160.875 92.9797 141.14 93.0047 141.165C93.2647 141.365 69.5247 177.54 70.4347 178.255C70.6047 178.385 88.3047 154.42 88.7747 154.785C89.3347 155.22 64.9847 193.265 65.3547 193.555C65.7797 193.885 82.6297 170.1 83.2797 170.61C84.1647 171.305 56.2997 212.755 56.7597 213.115C56.9697 213.275 77.8847 185.67 78.0797 185.825C78.7247 186.33 50.3347 228.36 50.8647 228.775C50.9897 228.87 71.5797 201.3 72.0447 201.665C73.1297 202.515 41.8597 248.315 42.1147 248.515C42.4647 248.785 63.6097 219.925 64.1297 220.335C65.0197 221.03 37.5197 262.315 37.8447 262.565C38.1197 262.78 53.8797 240.74 54.5097 241.235C54.6497 241.345 43.2047 262.645 43.4347 262.825C43.5797 262.94 50.9897 253.01 51.0597 253.065C51.2597 253.22 49.0897 262.555 49.2947 262.715C49.5397 262.905 54.4147 256.1 54.4447 256.125C54.5097 256.175 55.0647 263.56 55.0747 263.57C55.1947 263.665 62.2997 254.24 62.3397 254.27C62.4847 254.385 61.5747 263.305 61.7847 263.47C61.9247 263.58 69.0247 253.795 69.2197 253.95C69.2947 254.01 68.1147 263.295 68.1797 263.34C68.2747 263.415 73.2997 256.53 73.4247 256.625C73.5497 256.72 73.0347 265.155 73.0447 265.165C73.1397 265.24 79.4297 256.685 79.5797 256.8C79.6297 256.84 79.3147 265.49 79.5047 265.64C79.5847 265.7 87.4097 255.305 87.5147 255.39C87.5297 255.4 86.8797 263.625 86.8997 263.64C87.1347 263.825 93.2447 255.255 93.3697 255.355C93.3897 255.37 92.6297 263.795 92.6497 263.81C92.6747 263.83 99.5647 254.885 99.5997 254.91C99.6047 254.915 97.7247 264.595 97.7447 264.61C97.7597 264.62 105.295 254.825 105.355 254.87C105.445 254.94 103.3 264.965 103.515 265.13C103.785 265.34 124.505 236.945 125.145 237.445C125.385 237.635 110.255 262.68 110.83 263.13C111.075 263.325 124.02 245.395 124.435 245.72C124.505 245.775 117.36 262.64 117.53 262.77C117.725 262.925 124.505 253.46 124.69 253.605C125.02 253.865 119.095 268.595 119.165 268.65C119.275 268.735 125.55 260.21 125.68 260.31C125.975 260.54 118.25 277.635 118.57 277.885C118.78 278.045 126.515 267.65 126.545 267.675C126.56 267.69 120.69 283.69 120.84 283.81C121.04 283.965 127.48 274.835 127.71 275.015C127.71 275.015 120.99 291.3 121.3 291.54C121.435 291.645 127.335 283.245 127.61 283.46C127.79 283.6 121.895 298.265 122.12 298.44C122.27 298.56 130.045 287.83 130.27 288.005C130.435 288.13 121.555 307.09 121.77 307.255C121.995 307.43 130.125 296.55 130.13 296.555C130.405 296.77 120.435 316.975 120.74 317.21C120.975 317.395 130.28 304.35 130.595 304.595C130.73 304.7 121.035 324.355 121.285 324.545C121.505 324.715 129.13 314.37 129.195 314.42C129.515 314.67 124.78 327.465 124.785 327.47C124.785 327.47 130.65 319.63 130.81 319.755" stroke="#EBC246" stroke-width="3" stroke-linecap="round" stroke-linejoin="round"/>
<path d="M359.41 222.105C359.41 222.105 360.585 220.595 360.585 220.6C360.655 220.655 358.745 231.335 358.955 231.5C359.21 231.7 366.425 221.7 366.54 221.79C366.555 221.8 359.835 237.725 360.04 237.89C360.215 238.025 369.3 225.985 369.325 226.005C369.48 226.125 363.145 242.305 363.405 242.505C363.69 242.725 370.685 232.625 370.955 232.84" stroke="#EBC246" stroke-width="3" stroke-linecap="round" stroke-linejoin="round"/>
<path d="M341.274 84.28C341.314 84.31 344.969 79.51 344.989 79.525C345.204 79.69 340.249 93.38 340.579 93.64C340.664 93.705 349.544 81.53 349.849 81.775C350.354 82.17 339.324 102.095 339.724 102.405C340.039 102.65 349.649 89.02 349.979 89.28C350.074 89.355 335.849 115.94 335.864 115.95C336.089 116.125 348.574 99.46 348.684 99.545C348.904 99.715 334.064 125.1 334.469 125.415C334.749 125.635 346.059 109.61 346.529 109.975C347.159 110.47 331.149 136.89 331.814 137.41C332.069 137.61 345.149 120.25 345.194 120.285C345.704 120.685 328.044 149.495 328.119 149.55C328.639 149.955 341.044 131.99 341.539 132.375C342.289 132.96 324.789 160.205 325.344 160.64C325.654 160.88 340.529 141.145 340.554 141.17C340.814 141.37 317.074 177.545 317.984 178.26C318.154 178.39 335.854 154.425 336.324 154.79C336.884 155.225 312.534 193.27 312.904 193.56C313.329 193.89 330.179 170.105 330.829 170.615C331.714 171.31 303.849 212.76 304.309 213.12C304.519 213.28 325.434 185.675 325.629 185.83C326.274 186.335 297.884 228.365 298.414 228.78C298.539 228.875 319.129 201.305 319.594 201.67C320.679 202.52 289.404 248.325 289.659 248.525C290.009 248.795 311.154 219.935 311.679 220.345C312.569 221.04 285.069 262.325 285.389 262.575C285.664 262.79 301.424 240.75 302.054 241.245C302.194 241.355 290.749 262.655 290.979 262.835C291.124 262.95 298.534 253.02 298.604 253.075C298.804 253.23 296.634 262.565 296.839 262.725C297.084 262.915 301.959 256.11 301.989 256.135C302.054 256.185 302.609 263.57 302.619 263.58C302.739 263.675 309.844 254.25 309.884 254.28C310.029 254.395 309.119 263.315 309.329 263.48C309.469 263.59 316.569 253.805 316.764 253.96C316.839 254.02 315.659 263.305 315.724 263.35C315.819 263.425 320.844 256.54 320.969 256.635C321.094 256.73 320.579 265.165 320.589 265.175C320.684 265.25 326.974 256.695 327.124 256.81C327.174 256.85 326.859 265.5 327.049 265.65C327.129 265.71 334.954 255.315 335.059 255.4C335.074 255.41 334.424 263.635 334.444 263.65C334.679 263.835 340.789 255.265 340.914 255.365C340.934 255.38 340.174 263.805 340.194 263.82C340.219 263.84 347.109 254.895 347.144 254.925C347.149 254.93 345.269 264.61 345.289 264.625C345.304 264.635 352.839 254.84 352.899 254.885C352.989 254.955 350.844 264.98 351.059 265.145C351.329 265.355 372.049 236.96 372.689 237.46C372.929 237.65 357.799 262.695 358.374 263.145C358.619 263.34 371.564 245.41 371.979 245.735C372.049 245.79 364.904 262.655 365.074 262.785C365.269 262.94 372.049 253.475 372.234 253.62C372.564 253.88 366.639 268.61 366.709 268.665C366.819 268.75 373.094 260.225 373.224 260.325C373.519 260.555 365.794 277.65 366.114 277.9C366.324 278.06 374.059 267.665 374.089 267.69C374.104 267.705 368.234 283.705 368.379 283.825C368.579 283.98 375.019 274.85 375.249 275.03C375.249 275.03 368.529 291.315 368.839 291.555C368.974 291.66 374.874 283.26 375.149 283.475C375.329 283.615 369.434 298.28 369.659 298.46C369.809 298.58 377.584 287.85 377.809 288.025C377.974 288.15 369.094 307.11 369.309 307.275C369.534 307.45 377.664 296.57 377.669 296.575C377.944 296.79 367.974 316.995 368.279 317.23C368.514 317.415 377.819 304.37 378.134 304.615C378.269 304.72 368.574 324.375 368.824 324.565C369.044 324.735 376.669 314.39 376.734 314.44C377.054 314.69 372.319 327.485 372.324 327.49C372.324 327.49 378.189 319.65 378.349 319.775" stroke="#EBC246" stroke-width="3" stroke-linecap="round" stroke-linejoin="round"/>
<path d="M176.2 103.065C176.365 103.195 188.81 86.74 188.9 86.81C189.54 87.31 164.96 123.895 165.945 124.66C166.26 124.905 199.53 79.3 200.68 80.2C202.17 81.365 161.545 135.54 162.72 136.455C163.985 137.445 205.49 78.935 206.84 79.985C207.115 80.2 158.235 150.715 158.275 150.745C159.29 151.54 212 80.97 212.49 81.355C213.2 81.91 156.225 158.365 157.525 159.38C158.825 160.395 213.935 82.61 216.15 84.34C218.245 85.975 154.505 167.28 156.715 169.01C157.935 169.96 220.975 86.32 221.19 86.485C222.885 87.81 155.315 177.71 155.56 177.9C158.03 179.83 220.735 89.63 223.09 91.47C225.72 93.525 154.32 183 156.27 184.525C157.715 185.655 227.8 92.695 227.935 92.8C228.69 93.39 151.115 193.835 153.78 195.92C154.535 196.51 228.315 96.175 230.425 97.82C232.025 99.07 154.115 202.125 155.165 202.945C156.98 204.365 229.96 101.455 232.755 103.635C235.14 105.495 152.85 211.93 154.08 212.89C154.93 213.555 235.17 107.425 235.985 108.06C237.71 109.405 154.89 217.045 156.31 218.155C156.795 218.535 236.845 111.315 238.67 112.74C241.4 114.875 156.25 225.45 156.895 225.95C158.22 226.985 238.67 117.175 240.66 118.735C243.215 120.73 155.8 234.01 156.735 234.74C158.115 235.82 238.42 123.62 241.605 126.11C242.415 126.74 157.765 238.145 159.07 239.16C160.92 240.605 244.835 127.55 245.725 128.245C248.68 130.555 157.525 242.3 160.545 244.66C163.565 247.02 244.93 135.895 245.3 136.18C246.55 137.16 161.375 251.385 161.6 251.56C163.115 252.74 248.295 139.515 248.82 139.925C251.12 141.72 160.32 254.875 163.625 257.455C165.4 258.845 248.535 143.55 251.07 145.53C252.235 146.44 164.78 262.065 165.735 262.81C166.925 263.74 249.175 152.755 250.755 153.99C252.91 155.675 166.275 269.77 166.47 269.925C167.68 270.87 250.38 158.61 252.28 160.09C253.085 160.72 165.505 273.495 168.615 275.925C169.605 276.7 253.77 164.265 255.065 165.275C255.325 165.48 172.07 278.175 172.455 278.475C175.37 280.75 254.83 169.775 256.415 171.01C256.725 171.255 174.445 282.84 174.745 283.075C175.075 283.335 257.585 176.175 258.005 176.505C258.1 176.58 176.29 287.82 176.58 288.045C176.745 288.175 258.26 182.035 258.97 182.59C260.13 183.495 176.02 290.84 178.845 293.05C179.885 293.86 257.23 187.675 259.68 189.585C260.76 190.43 179.64 294.09 182.21 296.105C183.55 297.15 257.465 195.15 259.71 196.905C260.215 197.3 183.095 300.755 184.27 301.675C186.2 303.185 257.93 203.59 259.775 205.03C262.325 207.02 187.535 304.345 188.08 304.77C189.11 305.575 259.09 211.365 260.31 212.32C262.18 213.78 187.985 309.15 190.03 310.75C191.875 312.19 260.275 220.255 260.56 220.475C260.67 220.56 194.24 312.145 195.23 312.92C196.895 314.22 259 227.36 260.91 228.855C260.915 228.855 196.935 315.18 198.815 316.65C199.835 317.445 257.72 236.855 259.855 238.525C260.965 239.39 201.6 318.165 203 319.255C204.065 320.09 259.8 243.265 261.395 244.51C262.135 245.09 205.665 322.225 206.63 322.975C208.04 324.075 259.76 254.89 259.8 254.92C260.86 255.75 209.12 326.02 210.285 326.93C211.55 327.92 256.69 264.035 258.385 265.36C258.85 265.725 215.01 327.16 215.86 327.825C216.845 328.595 254.5 277.77 254.79 277.995C256.16 279.065 222.035 327.295 222.05 327.305C222.065 327.315 253.03 285.955 253.855 286.595C254.515 287.11 228.485 326.59 228.915 326.925C228.945 326.95 248.65 300.21 249.355 300.76" stroke="#EBC246" stroke-width="3" stroke-linecap="round" stroke-linejoin="round"/>
<path d="M82.7498 76.11C76.4348 137.18 51.2698 194.49 26.4248 250.635C45.0298 251.285 63.6348 251.935 82.2348 252.585C86.6948 252.74 91.3648 252.85 95.3548 250.85C101.19 247.92 104.135 240.995 104.185 234.47C104.235 227.94 101.915 221.655 99.6248 215.545C106.505 248.565 109.995 282.295 110.02 316.025" stroke="black" stroke-width="12" stroke-linecap="round" stroke-linejoin="round"/>
<path d="M330.3 76.11C323.985 137.18 298.82 194.49 273.975 250.635C292.58 251.285 311.185 251.935 329.785 252.585C334.245 252.74 338.915 252.85 342.905 250.85C348.74 247.92 351.685 240.995 351.735 234.47C351.785 227.94 349.465 221.655 347.175 215.545C354.055 248.565 357.545 282.295 357.57 316.025" stroke="black" stroke-width="12" stroke-linecap="round" stroke-linejoin="round"/>
<path d="M162.8 99.625C154.21 113.94 149.84 130.51 146.98 147.08C137.825 200.13 144.795 259.085 178.91 299.95C188.975 312.005 204.295 321.915 218.775 310.44C225.405 305.185 227.47 297.34 229.875 289.635C240.56 255.405 243.27 218.695 238.535 183.115C234.745 154.645 227.93 125.34 213.915 100.035C209.205 91.535 203.055 79.325 192.8 76.48C179.935 72.915 169.145 89.265 163.565 98.37C163.31 98.785 163.055 99.205 162.805 99.625H162.8Z" stroke="black" stroke-width="12" stroke-linecap="round" stroke-linejoin="round"/>
<path d="M172.749 404.688C172.381 404.224 171.957 403.912 171.477 403.752C170.997 403.576 170.453 403.488 169.845 403.488C169.109 403.488 168.533 403.616 168.117 403.872C167.701 404.112 167.493 404.416 167.493 404.784C167.493 404.992 167.597 405.192 167.805 405.384C168.013 405.56 168.269 405.728 168.573 405.888C168.893 406.048 169.237 406.208 169.605 406.368C169.989 406.512 170.357 406.648 170.709 406.776H170.685C171.149 406.936 171.677 407.152 172.269 407.424C172.861 407.68 173.413 408.016 173.925 408.432C174.453 408.832 174.893 409.328 175.245 409.92C175.613 410.496 175.797 411.184 175.797 411.984C175.797 412.816 175.637 413.552 175.317 414.192C175.013 414.832 174.581 415.368 174.021 415.8C173.477 416.232 172.829 416.56 172.077 416.784C171.341 417.008 170.541 417.12 169.677 417.12C168.477 417.12 167.325 416.84 166.221 416.28C165.133 415.704 164.037 414.8 162.933 413.568L165.693 411.312C166.285 412.144 166.909 412.752 167.565 413.136C168.237 413.52 168.949 413.712 169.701 413.712C170.501 413.712 171.157 413.584 171.669 413.328C172.181 413.056 172.437 412.712 172.437 412.296C172.437 411.992 172.325 411.728 172.101 411.504C171.893 411.264 171.621 411.048 171.285 410.856C170.965 410.664 170.597 410.496 170.181 410.352C169.781 410.208 169.389 410.072 169.005 409.944L168.525 409.752C167.981 409.56 167.445 409.352 166.917 409.128C166.389 408.904 165.909 408.616 165.477 408.264C165.061 407.896 164.717 407.448 164.445 406.92C164.189 406.392 164.061 405.736 164.061 404.952C164.061 404.328 164.165 403.728 164.373 403.152C164.597 402.56 164.941 402.048 165.405 401.616C165.869 401.168 166.461 400.808 167.181 400.536C167.901 400.264 168.773 400.128 169.797 400.128C170.949 400.128 172.037 400.368 173.061 400.848C174.101 401.328 175.141 402.192 176.181 403.44L173.445 405.336L172.749 404.688ZM189.544 408.528C189.544 407.84 189.448 407.184 189.256 406.56C189.064 405.936 188.776 405.384 188.392 404.904C188.024 404.424 187.552 404.048 186.976 403.776C186.416 403.488 185.76 403.344 185.008 403.344C184.272 403.344 183.624 403.488 183.064 403.776C182.504 404.048 182.032 404.424 181.648 404.904C181.28 405.368 181 405.92 180.808 406.56C180.616 407.184 180.52 407.84 180.52 408.528C180.52 409.232 180.616 409.904 180.808 410.544C181 411.168 181.28 411.72 181.648 412.2C182.032 412.68 182.504 413.064 183.064 413.352C183.624 413.624 184.272 413.76 185.008 413.76C185.76 413.76 186.416 413.624 186.976 413.352C187.552 413.064 188.024 412.68 188.392 412.2C188.776 411.72 189.064 411.168 189.256 410.544C189.448 409.904 189.544 409.232 189.544 408.528ZM192.928 408.504C192.928 409.624 192.76 410.704 192.424 411.744C192.088 412.784 191.584 413.704 190.912 414.504C190.256 415.288 189.432 415.92 188.44 416.4C187.464 416.88 186.32 417.12 185.008 417.12C183.712 417.12 182.568 416.88 181.576 416.4C180.6 415.92 179.784 415.288 179.128 414.504C178.472 413.704 177.976 412.784 177.64 411.744C177.304 410.704 177.136 409.624 177.136 408.504C177.136 407.4 177.304 406.336 177.64 405.312C177.976 404.288 178.472 403.384 179.128 402.6C179.784 401.8 180.6 401.168 181.576 400.704C182.568 400.224 183.712 399.984 185.008 399.984C186.32 399.984 187.464 400.224 188.44 400.704C189.432 401.168 190.256 401.8 190.912 402.6C191.584 403.384 192.088 404.288 192.424 405.312C192.76 406.336 192.928 407.4 192.928 408.504ZM199.342 410.568H197.254V417H193.894V400.2H200.398C201.102 400.2 201.766 400.336 202.39 400.608C203.014 400.88 203.558 401.256 204.022 401.736C204.502 402.2 204.878 402.752 205.15 403.392C205.422 404.016 205.558 404.688 205.558 405.408C205.558 406.368 205.318 407.248 204.838 408.048C204.358 408.832 203.734 409.448 202.966 409.896L206.686 417H202.87L199.342 410.568ZM197.254 407.208H200.398C200.894 407.208 201.318 407.04 201.67 406.704C202.022 406.352 202.198 405.92 202.198 405.408C202.198 404.896 202.022 404.464 201.67 404.112C201.318 403.76 200.894 403.576 200.398 403.56H197.254V407.208ZM213.1 410.568H211.012V417H207.652V400.2H214.156C214.86 400.2 215.524 400.336 216.148 400.608C216.772 400.88 217.316 401.256 217.78 401.736C218.26 402.2 218.636 402.752 218.908 403.392C219.18 404.016 219.316 404.688 219.316 405.408C219.316 406.368 219.076 407.248 218.596 408.048C218.116 408.832 217.492 409.448 216.724 409.896L220.444 417H216.628L213.1 410.568ZM211.012 407.208H214.156C214.652 407.208 215.076 407.04 215.428 406.704C215.78 406.352 215.956 405.92 215.956 405.408C215.956 404.896 215.78 404.464 215.428 404.112C215.076 403.76 214.652 403.576 214.156 403.56H211.012V407.208ZM229.21 405.6L230.986 403.08L233.026 400.2H237.058L230.914 409.248C230.914 409.824 230.906 410.416 230.89 411.024C230.89 411.632 230.89 412.24 230.89 412.848V417H227.53V409.2L224.482 404.736L221.41 400.2H225.418L229.21 405.6ZM110.371 434.568V441H107.011V424.2H113.491C114.211 424.2 114.883 424.336 115.507 424.608C116.147 424.88 116.699 425.256 117.163 425.736C117.643 426.2 118.019 426.752 118.291 427.392C118.563 428.016 118.699 428.688 118.699 429.408C118.699 430.128 118.563 430.8 118.291 431.424C118.019 432.048 117.643 432.592 117.163 433.056C116.699 433.52 116.147 433.888 115.507 434.16C114.883 434.432 114.211 434.568 113.491 434.568H110.371ZM110.371 431.208H113.491C114.003 431.208 114.435 431.04 114.787 430.704C115.155 430.352 115.339 429.92 115.339 429.408C115.339 428.896 115.155 428.464 114.787 428.112C114.435 427.76 114.003 427.576 113.491 427.56H110.371V431.208ZM129.316 436.44H124.996C124.724 437.176 124.444 437.936 124.156 438.72C123.884 439.504 123.62 440.264 123.364 441H119.668L125.692 424.2H128.644L134.668 441H130.948L129.316 436.44ZM126.196 433.104H128.116L127.66 431.784C127.596 431.592 127.548 431.464 127.516 431.4C127.5 431.336 127.476 431.272 127.444 431.208C127.428 431.144 127.396 431.056 127.348 430.944C127.316 430.832 127.252 430.64 127.156 430.368L126.196 433.104ZM149.932 438.264C149.564 438.68 149.132 439.064 148.636 439.416C148.14 439.768 147.596 440.072 147.004 440.328C146.428 440.568 145.812 440.76 145.156 440.904C144.5 441.032 143.836 441.096 143.164 441.096C141.868 441.096 140.748 440.856 139.804 440.376C138.86 439.88 138.076 439.232 137.452 438.432C136.844 437.632 136.388 436.72 136.084 435.696C135.78 434.656 135.628 433.592 135.628 432.504C135.628 431.416 135.78 430.36 136.084 429.336C136.388 428.312 136.844 427.408 137.452 426.624C138.076 425.824 138.86 425.184 139.804 424.704C140.748 424.224 141.868 423.984 143.164 423.984C144.524 423.984 145.732 424.288 146.788 424.896C147.844 425.488 148.82 426.312 149.716 427.368L147.22 429.576C146.5 428.696 145.812 428.104 145.156 427.8C144.5 427.496 143.852 427.344 143.212 427.344C142.492 427.344 141.86 427.488 141.316 427.776C140.788 428.064 140.348 428.448 139.996 428.928C139.66 429.408 139.404 429.96 139.228 430.584C139.068 431.208 138.988 431.856 138.988 432.528C138.988 433.2 139.068 433.856 139.228 434.496C139.404 435.12 139.66 435.672 139.996 436.152C140.348 436.632 140.788 437.024 141.316 437.328C141.86 437.616 142.492 437.76 143.212 437.76C143.484 437.76 143.78 437.752 144.1 437.736C144.42 437.704 144.74 437.656 145.06 437.592C145.38 437.512 145.684 437.424 145.972 437.328C146.276 437.216 146.532 437.072 146.74 436.896V433.992H142.468V430.632H150.1V438.048L149.932 438.264ZM151.05 441V424.2H161.754V427.56H154.41V430.632H161.106V433.992H154.41V437.64H161.826V441H151.05ZM181.148 441L173.3 430.584V441H169.988V424.2H172.604L180.524 434.592V424.2H183.836V441H181.148ZM197.208 432.528C197.208 431.84 197.112 431.184 196.92 430.56C196.728 429.936 196.44 429.384 196.056 428.904C195.688 428.424 195.216 428.048 194.64 427.776C194.08 427.488 193.424 427.344 192.672 427.344C191.936 427.344 191.288 427.488 190.728 427.776C190.168 428.048 189.696 428.424 189.312 428.904C188.944 429.368 188.664 429.92 188.472 430.56C188.28 431.184 188.184 431.84 188.184 432.528C188.184 433.232 188.28 433.904 188.472 434.544C188.664 435.168 188.944 435.72 189.312 436.2C189.696 436.68 190.168 437.064 190.728 437.352C191.288 437.624 191.936 437.76 192.672 437.76C193.424 437.76 194.08 437.624 194.64 437.352C195.216 437.064 195.688 436.68 196.056 436.2C196.44 435.72 196.728 435.168 196.92 434.544C197.112 433.904 197.208 433.232 197.208 432.528ZM200.592 432.504C200.592 433.624 200.424 434.704 200.088 435.744C199.752 436.784 199.248 437.704 198.576 438.504C197.92 439.288 197.096 439.92 196.104 440.4C195.128 440.88 193.984 441.12 192.672 441.12C191.376 441.12 190.232 440.88 189.24 440.4C188.264 439.92 187.448 439.288 186.792 438.504C186.136 437.704 185.64 436.784 185.304 435.744C184.968 434.704 184.8 433.624 184.8 432.504C184.8 431.4 184.968 430.336 185.304 429.312C185.64 428.288 186.136 427.384 186.792 426.6C187.448 425.8 188.264 425.168 189.24 424.704C190.232 424.224 191.376 423.984 192.672 423.984C193.984 423.984 195.128 424.224 196.104 424.704C197.096 425.168 197.92 425.8 198.576 426.6C199.248 427.384 199.752 428.288 200.088 429.312C200.424 430.336 200.592 431.4 200.592 432.504ZM208.686 427.56V441H205.326V427.56H201.558V424.2H212.382V427.56H208.686ZM220.543 441V424.2H231.247V427.56H223.903V430.632H230.599V433.992H223.903V441H220.543ZM244.622 432.528C244.622 431.84 244.526 431.184 244.334 430.56C244.142 429.936 243.854 429.384 243.47 428.904C243.102 428.424 242.63 428.048 242.054 427.776C241.494 427.488 240.838 427.344 240.086 427.344C239.35 427.344 238.702 427.488 238.142 427.776C237.582 428.048 237.11 428.424 236.726 428.904C236.358 429.368 236.078 429.92 235.886 430.56C235.694 431.184 235.598 431.84 235.598 432.528C235.598 433.232 235.694 433.904 235.886 434.544C236.078 435.168 236.358 435.72 236.726 436.2C237.11 436.68 237.582 437.064 238.142 437.352C238.702 437.624 239.35 437.76 240.086 437.76C240.838 437.76 241.494 437.624 242.054 437.352C242.63 437.064 243.102 436.68 243.47 436.2C243.854 435.72 244.142 435.168 244.334 434.544C244.526 433.904 244.622 433.232 244.622 432.528ZM248.006 432.504C248.006 433.624 247.838 434.704 247.502 435.744C247.166 436.784 246.662 437.704 245.99 438.504C245.334 439.288 244.51 439.92 243.518 440.4C242.542 440.88 241.398 441.12 240.086 441.12C238.79 441.12 237.646 440.88 236.654 440.4C235.678 439.92 234.862 439.288 234.206 438.504C233.55 437.704 233.054 436.784 232.718 435.744C232.382 434.704 232.214 433.624 232.214 432.504C232.214 431.4 232.382 430.336 232.718 429.312C233.054 428.288 233.55 427.384 234.206 426.6C234.862 425.8 235.678 425.168 236.654 424.704C237.646 424.224 238.79 423.984 240.086 423.984C241.398 423.984 242.542 424.224 243.518 424.704C244.51 425.168 245.334 425.8 245.99 426.6C246.662 427.384 247.166 428.288 247.502 429.312C247.838 430.336 248.006 431.4 248.006 432.504ZM255.836 441.168C255.42 441.168 255.036 441.144 254.684 441.096C253.884 440.984 253.14 440.776 252.452 440.472C251.78 440.152 251.188 439.744 250.676 439.248C250.164 438.752 249.756 438.168 249.452 437.496C249.164 436.808 249.004 436.048 248.972 435.216V424.2H252.332V434.928C252.332 435.392 252.412 435.8 252.572 436.152C252.748 436.488 252.972 436.776 253.244 437.016C253.532 437.24 253.868 437.416 254.252 437.544C254.636 437.672 255.044 437.752 255.476 437.784C255.556 437.8 255.604 437.808 255.62 437.808C255.636 437.808 255.66 437.808 255.692 437.808H256.028C256.06 437.808 256.084 437.808 256.1 437.808C256.116 437.808 256.164 437.8 256.244 437.784C256.676 437.752 257.084 437.672 257.468 437.544C257.852 437.416 258.188 437.24 258.476 437.016C258.764 436.776 258.988 436.488 259.148 436.152C259.324 435.8 259.412 435.392 259.412 434.928V424.2H262.772V435.216C262.74 436.064 262.572 436.824 262.268 437.496C261.98 438.168 261.58 438.76 261.068 439.272C260.556 439.768 259.948 440.176 259.244 440.496C258.556 440.8 257.804 441 256.988 441.096L256.196 441.168H255.836ZM274.898 441L267.05 430.584V441H263.738V424.2H266.354L274.274 434.592V424.2H277.586V441H274.898ZM292.998 432.552C292.998 433.72 292.822 434.816 292.47 435.84C292.134 436.864 291.63 437.76 290.958 438.528C290.286 439.296 289.438 439.904 288.414 440.352C287.406 440.784 286.23 441 284.886 441H278.55V424.2H284.886C286.278 424.2 287.478 424.424 288.486 424.872C289.51 425.32 290.358 425.928 291.03 426.696C291.702 427.448 292.198 428.328 292.518 429.336C292.838 430.344 292.998 431.416 292.998 432.552ZM289.59 432.576C289.59 430.992 289.158 429.76 288.294 428.88C287.446 428 286.278 427.56 284.79 427.56H281.91V437.64H284.79C286.39 437.64 287.59 437.184 288.39 436.272C289.19 435.344 289.59 434.112 289.59 432.576Z" fill="black"/>
</svg>
