<?xml version="1.0" encoding="UTF-8"?>
<svg id="Icones" xmlns="http://www.w3.org/2000/svg" viewBox="0 0 100 100">
  <g>
    <path d="M47.21,63.17c.54.54,40.49-41.56,41.03-41.03.46.46-35.64,45.15-35.41,45.38.54.54,36.12-36.91,36.51-36.51.35.35-30.25,39.39-29.81,39.82.25.25,30.18-30.69,30.43-30.43.36.36-20.73,30.34-20.45,30.62.18.18,20.83-21.19,21.01-21.01.31.31-16.3,25.79-16.04,26.05.08.08,15.01-15.42,15.21-15.21" style="fill: none; stroke: #ebc246; stroke-linecap: round; stroke-linejoin: round; stroke-width: 4px;"/>
    <path d="M16.79,46.49c.2.2,11.5-11.9,11.7-11.7s-8.13,17.79-8.04,17.89c.17.17,22.01-22.25,22.13-22.13.2.2-17.93,27.22-17.59,27.56S58.86,23.9,59.04,24.08c.36.36-26.31,35.44-25.84,35.9.71.71,47.08-48.29,47.69-47.69.69.69-45.76,54.65-45.12,55.3.74.74,49.76-50.36,50.06-50.06.38.38-49.72,58.43-49.19,58.95.14.14,10.03-10.33,10.18-10.18.19.19-10.73,20.17-10.54,20.35.11.11,9.15-9.3,9.23-9.23.17.17-6.79,16.11-6.64,16.26.07.07,7.36-7.57,7.46-7.46" style="fill: none; stroke: #ebc246; stroke-linecap: round; stroke-linejoin: round; stroke-width: 4px;"/>
  </g>
  <g>
    <path d="M39.42,55.68h-.38c.26.01.52.02.76.02h0s-.38-.02-.38-.02ZM33.36,55.34l-5.31-.31,4.01.24,6.61.39-5.31-.32Z" style="stroke: #000; stroke-miterlimit: 10;"/>
    <path d="M82.5,22.13c-.45-2.22-1-4.5-1.87-6.72-.87-2.23-2.05-4.41-3.77-6.42-.95-1.12-2-1.86-3.09-2.23-1.09-.36-2.23-.35-3.35.07-1.53.57-2.5,1.78-3.17,3.2-.67,1.42-1.04,3.04-1.34,4.4-.04.15-.07.3-.1.44-.04.15-.07.29-.1.42-.02.08-.04.16-.06.23l-6.91,2.2-8.59,2.73c-.39.12-.78.24-1.17.36-.4.12-.79.24-1.19.36-1.78.54-3.59,1.09-5.36,1.75-1.68.63-3.32,1.36-4.86,2.28-1-.06-2.05-.02-3.16.08-1.18.12-2.42.32-3.71.62-2.31.53-4.76,1.16-7.07,2.16s-4.47,2.37-6.19,4.39c-.18.21-.35.43-.52.66-.17.22-.33.46-.48.69-.38.59-.72,1.22-1.02,1.88-.23.51-.43,1.05-.61,1.6-.51.11-1.06.32-1.56.55-.69.31-1.29.67-1.56.84-.86.54-1.55,1.24-2.02,2.02-.46.79-.7,1.65-.67,2.5.05,1.06.51,2.01,1.17,2.76.66.76,1.52,1.34,2.36,1.68.35.14.72.25,1.11.35.22.05.44.09.67.13.28,1.35.68,2.55,1.22,3.55.61,1.15,1.38,2.08,2.32,2.78,1.12.83,2.41,1.29,3.71,1.56,1.31.26,2.62.34,3.8.41l2.72.16c.01.71.03,1.37.05,1.98.02.81.05,1.55.09,2.26l.12,2.29.13,2.28c.08,1.61.17,3.21.26,4.82.08,1.61.17,3.21.25,4.82.02.42.04.84.06,1.26.02.42.04.84.06,1.27.08,1.83.16,3.7.33,5.56.16,1.87.41,3.74.82,5.58.3,1.32.77,2.38,1.42,3.17.65.78,1.47,1.29,2.46,1.52.18.04.35.07.52.09.17.02.34.03.5.03.39,0,.75-.06,1.1-.17.34-.12.66-.29.96-.51.95-.73,1.52-1.92,1.87-3.22.34-1.31.46-2.72.51-3.91.07-1.45.09-2.92.09-4.38s-.02-2.91-.04-4.34c-.01-.95-.03-1.91-.04-2.88,0-.97,0-1.95,0-2.91l.09-7.74.08-6.22c.15,0,.29.01.43.01.12,0,.24,0,.36-.01h.04c2.08,1.99,4.62,3.74,7.67,5.27,3.17,1.59,6.89,2.95,11.21,4.1.2.05.4.11.62.17.22.06.44.12.67.19.85.25,1.81.53,2.81.75.82.19,1.65.34,2.47.4.13.41.27.79.43,1.16.22.52.46,1.01.72,1.47.5.88,1.09,1.62,1.76,2.2.66.57,1.39.98,2.18,1.22.27.08.54.14.8.18.26.03.51.05.76.05,1.46,0,2.76-.67,3.88-2.01,1.13-1.33,2.1-3.34,2.88-6h0c2.39-8.09,3.83-15.76,4.33-23.09.5-7.34.06-14.35-1.3-21.15ZM14.18,39.87c-.05.29-.1.59-.13.9-.04.3-.07.6-.09.9-.02.17-.03.34-.04.51-.01.16-.02.32-.02.48-.04,1.18,0,2.39.13,3.62.01.08.02.16.03.23-.18-.04-.34-.09-.5-.14-.16-.05-.31-.1-.47-.16-.61-.25-1.24-.65-1.72-1.18-.48-.53-.81-1.18-.84-1.91-.03-.57.16-1.16.5-1.71.34-.55.85-1.06,1.47-1.45.27-.17.58-.35.9-.51.31-.16.64-.31.94-.43-.06.28-.11.56-.16.85ZM38.17,64.16l-.09,7c-.01.97-.01,1.95,0,2.93.01.98.02,1.95.04,2.91.02,1.41.04,2.85.04,4.3s-.03,2.89-.09,4.32c-.08,1.59-.26,2.89-.56,3.89s-.7,1.7-1.22,2.09c-.24.19-.51.3-.81.35-.3.05-.64.03-1.01-.06-.7-.16-1.27-.52-1.72-1.1-.44-.59-.78-1.39-1.01-2.44-.4-1.77-.64-3.59-.8-5.41-.16-1.83-.24-3.66-.32-5.46-.01-.42-.03-.85-.05-1.27-.02-.42-.04-.85-.06-1.27-.09-1.61-.17-3.21-.26-4.82-.09-1.61-.17-3.22-.26-4.82l-.12-2.29-.13-2.28c-.03-.6-.06-1.23-.08-1.9-.02-.67-.04-1.38-.05-2.18l2.36.14,6.28.37-.08,7ZM39.98,55.72h-.18s0-.02,0-.02c-.24,0-.5-.01-.76-.03h-.19c-.06-.01-.12-.01-.18-.01l-6.61-.39-4.01-.24-2.6-.15c-1.08-.06-2.28-.13-3.45-.36-1.17-.22-2.3-.61-3.24-1.31-.78-.57-1.42-1.36-1.93-2.35-.51-.98-.88-2.18-1.12-3.56-.03-.2-.06-.39-.09-.59-.03-.19-.05-.39-.07-.58-.16-1.43-.18-2.83-.09-4.16.1-1.34.32-2.61.66-3.77.19-.66.42-1.29.69-1.89.26-.59.57-1.15.91-1.68.13-.21.28-.41.42-.61.15-.2.31-.4.46-.58,1.57-1.84,3.59-3.1,5.76-4.03,2.17-.93,4.49-1.52,6.68-2.02,1-.23,1.96-.4,2.89-.52.92-.11,1.82-.17,2.67-.17.18,0,.37,0,.55,0,.19,0,.37.01.55.02,1.84.12,3.46.54,4.85,1.25,1.39.71,2.56,1.72,3.48,3.02,1.18,1.65,2,3.73,2.47,6.29.31,1.69.46,3.59.46,5.72,0,1.07-.04,2.21-.12,3.4-.11,1.61-.27,3.23-.72,4.66-.45,1.42-1.2,2.63-2.48,3.42-.6.37-1.29.66-2.08.86-.79.2-1.68.31-2.69.34l-.89.03ZM65.59,66.52c-.75-.1-1.52-.26-2.26-.45-.75-.18-1.47-.39-2.13-.58-.23-.07-.46-.14-.68-.2-.22-.06-.44-.12-.64-.18-3.77-1-7.06-2.16-9.91-3.5-2.85-1.33-5.26-2.84-7.27-4.54.46-.07.9-.15,1.31-.26.68-.18,1.31-.42,1.88-.71.19-.1.38-.2.56-.31,1.58-.98,2.5-2.4,3.05-4.02.56-1.62.74-3.45.86-5.26.16-2.37.24-5.27-.14-8.18-.38-2.91-1.23-5.82-2.94-8.22-.22-.3-.45-.6-.69-.87-.1-.12-.21-.24-.32-.36-.02-.02-.05-.05-.07-.07-.11-.11-.22-.23-.33-.33-.13-.12-.26-.24-.39-.36-.17-.14-.34-.28-.51-.41-.18-.14-.35-.27-.54-.39-.09-.06-.18-.12-.28-.18-.09-.06-.19-.12-.28-.18-.19-.11-.38-.22-.58-.32-.22-.11-.44-.22-.66-.31-.19-.09-.37-.16-.56-.23-.26-.11-.53-.2-.81-.28-.35-.11-.72-.21-1.1-.29,1.27-.61,2.61-1.13,3.97-1.59,1.36-.47,2.74-.89,4.1-1.31.4-.12.8-.24,1.2-.36.39-.12.79-.24,1.18-.37l7.33-2.32,7.34-2.33c-.26,1.25-.49,2.55-.68,3.9-.27,1.82-.48,3.73-.65,5.77-.2,2.5-.33,5.15-.39,8s-.05,5.89.03,9.17l.02.99.03.99c.05,2.45.1,4.95.23,7.45.14,2.5.35,5,.73,7.45l.05.35.05.36c.08.49.15.98.23,1.48.07.45.15.9.23,1.36.01.04.01.08.02.12.05.28.11.57.17.85.07.34.15.68.24,1.02h0ZM82.28,43.21c-.25,3.61-.73,7.3-1.44,11.08-.71,3.79-1.66,7.66-2.83,11.64-.79,2.68-1.71,4.57-2.78,5.69-1.06,1.12-2.27,1.47-3.64,1.06-.76-.22-1.38-.65-1.88-1.14-.51-.5-.89-1.07-1.17-1.56-.24-.42-.45-.85-.65-1.32-.2-.47-.38-.97-.54-1.51-.28-.91-.5-1.86-.67-2.82-.18-.96-.33-1.93-.47-2.88l-.05-.35-.06-.36c-.36-2.4-.57-4.86-.7-7.33-.13-2.47-.19-4.94-.24-7.38l-.04-1.98c-.08-3.25-.09-6.26-.03-9.09.06-2.82.19-5.44.39-7.92.16-2,.36-3.88.62-5.66.07-.45.14-.89.21-1.32.13-.79.27-1.55.42-2.3.04-.17.07-.34.11-.51.03-.16.07-.32.1-.48.03-.16.06-.32.1-.48l.08-.33c.02-.1.05-.21.07-.31.03-.14.07-.29.1-.43.02-.08.04-.15.05-.23.02-.07.04-.15.05-.22.29-1.26.61-2.68,1.14-3.89.53-1.2,1.28-2.2,2.42-2.62.22-.08.43-.14.63-.18.21-.03.41-.05.61-.05.74,0,1.42.25,2.01.62.59.36,1.09.85,1.5,1.33,1.6,1.88,2.72,3.94,3.53,6.05.82,2.11,1.34,4.28,1.77,6.41,1.34,6.66,1.77,13.55,1.28,20.77Z" style="stroke: #000; stroke-miterlimit: 10;"/>
    <path d="M13.9,42.53v.13c0-.16.01-.32.02-.48-.01.12-.02.23-.02.35Z" style="stroke: #000; stroke-miterlimit: 10;"/>
    <path d="M44.21,27.17s-.04-.02-.06-.03c.1.06.19.12.28.18-.07-.05-.15-.1-.22-.15ZM44.21,27.17s-.04-.02-.06-.03c.1.06.19.12.28.18-.07-.05-.15-.1-.22-.15ZM64.93,63.16c.04.31.1.63.15.94.02.14.05.28.08.42-.08-.46-.16-.91-.23-1.36ZM44.21,27.17s-.04-.02-.06-.03c.1.06.19.12.28.18-.07-.05-.15-.1-.22-.15Z" style="stroke: #000; stroke-miterlimit: 10;"/>
    <path d="M40.01,55.7h-.21v.03h.18s.89-.04.89-.04c-.27.01-.56.01-.86.01ZM13.94,41.83c-.01.12-.02.23-.02.35,0-.17.02-.34.04-.51-.01.05-.02.11-.02.16ZM40.01,55.7h-.21v.03h.18s.89-.04.89-.04c-.27.01-.56.01-.86.01Z" style="stroke: #000; stroke-miterlimit: 10;"/>
    <path d="M67.04,16.29c-.04.16-.07.32-.1.48.04-.17.07-.33.11-.49.02-.11.04-.21.07-.32l-.08.33Z" style="stroke: #000; stroke-miterlimit: 10;"/>
  </g>
</svg>