<svg width="100" height="101" viewBox="0 0 100 101" fill="none" xmlns="http://www.w3.org/2000/svg">
<path d="M11.5614 36.2795C11.5614 36.2795 18.4714 29.1895 18.5614 29.2795C18.7314 29.4495 8.28136 49.4095 8.41136 49.5395C8.65136 49.7795 28.8814 28.6595 29.0814 28.8695C29.4114 29.1995 9.87136 57.2795 10.0914 57.4995C10.3414 57.7495 34.7314 32.2195 35.0514 32.5395C35.3914 32.8795 11.1014 65.4995 11.4414 65.8295C11.6914 66.0795 37.2814 39.4695 37.5414 39.7295C37.8414 40.0295 14.2814 72.5595 14.4314 72.7095C14.7914 73.0695 37.2814 49.1995 37.6114 49.5295C37.8214 49.7395 19.1014 77.3595 19.4414 77.6995C19.6714 77.9295 37.5114 59.0895 37.7814 59.3595" stroke="#EBC246" stroke-width="4" stroke-linecap="round" stroke-linejoin="round"/>
<path d="M77.2313 67.7293C77.3513 67.8493 87.5213 57.3293 87.5813 57.3793C87.6613 57.4593 87.4213 67.4093 87.4913 67.4893C87.5313 67.5293 94.8213 59.9993 94.9013 60.0793" stroke="#EBC246" stroke-width="4" stroke-linecap="round" stroke-linejoin="round"/>
<path d="M75.7014 58.2094C75.8114 58.3194 84.0114 49.7894 84.0614 49.8494C84.1514 49.9394 84.9714 58.6894 85.0414 58.7694C85.1014 58.8294 91.2514 52.4794 91.2914 52.5194" stroke="#EBC246" stroke-width="4" stroke-linecap="round" stroke-linejoin="round"/>
<path d="M84.7214 47.7093C84.8314 47.8193 92.7814 39.5193 92.8414 39.5893" stroke="#EBC246" stroke-width="4" stroke-linecap="round" stroke-linejoin="round"/>
<path d="M50.9813 17.0894C50.9813 17.0894 57.2013 10.7594 57.2613 10.8094C57.5713 11.1194 34.5713 42.3494 34.9813 42.7594C35.1513 42.9294 63.1313 14.2794 63.3013 14.4394C63.5413 14.6794 34.1013 53.2494 34.3913 53.5294C34.5713 53.7094 61.8313 25.6594 62.0413 25.8794C62.4813 26.3194 31.1713 66.1294 31.4113 66.3694C31.6513 66.6094 65.4513 31.6394 65.8013 31.9794C66.1513 32.3194 31.8413 75.3794 32.1113 75.6394C32.4913 76.0194 70.2713 36.3394 70.8413 36.9094C71.3213 37.3894 39.7713 76.9294 40.2713 77.4294C40.8413 77.9994 78.4113 38.3194 78.9013 38.7994C79.0813 38.9794 49.2113 77.4894 49.6313 77.9094C49.9013 78.1794 88.5513 38.5194 88.7913 38.7494C89.1813 39.1394 57.5113 79.4594 57.8613 79.8094C58.0013 79.9494 79.9113 57.1194 80.2313 57.4394C80.3613 57.5694 68.7213 78.2594 68.9513 78.4894C69.0413 78.5794 77.8713 69.3394 77.9913 69.4494C78.0413 69.4994 77.5613 79.5094 77.6413 79.5894C77.7513 79.6994 88.9513 68.1394 89.0213 68.2094C89.0913 68.2794 87.9613 79.1294 88.0813 79.2394C88.1113 79.2694 94.6813 72.4894 94.7513 72.5694" stroke="#EBC246" stroke-width="4" stroke-linecap="round" stroke-linejoin="round"/>
<path d="M4.75134 63.7193C5.83134 67.6893 7.52134 71.8593 11.0613 73.9393C15.2413 76.3993 20.8813 75.0193 24.4413 71.7293C28.0013 68.4393 29.8113 63.6693 30.8113 58.9293C32.2313 52.1793 32.2513 45.1393 30.8713 38.3793C29.9613 33.9593 28.3113 29.4393 24.8713 26.5293C18.1813 20.8793 6.60134 24.0293 3.75134 32.3093C0.551338 41.6093 2.25134 54.5093 4.75134 63.7193Z" stroke="black" stroke-width="4" stroke-miterlimit="10"/>
<path d="M23.8513 72.2494C24.7813 72.4994 25.7413 72.6494 26.6813 72.7794C44.2813 75.1494 62.1413 75.4894 79.8113 73.8294C81.3613 73.6794 82.9513 73.5094 84.3513 72.8094C85.7513 72.1194 86.9313 70.7794 87.0013 69.2294C87.0713 67.6694 86.0013 66.2294 84.6613 65.4194C83.3213 64.6094 81.7413 64.3194 80.1913 64.0894C76.5613 63.5294 65.7813 62.8994 69.2213 63.0394C72.5113 62.9994 75.7913 62.9594 79.0813 62.9194C82.0113 62.8794 85.6013 62.4294 86.7013 59.7094C87.5913 57.5094 86.1313 54.9294 84.0813 53.7294C82.5013 52.8194 69.9313 52.1394 68.5113 52.0094C68.4713 52.0094 77.7913 52.3194 77.7613 52.3194M77.7613 52.3194C77.7413 52.3194 77.7213 52.3194 77.7013 52.3194M77.7613 52.3194C77.7413 52.3194 77.7113 52.3194 77.7013 52.3194M77.7613 52.3194C77.8013 52.3194 77.8413 52.3194 77.8813 52.3194C79.2813 52.3994 82.4213 52.5094 84.0613 51.9994C86.2213 51.3394 87.6913 49.6594 86.6313 47.6694C85.9313 46.3494 84.3613 45.7794 82.9213 45.3794C74.4013 42.9694 73.0213 43.5094 81.1513 42.4494C83.5713 42.1394 86.5313 41.2294 86.9213 38.8094C87.1613 37.2694 86.1113 35.7594 84.7613 34.9794C83.4213 34.1894 81.8313 33.9694 80.2913 33.7694C76.0513 33.1994 71.8013 32.6494 67.5613 32.0894C65.3213 31.7894 63.0513 31.4894 60.9513 30.6394C58.8513 29.7994 56.9113 28.3394 55.9613 26.2894C54.8713 23.9294 55.2313 21.1694 55.8313 18.6394C56.4413 16.1194 57.2813 13.5794 57.1013 10.9894C56.9213 8.39939 55.3813 5.66939 52.8413 5.09939C50.4713 4.56939 48.0613 6.09939 46.6613 8.07939C45.2613 10.0694 44.6013 12.4594 43.6913 14.7094C41.8913 19.0994 38.9413 22.9794 35.2913 25.9994C33.4613 27.5094 31.4513 28.8094 29.3313 29.8394C28.9113 30.0394 28.4813 30.2194 28.0513 30.3794M77.7013 52.3194C77.4813 52.3094 77.3213 52.2894 77.2313 52.2894C77.3113 52.2894 77.4713 52.2994 77.7013 52.3194Z" stroke="black" stroke-width="4" stroke-linecap="round" stroke-linejoin="round"/>
</svg>
