<svg width="250" height="250" viewBox="0 0 250 250" fill="none" xmlns="http://www.w3.org/2000/svg">
<g id="connexion 1">
<g id="Connexion">
<g id="Group">
<g id="Group_2">
<path id="Vector" d="M108.944 142.256C109.281 142.569 130.025 118.206 130.744 118.878C131.262 119.362 114.247 140.881 114.262 140.897C114.425 141.047 133.431 119.912 133.647 120.112C133.972 120.416 117.444 141.131 118.025 141.672C118.044 141.691 136.141 122.175 136.175 122.209C136.444 122.459 121.859 141.697 122.253 142.066C122.572 142.362 139.806 122.5 140.178 122.844C140.262 122.922 126.734 142.272 126.744 142.278C127.241 142.741 143.428 123.591 143.825 123.962C143.997 124.122 132.481 139.831 132.897 140.219C132.941 140.259 146.55 125.137 146.769 125.341C146.816 125.384 137.644 139.694 137.797 139.834C137.837 139.872 148.366 127.862 148.684 128.159" stroke="#EBC246" stroke-width="3" stroke-linecap="round" stroke-linejoin="round"/>
<path id="Vector_2" d="M32.625 164.35C32.7469 164.462 38.3031 158.197 38.3344 158.228C38.3687 158.262 35.3812 165.491 35.4094 165.516C36.6 166.625 100.641 92.175 102.331 93.75C103.291 94.6437 37.9844 166.575 38.4437 167.003C38.8406 167.375 102.606 95 104.2 96.4875C104.744 96.9969 41.7781 167.578 42.075 167.856C42.5062 168.256 106.466 98.4688 106.634 98.625C106.813 98.7906 44.5781 169.147 44.7875 169.341C46.5406 170.975 106.116 99.7625 108.016 101.534C108.65 102.125 49.5312 169.213 49.5437 169.222C49.6906 169.359 110.309 102.956 110.859 103.469C111.7 104.253 50.25 170.862 51.4125 171.944C53.1344 173.547 113.656 103.919 114.291 104.513C114.844 105.028 54.1781 170.375 55.9469 172.022C57.0875 173.084 115.8 106.438 116.497 107.091C118.106 108.591 58.0656 173.912 58.1594 174.003C59.4594 175.216 120.006 106.541 120.575 107.072C121.544 107.975 61.0875 173.094 62.2687 174.197C63.7187 175.547 120.856 108.228 122.422 109.691C124.266 111.409 63.2656 174.297 64.8625 175.788C65.325 176.219 122.834 111.684 123.8 112.584C125.625 114.287 65.925 175.9 67.3688 177.247C67.5063 177.375 126.409 113.331 126.709 113.612C127.888 114.712 70.0187 179.069 70.1469 179.191C70.4312 179.456 127.106 116.697 127.809 117.353C128.3 117.812 74.7875 179.131 74.8312 179.172C75.5875 179.875 104.062 147.328 104.312 147.559C104.562 147.791 76.3656 180.997 76.7563 181.359C77.5344 182.084 103.181 151.503 103.941 152.209C104.003 152.269 80.4031 180.878 80.8906 181.334C81.325 181.741 103.969 155.775 104.372 156.153C104.775 156.531 82.9188 182.725 83.4563 183.228C83.9313 183.672 102.134 162.381 102.544 162.759C102.916 163.106 86.2031 183.406 86.7656 183.931C87.1281 184.269 101.2 168.144 101.353 168.288C101.412 168.344 90.1937 184.428 90.3375 184.566C90.4937 184.712 96.0656 178.022 96.2656 178.209" stroke="#EBC246" stroke-width="3" stroke-linecap="round" stroke-linejoin="round"/>
<path id="Vector_3" d="M91.7501 79.4156C91.8032 79.4656 93.5063 77.4875 93.5282 77.5094C93.6376 77.6094 90.1782 85.8594 90.2344 85.9125C90.4157 86.0813 96.0438 79.5875 96.0907 79.6313C96.2094 79.7406 87.9126 92.7812 88.0626 92.9187C88.1844 93.0312 97.5344 82.4406 97.6938 82.5906C97.7063 82.6031 79.7344 105.712 80.0844 106.041C80.6157 106.534 99.4563 84.6437 99.7688 84.9312C99.7813 84.9437 67.4313 123.869 67.6376 124.062C68.4594 124.831 101.338 87.6937 101.453 87.8C101.784 88.1094 61.7532 134.756 61.8188 134.816C61.8938 134.884 101.534 91.9812 101.656 92.0969" stroke="#EBC246" stroke-width="3" stroke-linecap="round" stroke-linejoin="round"/>
<path id="Vector_4" d="M110.903 110.759C110.953 110.806 112.466 109.041 112.487 109.059C112.547 109.116 112.387 113.975 112.419 114.006C112.531 114.109 115.669 110.462 115.697 110.491C115.731 110.522 115.944 114.822 115.984 114.859C116.009 114.881 116.872 113.841 116.906 113.872" stroke="#EBC246" stroke-width="3" stroke-linecap="round" stroke-linejoin="round"/>
</g>
<path id="Vector_5" d="M187.434 84.9562C187.6 85.1125 193.784 78.0031 193.856 78.0719C194.106 78.3063 182.203 95.175 182.334 95.3C182.884 95.8125 201.694 74.2563 201.834 74.3906C202.081 74.6219 181.772 99.9563 182.084 100.247C182.381 100.522 207.213 72.5125 207.606 72.8781C207.625 72.8969 181.663 104.291 182.15 104.744C183.009 105.544 213.463 70.1531 213.969 70.625C213.981 70.6375 182.803 108.322 183 108.509C183.888 109.338 219.275 69.3625 219.397 69.4781C219.691 69.7531 184.625 111.166 184.681 111.219C184.75 111.284 221.772 71.2156 221.884 71.3219C222.891 72.2625 179.894 118.809 180.953 119.797C181.756 120.544 222.338 73.5469 223.269 74.4187C224.038 75.1344 175.619 129.381 176.053 129.784C176.184 129.909 221.803 80.075 222.128 80.375C223.013 81.2 178.113 131.438 178.259 131.575C179.328 132.572 221.659 83.175 222.588 84.0406C223.569 84.9562 176.572 134.816 177.931 136.081C179.013 137.091 221.078 87.0344 222.463 88.325C223.328 89.1313 177.566 139.112 178.453 139.937C179.581 140.991 221.991 92.5438 222.344 92.8719C222.697 93.2 177.953 143.113 178.725 143.831C179.656 144.7 222.534 94.9438 223.488 95.8313C224.928 97.175 180.55 145.756 180.888 146.069C181.038 146.206 222.231 99.6344 223.278 100.609C223.331 100.659 180.675 150.584 180.722 150.628C181.506 151.359 221.728 105.434 222.338 106.003C222.881 106.509 180.909 153.541 181.481 154.075C182.019 154.575 222.5 108.091 223.497 109.019C223.509 109.031 184.659 153.609 185.638 154.522C185.669 154.55 223.844 113.387 223.925 113.462C224.728 114.212 189.097 154.903 189.175 154.975C189.438 155.222 223.903 117.434 224.053 117.575C224.997 118.456 193.531 153.269 194.475 154.15C195.15 154.778 223.644 122.563 223.797 122.706C224.344 123.219 198.697 153.741 199.113 154.128C199.188 154.197 223.134 128.222 223.206 128.291C223.688 128.738 204.869 152.375 205.041 152.538C205.425 152.894 223.641 131.434 224.216 131.975C224.259 132.016 212.306 149.372 212.506 149.559C212.866 149.894 223.163 137.662 223.397 137.878C223.45 137.928 219.05 146.769 219.197 146.906C219.284 146.988 223.794 141.731 223.916 141.844" stroke="#EBC246" stroke-width="3" stroke-linecap="round" stroke-linejoin="round"/>
</g>
<g id="Group_3">
<g id="Group_4">
<path id="Vector_6" d="M26.3187 159.091C31.85 151.666 40.75 147.322 47.0219 140.503C52.1 134.978 56.425 128.762 59.8375 122.078C64.3687 113.2 71.1906 105.425 76.5594 96.9312C79.9656 91.5406 83.4062 85.2844 83.9437 78.825C84.1718 76.0656 85.7562 70.5 89.6437 73.4937C92.8093 75.9312 93.1718 80.3406 94.9093 83.6656C96.3531 86.4312 97.1531 89.6125 98.8906 92.2C100.612 94.7687 103.131 96.7281 105.731 98.3406C108.784 100.234 111.997 101.719 114.869 103.947C117.022 105.619 118.978 107.534 120.8 109.559C122.547 111.503 123.987 113.919 126.041 115.541C128.809 117.728 133.372 118.009 136.697 118.866C139.5 119.587 143.625 120.044 142.694 123.697C141.766 127.344 138.434 130.156 135.481 132.259C131.909 134.8 127.656 136.159 123.294 136.397C120.422 136.553 117.525 136.672 114.65 136.769C109.928 136.928 102.784 135.622 99.5906 140.106C97.4625 143.097 98.2218 147.694 97.5156 151.112C96.5343 155.85 95.6906 160.784 94.1437 165.378C92.175 171.222 88.3093 176.706 83.1906 180.166" stroke="black" stroke-width="4" stroke-linecap="round" stroke-linejoin="round"/>
<path id="Vector_7" d="M105.984 109.534C105.197 109.156 104.372 108.584 104.053 107.684C103.622 106.456 104.356 105.241 105.269 104.641C106.15 104.063 107.244 103.825 108.319 104.1C109.394 104.375 110.434 105.188 110.994 106.313C111.687 107.709 111.509 109.712 110.253 110.35C109.128 110.919 107.147 110.094 105.981 109.534H105.984Z" stroke="black" stroke-width="4" stroke-linecap="round" stroke-linejoin="round"/>
</g>
<path id="Vector_8" d="M216.334 64.825C211.044 64.825 206.497 65.7625 201.431 67.2687C197.225 68.5219 192.647 69.5719 189.003 72.0844C183.097 76.1531 178.884 82.0062 176.331 88.7031C174.338 93.9375 175.131 98.0687 176.963 103.072C178.319 106.778 177.644 110.597 175.491 113.866C173.503 116.884 170.278 118.816 168.697 122.172C166.638 126.541 173.088 124.859 173.022 127.828C172.981 129.491 170.566 129.972 170.913 131.866C171.203 133.447 173.247 133.481 173.397 135.062C173.531 136.481 172.441 137.003 172.141 138.184C171.706 139.891 172.875 139.9 173.653 141.212C175.153 143.737 172.725 147.228 175.894 148.984C178.503 150.434 182.075 149.831 184.909 149.641C191.766 149.184 198.275 147.466 204.741 145.222C209.234 143.662 215.609 141.694 217.428 136.737" stroke="black" stroke-width="4" stroke-linecap="round" stroke-linejoin="round"/>
</g>
</g>
</g>
</svg>
