<?xml version="1.0" encoding="UTF-8"?>
<svg id="Icones" xmlns="http://www.w3.org/2000/svg" viewBox="0 0 100 100">
  <g>
    <path d="M17.14,75.66c.1.11,11.19-10.69,11.32-10.55.11.12-6.98,15.97-6.89,16.07.05.06,9.89-9.35,9.95-9.28.16.17-5.51,14.68-5.44,14.76.74.8,60.37-57.66,61.05-56.93.82.88-54.91,59.2-54.08,60.09.72.78,55.7-52.72,56.09-52.3.43.46-42.84,48.56-42.35,49.1.14.15,25.55-24.31,25.79-24.05" style="fill: none; stroke: #ebc246; stroke-linecap: round; stroke-linejoin: round; stroke-width: 4px;"/>
    <path d="M66,25.92c.06.06,6.03-5.77,6.1-5.69.16.18-8.02,16.77-7.9,16.9.1.11,14.57-13.85,14.7-13.71.24.26-13.55,21.98-13.4,22.14.26.28,18.54-17.6,18.7-17.43" style="fill: none; stroke: #ebc246; stroke-linecap: round; stroke-linejoin: round; stroke-width: 4px;"/>
  </g>
  <path d="M60.67,36.81c.55-1.15.81-2.36.25-3.61-.61-1.36-2.11-1.93-3.5-2.11-1.43-.18-3.32.21-2.48-2.01.57-1.49,1.22-2.95,1.92-4.38,1.03-2.09,2.21-4.11,3.51-6.04,1.14-1.69,2.07-2.79,4.23-2.78,3.34.02,6.64,2.17,9.27,4.04,2.56,1.82,6.03,4.46,7.21,7.45,1.36,3.47.01,8.19-1.53,11.36-3.06,6.29-8.37,12.24-12.82,17.59-3.73,4.48-7.69,8.77-11.86,12.85-4.53,4.44-9.4,8.64-14.85,11.92-5.13,3.09-12.32,6.52-18.4,4.52-3.76-1.24-5.98-4.67-7.64-8.05-1.46-2.99-4.02-6.57-1.76-9.82,1.24-1.79,2.91-3.21,4.61-4.55s3.14-2.68,4.97-3.65c.35-.18.71-.35,1.11-.35.77,0,1.21.85,1.41,1.49.6,1.91-.53,6.56,1.56,7.7,1.13.62,2.54.51,3.72.01,2.78-1.16,5.43-3.69,7.78-5.54,2.61-2.06,5.14-4.21,7.56-6.49,4.84-4.55,9.25-9.58,12.89-15.14.25-.38.49-.75.73-1.13.64-1.01,1.52-2.12,2.08-3.3Z" style="fill: none; stroke: #000; stroke-linecap: round; stroke-linejoin: round; stroke-width: 2px;"/>
</svg>