<svg width="100" height="100" viewBox="0 0 100 100" fill="none" xmlns="http://www.w3.org/2000/svg">
<g id="coordonn&#195;&#169;e 1">
<g id="Group 53">
<g id="Group">
<path id="Vector" d="M26.8312 70.44C26.8812 70.49 33.1212 64.01 33.1912 64.08C33.3812 64.27 25.8112 81.37 25.9012 81.46C26.1512 81.71 40.7012 66.24 40.9112 66.45" stroke="#EBC246" stroke-width="4" stroke-linecap="round" stroke-linejoin="round"/>
<path id="Vector_2" d="M15.7413 32.15C15.7413 32.15 20.6813 27.1 20.7313 27.16C20.9213 27.35 13.1413 44.66 13.2213 44.75C13.5013 45.03 29.4013 28.12 29.6313 28.34C29.9913 28.7 9.73135 57.93 9.91135 58.11C10.2113 58.41 40.4313 27.12 40.6713 27.35C41.0013 27.68 14.8213 62.49 15.1613 62.83C15.4513 63.12 47.7214 29.32 48.2014 29.79C48.5814 30.17 18.4713 68.66 18.7413 68.92C19.0113 69.18 57.4613 29.53 57.8013 29.86C58.2713 30.33 26.4213 70.43 26.6713 70.68C26.9913 71 66.9114 29.76 67.2514 30.1C67.7114 30.56 37.1213 69.66 37.4813 70.01C37.7413 70.27 75.9614 31.01 76.2214 31.27C76.6014 31.65 44.3914 72.15 44.7914 72.54C45.1614 72.91 85.7714 31.08 86.0114 31.32C86.4514 31.76 51.2913 75.58 51.5513 75.85C51.9413 76.24 92.5714 33.82 93.0814 34.32C93.5014 34.74 59.9414 76.1 60.4514 76.6C60.7214 76.87 94.7313 41.31 95.2413 41.81C95.5913 42.16 69.3614 76.99 69.5414 77.16C69.7314 77.35 94.5813 51.66 94.8113 51.89C95.0213 52.1 80.6814 75.62 80.7914 75.73C80.8614 75.8 91.7813 64.53 91.8813 64.64" stroke="#EBC246" stroke-width="4" stroke-linecap="round" stroke-linejoin="round"/>
</g>
<g id="Group_2">
<path id="Vector_3" d="M34.7816 67.26C30.3716 70.64 25.8116 73.85 20.9416 76.55C19.8416 77.16 18.7016 77.75 17.4516 77.91C16.1916 78.06 14.8016 77.68 14.0716 76.67C13.4216 75.77 13.4316 74.55 13.8016 73.52C14.1716 72.48 14.8616 71.59 15.5416 70.72C17.0516 68.8 18.5616 66.87 20.0716 64.94" stroke="black" stroke-width="4" stroke-linecap="round" stroke-linejoin="round"/>
<path id="Vector_4" d="M34.7815 67.26C45.4115 69.48 56.0415 71.64 66.9215 71.95C71.2715 72.07 75.9715 71.78 79.3515 69.32C83.0415 66.64 84.1815 62.1 85.0915 57.91C86.0915 53.26 87.1015 48.62 88.1115 43.97C88.6115 41.65 89.1215 39.3 88.9815 36.94C88.7815 33.56 86.6315 30.65 83.4015 28.96C78.5415 26.42 72.1615 26.66 66.7215 26.19C52.3815 24.95 38.0515 23.61 23.6615 22.77C20.1315 22.56 16.1215 21.4 12.6715 22.6C8.48151 24.07 7.67151 29.37 6.73151 32.76C5.23151 38.11 4.06151 43.72 4.00151 49.25C3.97151 52.64 4.37151 56.25 6.67151 58.94C9.71151 62.48 15.1115 63.44 20.0015 64.31" stroke="black" stroke-width="4" stroke-linecap="round" stroke-linejoin="round"/>
</g>
</g>
</g>
</svg>
