<svg width="84" height="13" viewBox="0 0 84 13" fill="none" xmlns="http://www.w3.org/2000/svg">
<g clip-path="url(#clip0_594_842)">
<path d="M0.5 6.5C0.5 3.18629 3.18629 0.5 6.5 0.5H23.5C24.6046 0.5 25.5 1.39543 25.5 2.5V10.5C25.5 11.6046 24.6046 12.5 23.5 12.5H6.5C3.18629 12.5 0.5 9.81371 0.5 6.5Z" fill="#E15050"/>
<rect x="29.5" y="0.5" width="25" height="12" rx="2" fill="#E15050"/>
<path d="M58.5 2.5C58.5 1.39543 59.3954 0.5 60.5 0.5H77.5C80.8137 0.5 83.5 3.18629 83.5 6.5C83.5 9.81371 80.8137 12.5 77.5 12.5H60.5C59.3954 12.5 58.5 11.6046 58.5 10.5V2.5Z" fill="#E15050"/>
</g>
<defs>
<clipPath id="clip0_594_842">
<rect x="0.5" y="0.5" width="83" height="12" rx="6" fill="white"/>
</clipPath>
</defs>
</svg>
