<?xml version="1.0" encoding="UTF-8"?>
<svg id="Icones" xmlns="http://www.w3.org/2000/svg" viewBox="0 0 100 100">
  <g>
    <g>
      <path d="M72.53,40.03c.04.06,1.98-1.55,2.01-1.51.11.14-5.48,12.82-5.42,12.89.04.06,5.38-4.18,5.44-4.1.1.13-4.91,12.33-4.82,12.45.07.09,12.84-9.92,12.96-9.76.14.19-10.18,16.26-10.1,16.36.18.24,16.55-12.84,16.73-12.61.13.17-17.36,21.6-17.16,21.87s25.12-19.48,25.38-19.13" style="fill: none; stroke: #ebc246; stroke-linecap: round; stroke-linejoin: round; stroke-width: 4px;"/>
      <path d="M73.24,73.71s1.92-1.95,1.93-1.93" style="fill: none; stroke: #ebc246; stroke-linecap: round; stroke-linejoin: round; stroke-width: 4px;"/>
      <path d="M72.41,58.06s1.31-1.33,1.32-1.32" style="fill: none; stroke: #ebc246; stroke-linecap: round; stroke-linejoin: round; stroke-width: 4px;"/>
    </g>
    <g>
      <g>
        <path d="M33.19,35.99s.21-.25.23-.23" style="fill: none; stroke: #ebc246; stroke-linecap: round; stroke-linejoin: round; stroke-width: 4px;"/>
        <path d="M7.11,44.87s3.08-3.12,3.1-3.1c.08.08,1.08,8.5,1.16,8.59.03.03,3.99-4.09,4.04-4.04.07.07-1.58,11.6-1.5,11.68.1.1,16.01-16.25,16.13-16.13.11.11-10.49,20.34-10.39,20.44.14.14,18.57-18.76,18.66-18.66.16.16-12.29,22.02-12.12,22.19.07.07,12.85-13.02,12.94-12.94.14.14-7.67,17.36-7.49,17.54.08.08,4.29-4.38,4.34-4.34" style="fill: none; stroke: #ebc246; stroke-linecap: round; stroke-linejoin: round; stroke-width: 4px;"/>
      </g>
      <path d="M31.94,66.77s1.74-1.79,1.77-1.77" style="fill: none; stroke: #ebc246; stroke-linecap: round; stroke-linejoin: round; stroke-width: 4px;"/>
      <path d="M20.8,56.2s2.49-2.54,2.52-2.52" style="fill: none; stroke: #ebc246; stroke-linecap: round; stroke-linejoin: round; stroke-width: 4px;"/>
    </g>
    <g>
      <g>
        <path d="M72.56,30.45s6.08-6.19,6.14-6.14" style="fill: none; stroke: #ebc246; stroke-linecap: round; stroke-linejoin: round; stroke-width: 4px;"/>
        <path d="M31.91,26.58s1.95-2.04,2-2c.06.06-4.31,13.73-4.19,13.85.09.09,8.92-9.04,8.98-8.98.18.18-9.89,19.34-9.7,19.53.09.09,12.71-12.99,12.85-12.85.13.13-10.58,20.29-10.46,20.41.25.25,19.62-20.21,19.92-19.92.21.21-16.03,25.31-15.84,25.51.17.17,26.48-26.76,26.62-26.62.19.19-20.69,30.17-20.35,30.51s38.73-39.43,39.08-39.08c.56.56-39.9,48.28-39.25,48.93.44.44,39.54-40.14,39.84-39.84.62.62-39.05,48.02-38.6,48.47.33.33,31.75-32.2,31.97-31.97.35.35-23.67,33.2-23.48,33.39.09.09,5.24-5.33,5.28-5.28" style="fill: none; stroke: #ebc246; stroke-linecap: round; stroke-linejoin: round; stroke-width: 4px;"/>
      </g>
      <path d="M47.69,75.38s1.47-1.5,1.48-1.48" style="fill: none; stroke: #ebc246; stroke-linecap: round; stroke-linejoin: round; stroke-width: 4px;"/>
      <path d="M37.66,52.81s2.14-2.18,2.16-2.16" style="fill: none; stroke: #ebc246; stroke-linecap: round; stroke-linejoin: round; stroke-width: 4px;"/>
      <path d="M59.27,55.12c.05.05,3.79-3.85,3.82-3.82" style="fill: none; stroke: #ebc246; stroke-linecap: round; stroke-linejoin: round; stroke-width: 4px;"/>
      <path d="M34.1,31.22s1.67-1.69,1.68-1.68" style="fill: none; stroke: #ebc246; stroke-linecap: round; stroke-linejoin: round; stroke-width: 4px;"/>
      <path d="M73.69,36.82s3.2-3.29,3.24-3.24" style="fill: none; stroke: #ebc246; stroke-linecap: round; stroke-linejoin: round; stroke-width: 4px;"/>
    </g>
  </g>
  <g>
    <g>
      <path d="M63.05,55.28s.01.01,0,.01c.27.59.59,1.16.97,1.76.66,1.02,1.54,2.34,1.68,3.59.11,1-.41,2.13-.8,3.05-.87,2.05-2.15,4.24-1.28,6.52.69,1.81,2.33,3.06,4.29,2.94,2.13-.13,3.99-1.89,5.04-3.64.6-1,.77-2.17,1.48-3.11,1.48-2.01,3.52-1.45,5.57-2.28,2.83-1.15,5.1-3.46,6.63-6.06,1.07-1.82,2.1-3.7,3.11-5.56,1.15-2.09,2.07-4.33,2.25-6.73.05-.71-.1-1.34-.43-1.69-.36-.38-.92-.43-1.68.09-.38.27-5.25,5.26-4.92,5.59-1.5-1.47-3.18-2.75-4.98-3.84s-3.73-1.97-5.74-2.64c-1-.33-2.02-.6-3.05-.81-.15-.03-.31-.06-.46-.09" style="fill: none; stroke: #000; stroke-linecap: round; stroke-linejoin: round; stroke-width: 2px;"/>
      <path d="M68.37,69.92c-.21.15-.42.29-.67.35s-.52.04-.73-.11c-.33-.26-.34-.75-.28-1.17.14-1.07.47-2.12.98-3.07.07-.14.16-.28.3-.33.17-.06.35.02.51.1.7.36,2.38.77,2.1,1.7-.29.98-1.42,1.96-2.21,2.54Z" style="fill: none; stroke: #000; stroke-linecap: round; stroke-linejoin: round; stroke-width: 2px;"/>
      <path d="M78.97,58.8c-.43.16-.97.27-1.38-.01-.43-.29-.49-.87-.35-1.31.21-.68.76-1.21,1.41-1.55.7-.37,3.47-1.4,3.3.12-.13,1.21-1.9,2.34-2.97,2.75Z" style="fill: none; stroke: #000; stroke-linecap: round; stroke-linejoin: round; stroke-width: 2px;"/>
      <path d="M69.83,54c-.02.28-.08.59-.3.74-.28.2-.67.05-.97-.12-1.11-.67-1.93-1.8-2.22-3.06-.06-.28-.1-.59.02-.84.16-.33.56-.5.93-.49,2.1.08,2.66,2.02,2.54,3.78Z" style="fill: none; stroke: #000; stroke-linecap: round; stroke-linejoin: round; stroke-width: 2px;"/>
    </g>
    <g>
      <path d="M29.96,58.98c.21.53.43,1.05.55,1.62.42,1.99.25,4.54-1.22,6.09-1.36,1.42-3.41,1.62-5.14.76-2.19-1.09-2.74-3.56-3.5-5.66-.34-.94-.73-2.12-1.49-2.77-.95-.83-2.48-1.2-3.67-1.5-1.38-.35-2.5-.81-3.7-1.61-3.11-2.06-5.97-5.35-8.02-8.46-1.51-2.3-2.86-5.05-2.75-7.86,0-.48-.04-.95-.01-1.42.02-.44.11-.86.49-1.13.33-.23.73-.26,1.1-.14.36.12.66.34.96.56.29.22.58.43.85.7.63.63,1.23,1.29,1.77,2.01.68.91,1.41,1.78,2.12,2.67.12.15.34.47.56.43.23-.04.47-.34.65-.46.43-.3.88-.58,1.33-.86.9-.54,1.84-1.03,2.8-1.47,1.91-.88,3.93-1.54,6-1.97,1.13-.24,2.27-.4,3.42-.49" style="fill: none; stroke: #000; stroke-linecap: round; stroke-linejoin: round; stroke-width: 2px;"/>
      <path d="M27.43,64.01c-.05.25-.12.5-.25.71s-.36.39-.61.41c-.42.04-.76-.32-1-.66-.63-.88-1.09-1.88-1.37-2.92-.04-.15-.07-.31,0-.45.08-.16.27-.22.44-.27.76-.21,2.27-1.06,2.7-.19.45.92.29,2.4.1,3.37Z" style="fill: none; stroke: #000; stroke-linecap: round; stroke-linejoin: round; stroke-width: 2px;"/>
      <path d="M17.68,51.33c.17.22.34.48.28.75-.08.34-.46.5-.79.57-1.27.27-2.64,0-3.71-.74-.24-.16-.47-.36-.56-.64-.11-.35.07-.75.35-.99,1.6-1.37,3.33-.33,4.43,1.04Z" style="fill: none; stroke: #000; stroke-linecap: round; stroke-linejoin: round; stroke-width: 2px;"/>
    </g>
    <g>
      <path d="M26.72,18.63c.82-.28,1.71.07,2.44,1.44.37.7,3.81,11.95,3.05,12.18,3.39-1.03,6.89-1.66,10.43-1.89s7.13-.07,10.64.49c1.76.28,3.5.66,5.21,1.14.86.24,1.71.5,2.55.79.35.12.88.5,1.26.46s.6-.66.73-.96c.75-1.76,1.55-3.51,2.24-5.29.55-1.41,1.24-2.76,1.98-4.08.31-.55.68-1.02,1.06-1.51s.78-.99,1.31-1.34c.55-.36,1.22-.5,1.85-.28.74.27,1.08.91,1.32,1.61.25.76.38,1.55.62,2.31,1.44,4.53.49,9.6-.94,14.01-1.93,5.98-5.09,12.62-9.22,17.37-1.59,1.84-3.21,3.09-5.29,4.28-1.79,1.03-4.12,2.32-5.29,4.09-.94,1.41-1.03,3.51-1.16,5.18-.29,3.75-.07,8.02-3.13,10.77-2.43,2.18-5.86,2.78-8.7,1.08-3.1-1.85-4.51-5.92-4.73-9.35-.13-1.97.51-3.85.19-5.81-.68-4.15-4.16-4.9-6.59-7.73-3.35-3.91-4.97-9.12-5.25-14.21-.19-3.56-.27-7.16-.36-10.74-.1-4.02.26-8.09,1.85-11.83.47-1.1,1.18-1.93,1.95-2.2Z" style="fill: none; stroke: #000; stroke-linecap: round; stroke-linejoin: round; stroke-width: 2px;"/>
      <path d="M41.47,75.29c.19.38.41.76.73,1.04s.76.47,1.18.39c.7-.13,1.09-.86,1.33-1.53.62-1.71.93-3.54.91-5.36,0-.26-.02-.54-.2-.73-.2-.22-.54-.24-.84-.24-1.33,0-4.17-.7-4.47.91-.32,1.7.61,4.04,1.35,5.52Z" style="fill: none; stroke: #000; stroke-linecap: round; stroke-linejoin: round; stroke-width: 2px;"/>
      <path d="M33.48,50.63c.37.47.9.94,1.5.85.62-.09,1.01-.75,1.11-1.37.15-.96-.14-1.95-.65-2.77-.55-.89-2.96-3.89-3.62-1.94-.53,1.57.75,4.06,1.67,5.23Z" style="fill: none; stroke: #000; stroke-linecap: round; stroke-linejoin: round; stroke-width: 2px;"/>
      <path d="M51.59,50.3c-.19.43-.34.94-.12,1.35.27.51.97.6,1.55.57,2.18-.14,4.29-1.2,5.7-2.87.31-.37.6-.8.62-1.28.02-.63-.45-1.19-1.02-1.45-3.21-1.51-5.56.97-6.73,3.69Z" style="fill: none; stroke: #000; stroke-linecap: round; stroke-linejoin: round; stroke-width: 2px;"/>
      <path d="M26.31,32.59c-.38-2.07-.46-4.2-.25-6.29.04-.38.16-.84.53-.92.36-.08.66.27.86.59,1.09,1.76,1.86,3.72,2.26,5.75" style="fill: none; stroke: #000; stroke-linecap: round; stroke-linejoin: round; stroke-width: 2px;"/>
      <path d="M65.64,33.22c.89-1.84,2.02-3.58,3.34-5.14.26-.3.6-.63.99-.55.46.09.62.66.65,1.13.17,2.23-.35,4.52-1.47,6.46" style="fill: none; stroke: #000; stroke-linecap: round; stroke-linejoin: round; stroke-width: 2px;"/>
    </g>
  </g>
</svg>