<svg width="250" height="250" viewBox="0 0 250 250" fill="none" xmlns="http://www.w3.org/2000/svg">
<g id="equipe 2 1">
<g id="Equipe">
<g id="Group">
<g id="Group_2">
<path id="Vector" d="M77.7157 162.45C77.8657 162.591 94.0626 143.809 94.6157 144.325C94.8782 144.569 81.9032 162.447 82.1094 162.638C82.3844 162.894 95.7563 147.672 95.922 147.825C96.147 148.034 86.0001 162.238 86.322 162.541C86.5345 162.738 96.9001 150.756 97.1188 150.962C97.3376 151.169 90.1469 162.725 90.2438 162.816C90.3126 162.878 96.3032 156.063 96.4313 156.181" stroke="#EBC246" stroke-width="3" stroke-linecap="round" stroke-linejoin="round"/>
<path id="Vector_2" d="M82.7157 126.069C82.8469 126.191 93.7094 114.197 93.7501 114.237C93.9219 114.397 90.3532 122.35 90.4594 122.45C90.5438 122.528 92.3313 120.294 92.4063 120.363" stroke="#EBC246" stroke-width="3" stroke-linecap="round" stroke-linejoin="round"/>
<path id="Vector_3" d="M49.2844 86.125C49.3406 86.175 51.6125 83.5688 51.6406 83.5969C51.6844 83.6375 47.9594 91.7813 48.0969 91.9094C48.1469 91.9563 57.0094 82.2219 57.0719 82.2844C57.2 82.4063 48.6187 95.4469 48.7156 95.5344C49.0406 95.8375 59.95 83.4688 59.9594 83.4781C60.0406 83.5531 51.5687 96.5094 51.6094 96.55C51.8281 96.7563 63.7969 83.1844 63.9437 83.3219C64.1594 83.525 51.9094 100.147 52.3094 100.522C52.4437 100.647 65.225 86.1 65.5125 86.3656C65.825 86.6563 55.7656 101.256 55.825 101.313C56.0187 101.494 66.8344 88.7719 67.2031 89.1125" stroke="#EBC246" stroke-width="3" stroke-linecap="round" stroke-linejoin="round"/>
<path id="Vector_4" d="M27.3063 108.106C27.375 108.169 31.3375 103.694 31.3813 103.734C31.5157 103.859 26.3719 113.038 26.5625 113.216C26.7063 113.35 35.7032 103.006 35.9063 103.194C36.0125 103.291 25.9 117.759 26.0969 117.941C26.1282 117.972 39.9032 102.497 40.2219 102.794C40.7532 103.291 25.8469 122.494 26.1313 122.759C26.2438 122.866 43.6094 103.094 44.0688 103.522C44.3532 103.787 23.8688 128.812 24.5532 129.45C24.7313 129.616 47.825 103.222 48.4594 103.813C49.0532 104.366 25.4282 133.194 25.5907 133.344C26 133.725 50.8594 104.941 51.5094 105.547C52.1594 106.153 24.5094 138.337 24.9594 138.759C25.1375 138.925 68.5719 90.1938 69.4688 91.0281C70.1938 91.7063 25.2 141.884 25.9813 142.616C26.9313 143.5 68.95 95.8656 69.2844 96.1781C70.1125 96.95 24.6282 146.588 25.8313 147.709C26.9282 148.731 68.6469 101.119 68.9844 101.434C69.3469 101.772 25.4875 150.534 26.6938 151.659C27.3625 152.284 71.6125 102.528 72.0907 102.975C73.3 104.103 26.8063 154.012 27.65 154.8C28.2375 155.35 74.9532 102.419 75.7782 103.188C77.325 104.631 28.7563 156.625 29.3282 157.156C30.5969 158.341 79.375 102.081 80.0782 102.734C80.3344 102.975 30.4 158.831 31.1125 159.497C31.4907 159.85 85.3188 100.553 85.725 100.931C87.4219 102.513 32.1875 160.472 33.3594 161.562C33.3657 161.569 88.1125 100.541 89.2625 101.612C90.625 102.884 35.9563 163.078 36.25 163.353C36.8438 163.909 90.2719 103.275 91.3407 104.275C92.4094 105.275 40.1032 161.256 41.2219 162.3C41.3063 162.378 91.4969 106.228 92.5719 107.234C93.6469 108.241 43.9063 162.278 44.5657 162.891C45.6813 163.931 91.8063 111.053 92.3938 111.6C92.8969 112.069 47.7157 163.353 47.9 163.525C47.925 163.547 79.8032 128 80.4594 128.612C81.2313 129.331 53.6032 160.75 54.35 161.447C54.4032 161.497 79.6844 133.434 80.1063 133.828C80.4594 134.159 57.9 161.6 58.2563 161.931C58.4344 162.097 80.9657 136.244 81.6313 136.862C81.7469 136.969 59.3 164.978 59.6907 165.338C59.9125 165.544 83.925 139.212 83.9938 139.275C84.4157 139.669 60.8375 167.2 61.4407 167.763C61.95 168.238 85.6157 141.238 85.9157 141.516C86.2907 141.866 62.3719 170.934 62.7969 171.328C63.4407 171.928 89.2282 141.909 89.7657 142.409C90.1344 142.753 64.1375 173.494 64.5407 173.869C65.3 174.575 92.5563 143.731 92.6032 143.775C92.9844 144.131 65.8563 175.588 66.6125 176.291C66.7469 176.416 75.1469 166.688 75.3719 166.897C75.3813 166.906 67.6438 179.231 67.9563 179.525C68.1375 179.694 76.075 170.606 76.1813 170.703C76.3282 170.841 72.6094 178.922 72.7 179.006C72.7282 179.034 77.8875 173.378 77.9188 173.409" stroke="#EBC246" stroke-width="3" stroke-linecap="round" stroke-linejoin="round"/>
<path id="Vector_5" d="M127.909 149.897C128.053 150.031 143.391 132.244 143.916 132.731C144.144 132.947 133.069 148.9 133.25 149.069C133.478 149.281 144.453 136.781 144.591 136.909C144.781 137.087 136.663 149.287 136.934 149.541C137.138 149.728 147.006 138.322 147.213 138.519C147.453 138.744 139.131 151.447 139.241 151.547C139.341 151.641 148.544 141.197 148.731 141.369C148.931 141.556 140.722 153.656 140.953 153.869C141.147 154.05 151.663 142.109 151.8 142.237C152.169 142.581 142.278 156.978 142.306 157.003C142.556 157.238 156.422 141.584 156.563 141.716C156.994 142.119 142 160.594 142.5 161.059C143 161.525 159.325 142.478 159.594 142.728C160.119 143.219 143.522 164.137 143.772 164.369C143.85 164.444 162.766 143.203 163.163 143.575C163.303 143.706 147.156 164.581 147.541 164.937C147.825 165.203 165.822 145.159 165.909 145.241C166.322 145.625 151.228 164.359 151.731 164.825C151.953 165.034 165.744 148.944 166.169 149.341C166.534 149.681 156.634 164.303 156.741 164.403C156.947 164.594 165.85 154.466 165.934 154.544C165.966 154.572 162.95 162.4 162.966 162.416C162.969 162.416 165.656 159.372 165.734 159.447" stroke="#EBC246" stroke-width="3" stroke-linecap="round" stroke-linejoin="round"/>
<path id="Vector_6" d="M148.412 125.706C148.609 125.891 164.416 108.422 164.475 108.478C164.8 108.781 155.366 122.544 155.569 122.734C155.844 122.991 164.012 113.184 164.259 113.416C164.381 113.528 158.797 123.597 158.812 123.613C158.953 123.744 164.6 117.284 164.662 117.341" stroke="#EBC246" stroke-width="3" stroke-linecap="round" stroke-linejoin="round"/>
<path id="Vector_7" d="M138.159 103C138.2 103.038 139.622 101.391 139.644 101.409C139.684 101.447 136.716 108.819 136.838 108.931C136.884 108.975 145.191 99.8531 145.25 99.9094" stroke="#EBC246" stroke-width="3" stroke-linecap="round" stroke-linejoin="round"/>
<path id="Vector_8" d="M87.1625 102.809C87.1625 102.809 88.6625 101.188 88.6687 101.194C88.7281 101.25 88.225 105.819 88.3093 105.897C88.375 105.959 92.45 101.272 92.5406 101.359C92.5937 101.409 88.6437 109.562 88.7437 109.656C88.7625 109.675 97.0406 100.384 97.2281 100.559C97.5562 100.866 89.4593 113.394 89.6343 113.556C89.7093 113.628 101.437 100.272 101.75 100.562C101.953 100.753 88.1812 119.141 88.6687 119.594C88.8 119.716 106.216 99.8344 106.684 100.272C107.153 100.709 90.0156 122.909 90.1375 123.022C90.4593 123.322 109.684 101.037 110.194 101.512C110.703 101.987 89.4562 127.778 89.8125 128.112C89.9125 128.206 114.766 100.347 115.269 100.816C115.691 101.209 90.7437 131.163 91.1968 131.584C91.7593 132.109 116.359 104.203 116.559 104.388C117.062 104.856 90.5156 135.788 91.2468 136.469C91.9062 137.084 116.506 108.975 116.709 109.166C116.931 109.372 91.0968 140.028 91.8343 140.716C92.2343 141.091 118.472 111.575 118.759 111.841C119.506 112.538 91.5625 144.125 92.0844 144.613C92.4312 144.938 119.944 113.756 120.431 114.213C121.384 115.103 92.2625 147.869 92.6156 148.197C93.3718 148.903 122.066 115.775 122.484 116.166C122.644 116.316 92.3312 151.862 92.7781 152.275C93.0125 152.494 126.375 115.744 126.628 115.975C127.753 117.025 91.9031 156.134 92.6781 156.856C92.6812 156.859 129.528 115.797 130.297 116.512C131.294 117.441 92.025 162.016 92.2406 162.216C92.875 162.806 149.791 98.2125 150.931 99.2781C152.047 100.319 94.8312 161.266 96.0531 162.403C96.15 162.494 153.606 98.2156 154.837 99.3625C156.069 100.509 98.4093 162.528 99.1718 163.237C100.531 164.506 156.825 99.9781 157.541 100.644C158.159 101.219 102.044 163.916 102.269 164.128C102.312 164.169 160.234 99.5406 161.444 100.669C162.941 102.066 106.878 161.109 108.331 162.463C108.444 162.569 162.472 102.603 163.372 103.441C164.144 104.163 112.053 161.597 112.825 162.316C113.216 162.681 163.016 105.55 164.484 106.919C164.719 107.138 115.956 162.309 116.753 163.05C116.812 163.106 123.456 155.825 123.475 155.844" stroke="#EBC246" stroke-width="3" stroke-linecap="round" stroke-linejoin="round"/>
<path id="Vector_9" d="M197.506 150.813C197.931 151.209 230.959 114.672 231.094 114.794C231.934 115.575 203.397 148.144 203.925 148.638C204.706 149.366 229.563 119.744 230.263 120.394C230.666 120.769 206.316 150.331 206.366 150.378C206.953 150.925 230.125 124.394 230.378 124.628C230.731 124.959 208.938 150.838 209.478 151.344C210.119 151.941 229 129.075 229.666 129.697C230.031 130.038 210.828 153.281 211.353 153.775C211.619 154.025 230.575 132.488 230.913 132.8C231.509 133.356 212.338 157.594 212.416 157.666C212.719 157.95 230.266 138.388 230.334 138.45C230.416 138.525 212.803 162.116 212.888 162.194C213.241 162.522 229.791 143.1 230.272 143.55C230.328 143.603 213.634 164.909 214.103 165.347C214.425 165.647 229.956 147.831 230.213 148.072C230.219 148.078 217.55 165.391 217.884 165.703C218.125 165.928 229.753 152.556 229.963 152.753C230.269 153.038 222.447 165.506 222.525 165.581C222.647 165.694 229.681 157.881 229.694 157.894" stroke="#EBC246" stroke-width="3" stroke-linecap="round" stroke-linejoin="round"/>
<path id="Vector_10" d="M191.091 79.5875C191.147 79.6406 193.509 76.9344 193.538 76.9625C193.584 77.0063 189.444 85.5719 189.591 85.7063C189.644 85.7563 198.891 75.6 198.956 75.6625C199.097 75.7938 189.628 89.7469 189.731 89.8438C190.078 90.1656 201.7 76.9906 201.709 76.9969C201.8 77.0813 192.016 91.4125 192.066 91.4594C192.306 91.6844 205.35 76.8906 205.513 77.0406C205.763 77.275 191.094 96.2938 191.559 96.725C191.719 96.8719 206.597 79.9281 206.931 80.2406" stroke="#EBC246" stroke-width="3" stroke-linecap="round" stroke-linejoin="round"/>
<path id="Vector_11" d="M159.412 102.031C159.431 102.047 161.181 100.113 161.194 100.122C161.262 100.184 160.178 105.334 160.275 105.425C160.362 105.506 165.844 99.2031 165.969 99.3188C166.037 99.3844 160.303 109.366 160.431 109.484C160.456 109.506 170.581 98.1344 170.812 98.35C171.209 98.7219 160.784 113.531 160.997 113.728C161.084 113.812 174.806 98.1875 175.172 98.5281C175.406 98.7469 159.137 119.6 159.7 120.122C159.847 120.259 179.275 98.0719 179.803 98.5625C180.331 99.0531 160.7 123.781 160.837 123.909C161.187 124.238 182.309 99.7656 182.866 100.288C183.453 100.834 159.803 128.972 160.197 129.337C160.309 129.441 188.072 98.3156 188.634 98.8406C189.106 99.2813 160.741 132.684 161.25 133.159C162.291 134.131 208.419 81.8406 208.787 82.1813C209.694 83.0281 159.653 137.166 160.972 138.394C162.203 139.541 209.194 85.9219 209.572 86.275C209.984 86.6594 159.866 141.709 161.234 142.987C161.975 143.678 210.847 88.7281 211.375 89.2187C212.731 90.4844 160.262 146.297 161.209 147.181C161.822 147.753 210.506 92.5937 211.366 93.3937C213.022 94.9406 160.853 150.491 161.466 151.062C162.737 152.25 211.603 95.8875 212.306 96.5438C212.575 96.7938 160.606 154.753 161.347 155.444C161.734 155.806 216.875 95.0625 217.291 95.45C219.112 97.1469 159.694 159.175 160.947 160.344C160.953 160.35 221.078 93.325 222.344 94.5031C223.894 95.9469 161.384 164.094 161.719 164.406C162.416 165.056 224.819 94.2219 226.075 95.3938C227.331 96.5656 165.556 161.934 166.872 163.159C166.972 163.253 227.472 95.575 228.769 96.7844C230.066 97.9937 169.284 163.15 170.084 163.894C171.472 165.188 228.941 99.3156 229.672 99.9969C230.303 100.587 172.766 164.772 172.994 164.988C173.037 165.028 230.4 101.022 231.6 102.141C233.094 103.534 177.184 162.428 178.631 163.778C178.741 163.878 230.662 106.247 231.528 107.053C232.275 107.75 182.053 163.284 182.8 163.978C183.169 164.322 230.009 110.584 231.391 111.872C231.609 112.075 186.35 163.634 187.091 164.325C187.147 164.378 193.572 157.341 193.591 157.356" stroke="#EBC246" stroke-width="3" stroke-linecap="round" stroke-linejoin="round"/>
</g>
<g id="Group_3">
<path id="Vector_12" d="M54.0938 138.325C54.1594 138.388 58.0312 134.019 58.0719 134.059C58.1719 134.153 55.0594 141.322 55.2 141.453C55.3156 141.562 62.6562 133.125 62.8219 133.278C62.8875 133.337 57.6844 142.772 57.8062 142.884C57.8281 142.903 66.8375 132.791 67.0406 132.981C67.1625 133.094 66.325 138.472 66.3906 138.531C66.4125 138.553 69.8812 134.6 69.975 134.688" stroke="#EBC246" stroke-width="3" stroke-linecap="round" stroke-linejoin="round"/>
<path id="Vector_13" d="M44.55 134.731C44.5844 134.763 47.1188 131.931 47.1407 131.953C47.2001 132.009 46.5657 136.709 46.6532 136.791C46.7 136.834 49.5344 133.569 49.6 133.631C49.625 133.656 49.4907 137.878 49.5376 137.925C49.5407 137.928 51.7563 135.463 51.7969 135.5" stroke="#EBC246" stroke-width="3" stroke-linecap="round" stroke-linejoin="round"/>
<path id="Vector_14" d="M48.5688 126.009C48.6001 126.041 51.0095 123.35 51.0282 123.372C51.0876 123.428 50.5376 128.044 50.622 128.125C50.672 128.172 53.7813 124.594 53.8532 124.659C53.8876 124.694 52.3657 130.35 52.4313 130.413C52.4407 130.419 56.1845 126.228 56.2626 126.303C56.3845 126.416 55.5345 131.806 55.6001 131.869C55.6126 131.878 57.1938 130.069 57.2376 130.113" stroke="#EBC246" stroke-width="3" stroke-linecap="round" stroke-linejoin="round"/>
<path id="Vector_15" d="M59.1282 124.453C59.1688 124.491 61.9438 121.381 61.9688 121.406C62.0594 121.491 59.5094 128.1 59.6407 128.222C59.7157 128.291 64.4063 122.897 64.5157 122.997C64.5657 123.044 61.2532 130.537 61.3438 130.625C61.3532 130.634 65.6063 125.869 65.7 125.956" stroke="#EBC246" stroke-width="3" stroke-linecap="round" stroke-linejoin="round"/>
<path id="Vector_16" d="M68.0188 128.272C68.0657 128.316 71.0782 124.931 71.1063 124.959C71.1844 125.031 69.375 130.906 69.4875 131.012C69.5469 131.069 73.225 126.834 73.3094 126.912" stroke="#EBC246" stroke-width="3" stroke-linecap="round" stroke-linejoin="round"/>
</g>
<g id="Group_4">
<path id="Vector_17" d="M192.747 126.994C192.797 127.041 196.041 123.397 196.075 123.425C196.178 123.522 192.797 130.959 192.947 131.097C193.059 131.2 200.059 123.153 200.216 123.3C200.297 123.375 193.063 134.894 193.213 135.034C193.238 135.059 204.2 122.75 204.45 122.984C204.781 123.294 196.6 135.906 196.775 136.069C196.844 136.131 207.219 124.316 207.494 124.575C207.628 124.7 199.516 137.484 199.841 137.784C199.9 137.841 208.7 127.853 208.916 128.053C209.066 128.194 205.35 136.8 205.391 136.841C205.441 136.888 207.538 134.381 207.616 134.453" stroke="#EBC246" stroke-width="3" stroke-linecap="round" stroke-linejoin="round"/>
<path id="Vector_18" d="M194.544 115.95C194.6 116.003 198.022 112.15 198.056 112.181C198.144 112.263 195.806 118.663 195.928 118.778C196.019 118.863 201.609 112.431 201.738 112.55C201.788 112.597 198.281 120.294 198.375 120.381C198.391 120.394 204.728 113.284 204.869 113.416C205.022 113.559 202.953 120.159 203.034 120.238C203.056 120.256 206.2 116.669 206.284 116.75" stroke="#EBC246" stroke-width="3" stroke-linecap="round" stroke-linejoin="round"/>
</g>
<path id="Vector_19" d="M137.516 121.838C137.544 121.863 140.466 118.656 140.475 118.666" stroke="#EBC246" stroke-width="3" stroke-linecap="round" stroke-linejoin="round"/>
<path id="Vector_20" d="M122.463 138.781C122.619 138.928 130.584 129.909 130.666 129.984C130.709 130.025 127.309 137.834 127.438 137.956C127.516 138.031 141.394 122.784 141.497 122.881C141.625 123.003 133.016 136.072 133.113 136.163C133.291 136.328 139.403 129.406 139.406 129.413" stroke="#EBC246" stroke-width="3" stroke-linecap="round" stroke-linejoin="round"/>
<path id="Vector_21" d="M120.853 135.409C120.931 135.484 125.397 130.431 125.45 130.481C125.653 130.672 116.422 143.894 116.713 144.166C116.919 144.359 129.978 129.35 130.272 129.625" stroke="#EBC246" stroke-width="3" stroke-linecap="round" stroke-linejoin="round"/>
</g>
<g id="Group_5">
<g id="Group_6">
<path id="Vector_22" d="M21.4781 102.859C20.2187 105.772 20.0219 109.547 19.6906 112.209C18.8156 119.203 18.7781 126.269 18.9594 133.303C19.1437 140.375 18.2656 148.719 23.5906 154.297L23.6156 154.325C26.125 156.937 29.5281 157.431 32.9656 157.734C36.2062 158.019 39.5031 158.016 42.7469 157.737C45.2531 157.522 51.7125 155.906 52.8187 159.159C54.6062 164.372 57.2156 172.016 62.975 173.994C65 174.688 68.0875 174.981 69.7937 173.378C73.525 169.875 69.9906 164.916 69.4125 160.869C69.2812 159.95 69.4437 158.894 70.175 158.319C71.7562 157.075 74.6594 157.619 76.4937 157.644C80.525 157.7 89.1219 159.891 90.4906 154.456C91.4344 150.719 90.4125 146.319 90.2594 142.509C90.2062 141.212 89.9281 139.697 88.9719 138.741C87.8937 137.659 86.2187 137.994 84.7844 137.728C81.3312 137.091 77.3781 135.609 75.1375 132.778C72.4187 129.344 72.2875 124.503 75.6344 121.456C78.2437 119.081 82.2969 119.519 84.9312 117.234C87.5469 114.962 87.4406 110.847 87 107.722C86.5594 104.597 85.7812 99.5781 82.9781 97.7C80.9094 96.3156 78.2687 96.7875 75.9719 97.15C72.8375 97.6406 69.4 98.8437 66.2187 98.0469C64.025 97.4969 63.6031 96.2062 63.3687 94.1125C62.775 88.7781 62.6969 83.1562 57.85 79.7062C54.4437 77.2844 48.9625 75.9031 45.2156 78.4719C41.7719 80.8312 41.5531 85.0406 42.9094 88.6656C43.5969 90.5094 44.6406 92.2469 45.9281 93.7375C47.0062 94.9844 51.6281 97.9281 48.4531 99.425C46.425 100.381 43.6781 99.8344 41.5219 99.7156C36.35 99.4281 31 97.3719 25.825 98.7531C23.6531 99.3313 22.3281 100.9 21.4812 102.859H21.4781Z" stroke="black" stroke-width="4" stroke-linecap="round" stroke-linejoin="round"/>
<path id="Vector_23" d="M81.4688 96.6313C87.3562 96.3594 93.25 96.2062 99.1469 96.1719C101.981 96.1562 106.587 95.1906 108.937 97.25C110.722 98.8125 110.809 101.7 111.466 103.816C112.353 106.681 113.341 109.591 116.353 110.897C119.197 112.128 125.766 113.153 128.225 110.991C130.684 108.828 130.897 104.937 131.175 101.991C131.428 99.3 131.169 96.9063 134.122 95.7844C137.634 94.45 142.35 94.6 146.041 94.7219C148.1 94.7906 150.478 94.6531 152.481 95.1812C156.653 96.2844 157.684 101.181 158.044 104.888C158.325 107.809 159.497 115.544 157.003 117.578C155.362 118.919 153.066 118.228 151.153 118.269C146.591 118.366 141.731 119.206 139.366 123.606C136.472 128.987 139.234 134.591 144.847 136.3C148.091 137.287 151.703 136.413 155.022 137.241C158.487 138.106 159.847 141.456 160.012 144.728C160.15 147.456 159.844 150.422 159.344 153.119C158.881 155.609 157.803 157.753 155.281 158.462C152.166 159.337 148.75 159.534 145.562 159.987C143.3 160.309 139.831 160.309 138.091 158.559C135.984 156.441 135.709 152.491 134.503 149.819C132.2 144.719 128.706 143.112 123.166 144.55C118.316 145.806 117.331 150.288 115.591 154.184C114.903 155.722 112.956 157.541 111.281 158.059C109.606 158.578 107.587 158.037 105.887 158.025C103.887 158.009 101.894 158.194 99.8937 158.278C95.5531 158.466 91.1656 158.447 86.9 157.519" stroke="black" stroke-width="4" stroke-linecap="round" stroke-linejoin="round"/>
<path id="Vector_24" d="M154.716 158.544C160.556 158.544 166.366 159.237 172.206 159.55C174.019 159.647 175.847 159.772 177.659 159.65C180.509 159.456 182.644 159.891 184.956 157.806C186.325 156.575 186.447 155.144 186.75 153.462C187.35 150.131 189.369 145.844 192.856 144.809C196.884 143.619 201.431 144.366 203.703 148.041C205.722 151.306 205.428 155.291 207.725 158.437C208.587 159.619 209.362 160.434 210.753 160.737C214.716 161.603 218.444 160.959 221.478 158.109C225.037 154.766 224.128 148.516 224.15 144.137C224.188 136.144 224.225 128.15 224.263 120.156C224.284 115.441 224.581 110.734 224.641 106.022C224.681 102.672 225.547 96.9281 223.762 93.9688C222.253 91.4656 219.291 90.4281 216.509 90.2375C213.353 90.0188 210.394 91.8156 207.372 91.5687C203.95 91.2844 205.309 87.9938 205.269 85.6875C205.166 79.6719 200.947 73.0406 195.103 71.0281C189.847 69.2187 184.516 71.7812 183.856 77.5094C183.569 79.9875 183.972 82.4844 184.538 84.8937C185.078 87.2 186.428 89.725 186.109 92.1531C185.791 94.5656 183.369 94.7 181.372 94.7531C172.219 95.0062 162.616 92.5281 153.766 95.8125" stroke="black" stroke-width="4" stroke-linecap="round" stroke-linejoin="round"/>
</g>
<g id="Group_7">
<path id="Vector_25" d="M56.4437 133.981C57.678 133.897 58.8843 134.341 60.1093 134.503C61.3343 134.666 62.7718 134.441 63.4562 133.409C64.1812 132.313 63.6843 130.741 62.6874 129.888C61.6905 129.034 60.3374 128.738 59.0343 128.563C57.3062 128.328 55.5374 128.253 53.8312 128.613C52.1249 128.972 50.4812 129.8 49.3655 131.141C48.4343 132.256 47.9062 133.756 48.1593 135.188C48.4124 136.619 49.5343 137.916 50.9624 138.172C52.153 138.384 53.8562 137.688 54.0405 136.369C54.1343 135.688 53.9687 135.331 54.5468 134.778C55.0468 134.303 55.7624 134.028 56.4437 133.984V133.981Z" fill="black"/>
<path id="Vector_26" d="M39.9468 131.772C39.3624 131.169 38.9156 130.391 38.8781 129.55C38.8406 128.709 39.2812 127.825 40.0499 127.491C40.5781 127.262 41.1999 127.312 41.7312 127.531C42.2624 127.75 42.7187 128.125 43.1187 128.537C43.9874 129.431 44.6437 130.528 45.0187 131.719C45.9906 134.797 40.9374 132.791 39.9437 131.772H39.9468Z" fill="black"/>
<path id="Vector_27" d="M46.1156 125.975C46.8344 126.828 48.3562 128.353 49.5375 127.431C51.0594 126.244 50.2469 123.953 49.5625 122.531C48.8844 121.119 47.7969 119.609 46.325 118.953C44.7156 118.234 42.2062 119.081 43.1156 121.212C43.7937 122.806 44.6875 124.316 45.8219 125.628C45.9156 125.734 46.0125 125.853 46.1156 125.975Z" fill="black"/>
<path id="Vector_28" d="M53.2188 120.141C53.4031 118.509 53.9906 116.844 55.725 116.778C58.6 116.669 59.0594 119.862 58.7063 122.066C58.5219 123.212 58.2656 124.622 57.3125 125.391C56.4844 126.056 54.9531 126.288 54.0625 125.588C53.15 124.869 53.1781 123.278 53.1531 122.228C53.1375 121.65 53.1375 120.9 53.2219 120.141H53.2188Z" fill="black"/>
<path id="Vector_29" d="M62.3218 122.791C62.5937 121.813 63.2156 120.878 64.15 120.478C65.0843 120.081 66.3375 120.381 66.8 121.284C67.225 122.109 66.9093 123.119 66.4937 123.95C66.0937 124.756 65.5687 125.547 64.7812 125.984C64.1093 126.359 62.7968 126.466 62.2562 125.766C61.7625 125.125 62.1218 123.5 62.3187 122.791H62.3218Z" fill="black"/>
</g>
<g id="Group_8">
<path id="Vector_30" d="M187.022 121.572C186.194 124.056 186.603 127.494 186.591 129.522C186.575 131.822 188.331 131.841 190.197 131.947C191.919 132.044 193.644 132.137 195.366 132.228C196.981 132.316 198.644 132.547 200.234 132.137C201.272 131.872 201.669 131.122 201.794 130.125C201.988 128.591 202.041 127.037 201.956 125.494C201.819 122.981 201.619 119.731 198.656 118.994C197.091 118.606 195.478 118.428 193.869 118.387C192.394 118.35 190.834 118.328 189.431 118.847C188.172 119.312 187.441 120.322 187.022 121.572Z" fill="black"/>
<path id="Vector_31" d="M188.797 110.697C188.419 112.497 189.359 114.491 190.988 115.344C192.081 115.919 193.234 115.978 194.431 116.091C195.606 116.203 196.931 116.097 197.95 115.428C199.15 114.641 199.647 113.062 199.363 111.691C198.778 108.866 195.456 107.012 192.728 107.253C191.194 107.387 189.731 108.444 189.081 109.831C188.953 110.106 188.856 110.397 188.794 110.694L188.797 110.697Z" fill="black"/>
</g>
<path id="Vector_32" d="M133.259 114.213C132.763 114.541 132.353 115.175 132.125 115.581C131.534 116.631 131.459 117.85 131.072 118.972C130.041 121.953 127.25 123.844 124.303 124.631C123.666 124.8 122.975 124.775 122.319 124.875C120.669 125.125 118.884 125.584 117.606 126.691C116.044 128.044 114.959 129.888 114.331 131.841C114.306 131.916 114.284 131.991 114.263 132.066C114.169 132.375 114.078 132.691 114.016 133.009C113.95 133.297 113.869 133.584 113.728 133.844C113.575 134.131 113.359 134.288 113.122 134.491C112.925 134.663 112.738 134.844 112.559 135.038C111.8 135.859 111.253 136.856 110.825 137.884C110.428 138.841 110.081 139.841 109.894 140.863C109.881 140.928 109.872 140.997 109.859 141.063C109.8 141.444 110.306 141.459 110.594 141.388C110.944 141.3 111.075 141.088 111.216 140.756C111.581 139.891 111.875 139.013 112.244 138.131C112.963 136.419 114.284 135.213 115.788 134.188C117.103 133.288 118.363 132.794 119.944 132.65C121.641 132.494 123.331 132.372 124.934 131.725C127.519 130.678 129.813 128.953 131.609 126.831C133.238 124.913 134.638 122.638 135.169 120.128C135.353 119.253 135.459 118.316 135.369 117.422C135.278 116.528 135.259 115.5 134.856 114.713C134.706 114.422 134.478 114.15 134.169 114.044C133.85 113.934 133.541 114.022 133.259 114.206V114.213Z" fill="black"/>
</g>
</g>
</g>
</svg>
