<?xml version="1.0" encoding="UTF-8"?>
<svg id="Icones" xmlns="http://www.w3.org/2000/svg" viewBox="0 0 100 100">
  <g>
    <g id="facebook">
      <g>
        <path d="M57.13,32.05s4.62-4.72,4.67-4.67,7.35,2.62,7.4,2.67c.02.02,2.26-2.29,2.28-2.28.06.06.13,9.7.23,9.8.02.02,2.03-2.06,2.04-2.04" style="fill: none; stroke: #ebc246; stroke-linecap: round; stroke-linejoin: round; stroke-width: 4px;"/>
        <path d="M65.67,41.53s1.12-1.15,1.14-1.14" style="fill: none; stroke: #ebc246; stroke-linecap: round; stroke-linejoin: round; stroke-width: 4px;"/>
        <path d="M56.76,47.48c.06.06,7.94-8.04,7.99-7.99.08.08-9.11,18.6-8.94,18.77.02.02,4.32-4.36,4.34-4.34.05.05-.49,10.32-.43,10.38.02.02,2.53-2.58,2.55-2.55.03.03,3.96,5.78,3.98,5.8.02.02,3.76-3.8,3.78-3.78" style="fill: none; stroke: #ebc246; stroke-linecap: round; stroke-linejoin: round; stroke-width: 4px;"/>
        <path d="M56.21,74.92s.65-.69.67-.67c.05.05,7.08,2.49,7.15,2.56.06.06,3.21-3.33,3.27-3.27" style="fill: none; stroke: #ebc246; stroke-linecap: round; stroke-linejoin: round; stroke-width: 4px;"/>
        <path d="M53.72,74.44s2.14-2.21,2.18-2.18c.11.11-2.72,12.61-2.59,12.74.01.01.13-.16.14-.14" style="fill: none; stroke: #ebc246; stroke-linecap: round; stroke-linejoin: round; stroke-width: 4px;"/>
        <path d="M32.96,63.6s1.91-1.98,1.94-1.94c.05.05-1.85,11.79-1.8,11.84.01.01,1.61-1.65,1.63-1.63.08.08,7.7,2.08,7.73,2.11.01.01.65-.71.68-.68.07.07-.63,10.54-.57,10.59.02.02,3.38-3.42,3.4-3.4.11.11-1.32,10.83-1.22,10.93.02.02,2.32-2.35,2.34-2.34" style="fill: none; stroke: #ebc246; stroke-linecap: round; stroke-linejoin: round; stroke-width: 4px;"/>
        <path d="M37.98,61.61s1.1-1.15,1.12-1.12" style="fill: none; stroke: #ebc246; stroke-linecap: round; stroke-linejoin: round; stroke-width: 4px;"/>
        <path d="M48.03,38.11c.06.06,8.14-8.24,8.19-8.19.23.23-12.59,22.09-12.44,22.24.03.03,3.68-3.73,3.7-3.7" style="fill: none; stroke: #ebc246; stroke-linecap: round; stroke-linejoin: round; stroke-width: 4px;"/>
      </g>
    </g>
    <path d="M16.68,26.22c.08.08,7.5-7.65,7.58-7.58.08.08-9.01,18.92-8.89,19.04.19.19,17.52-17.86,17.69-17.69.28.28-18.22,27.77-17.92,28.07.4.4,29.09-29.82,29.46-29.46.43.43-29.11,38.49-28.85,38.75.39.39,38.39-39.11,38.75-38.75.54.54-36.58,45.96-36.21,46.34.57.57,44.03-44.76,44.4-44.4.57.57-45.74,54.52-45.06,55.2.46.46,54.07-55.67,54.87-54.87.38.38-50.92,60.01-50.57,60.36.77.77,59.5-60.78,60.14-60.14.83.83-54.57,63.15-53.99,63.74.45.45,57.31-58.71,58.01-58.01.82.82-52.18,61.25-51.78,61.65.72.72,53.62-54.89,54.26-54.26.28.28-46.2,55.16-45.68,55.68.57.57,47.71-48.55,48.13-48.13.55.55-39.9,49-39.48,49.42s37.94-38.82,38.38-38.38c.35.35-27.04,35.9-26.59,36.35.37.37,25.94-26.44,26.19-26.19.15.15-17.4,26.57-17.11,26.86.11.11,17.17-17.38,17.28-17.28" style="fill: none; stroke: #ebc246; stroke-linecap: round; stroke-linejoin: round; stroke-width: 4px;"/>
  </g>
  <g>
    <g id="facebook-2" data-name="facebook">
      <path d="M47.32,85.87h-1.12c-3.59-.05-7.12-.58-10.48-1.59l-.75-.23-.04-.78c-.06-1.29.23-2.62.52-3.91.11-.51.22-1,.3-1.45l1.08-6.34c.09-.53.31-1.78.08-2.24-.22-.13-1.09-.03-1.51.02-.35.04-.67.07-.97.07-1.82-.01-3.36-.07-4.9-.32-.14-.02-.28-.04-.42-.05-.58-.06-1.29-.13-1.93-.59-.99-.7-1.07-1.91-1.12-2.7,0-.13-.02-.26-.03-.38-.12-1.19-.17-2.5-.16-4v-.27c0-1.27,0-2.59.43-3.94.59-1.83,2.22-1.61,3.01-1.5.1.01.2.03.31.04l2.36.26c.77,0,1.53.12,2.27.23.36.05.72.11,1.07.14,1.06.12,2,.22,2.87.3,0-.11-.01-.23-.02-.36-.02-1-.06-1.99-.09-2.99-.15-4.42-.31-8.98.59-13.44,1.02-5.06,3.49-9.62,6.97-12.84,4.06-3.75,9.59-5.46,15.58-4.81.07,0,.15.01.22.03,2.13.24,3.64,1.55,4.62,4,.94,2.34,1.45,5.29,1.39,8.11v.08c-.01.5-.04,1.68-1.11,2.17-.54.25-1.06.21-1.44.18-.58-.05-1.16-.12-1.72-.2-1.36-.18-2.65-.35-3.81-.11-1.57.33-3.06,1.12-4.19,2.24-2.25,2.22-2.9,5.67-3.06,8.17-.12,2.03-.18,4.12-.23,6.13v.37c-.03,1.09-.06,2.19-.09,3.28,0,.16-.03.33-.05.5-.01.09-.03.22-.04.33.19.05.52.06.71.07.15,0,.3.02.43.03.97.09,1.95.24,2.9.43,1.47.29,2.94.71,4.37,1.24.87.32,1.59.65,2.1,1.76.76,1.66.2,3.53-.25,5.04-.07.25-.14.49-.21.71-.26.95-.58,1.88-.96,2.77-.05.11-.09.22-.13.33-.3.78-.93,2.4-2.63,2.3-.61-.04-1.21-.19-1.74-.33l-.32-.08c-.95-.24-1.89-.5-2.83-.77-.81-.23-1.62-.45-2.43-.66-.71-.18-1.6-.41-2.44-.54-.25-.04-.32.03-.36.06-.69.62-.55,3.41-.49,4.75.03.6.05,1.12.04,1.52,0,1.33-.07,2.72-.15,4.06-.03.64-.07,1.28-.1,1.92-.01.29,0,.71.03,1.16.02.46.04.97.04,1.49v1.12ZM37.16,82.39c2.56.7,5.21,1.11,7.92,1.22,0-.08,0-.17-.01-.25-.02-.5-.04-.97-.03-1.35.03-.65.06-1.3.1-1.95.07-1.31.15-2.67.15-3.98.01-.35-.01-.83-.04-1.38-.11-2.31-.25-5.18,1.21-6.5.4-.37,1.11-.77,2.17-.61.95.14,1.91.39,2.67.58.83.21,1.65.44,2.47.67.92.26,1.84.52,2.77.75l.33.08c.47.12.92.24,1.33.26.11-.08.32-.63.42-.89.05-.14.11-.27.16-.4.34-.79.63-1.63.86-2.48.07-.24.14-.5.22-.76.36-1.21.77-2.58.36-3.48-.14-.31-.19-.36-.84-.6-1.33-.49-2.68-.88-4.04-1.15-.88-.18-1.78-.31-2.68-.4-.1-.01-.22-.02-.33-.02-.73-.04-1.84-.09-2.47-1.01-.45-.65-.35-1.4-.28-1.9.01-.1.03-.2.03-.28.03-1.08.06-2.17.08-3.26v-.38c.06-2.03.11-4.14.24-6.21.18-2.88.97-6.89,3.71-9.61,1.43-1.41,3.31-2.42,5.3-2.83,1.53-.32,3.07-.11,4.56.08.56.07,1.09.15,1.6.19.04,0,.1,0,.16.01,0-.07,0-.14,0-.2v-.08c.05-2.49-.42-5.2-1.23-7.24-.67-1.67-1.55-2.48-2.83-2.62l-.15-.02c-5.38-.58-10.29.92-13.87,4.23-3.14,2.9-5.38,7.04-6.31,11.65-.85,4.2-.69,8.63-.54,12.92.04,1.01.07,2.01.09,3.02,0,.19.02.35.03.5.04.53.1,1.18-.42,1.7-.49.48-1.14.5-1.72.44-.96-.08-2.01-.19-3.2-.33-.37-.04-.76-.1-1.15-.15-.71-.11-1.38-.2-2.01-.2h-.12s-2.42-.27-2.42-.27c-.13-.01-.24-.03-.36-.05-.18-.02-.45-.05-.59-.06,0,.01,0,.03-.02.04-.33,1.01-.33,2.1-.32,3.25v.28c0,1.41.04,2.68.15,3.78.01.14.02.3.03.47.02.28.06.94.19,1.03.16.11.53.15.87.19.19.02.37.04.54.07,1.41.23,2.85.28,4.57.29.15,0,.43-.03.71-.06,1.06-.12,2.37-.27,3.24.53.21.2.38.42.5.67.56,1.13.29,2.63.11,3.62l-1.08,6.33c-.09.51-.21,1.04-.32,1.56-.19.86-.39,1.74-.45,2.54Z" style="stroke-width: 0px;"/>
    </g>
    <path d="M10.98,64.35c.36,3.88.8,7.98,3.12,11.1,2.78,3.73,7.6,5.2,12.12,6.24,14.58,3.36,29.74,4.68,44.56,2.59,3.84-.54,8.02-1.53,10.33-4.67,1.84-2.5,2.06-5.81,2.22-8.91.57-11.29,1.13-22.62.08-33.88-.72-7.78-2.88-16.48-9.64-20.32-4.01-2.28-8.85-2.34-13.46-2.34-12.27,0-24.53-.02-36.8-.03-2.46,0-4.96,0-7.31.72-8.81,2.69-7.08,13.88-7.03,21.17.06,9.47.94,18.91,1.81,28.33Z" style="fill: none; stroke: #000; stroke-miterlimit: 10; stroke-width: 2px;"/>
  </g>
</svg>