<?xml version="1.0" encoding="UTF-8"?>
<svg id="Icones" xmlns="http://www.w3.org/2000/svg" viewBox="0 0 100 100">
  <g>
    <g>
      <path d="M42.21,17.34s1.2-1.23,1.22-1.22c.06.06,9.88-.25,9.93-.21.01.01,1.31-1.34,1.33-1.33.08.08,7.24,2.74,7.28,2.79.01.01,2.36-2.39,2.37-2.37.06.06,3.76,6.27,3.79,6.3.01.01,1.39-1.42,1.4-1.4.06.06,1.52,8.18,1.59,8.25.02.02,2.89-2.91,2.9-2.9.09.09-.61,10.11-.51,10.21.03.03,1.16-1.21,1.18-1.18.19.19-8.68,18.36-8.48,18.56.03.03,7.78-7.84,7.81-7.81.25.25-15.78,24.97-15.49,25.26.01.01,1.66-1.71,1.69-1.69.1.1-1.55,11.39-1.47,11.47.02.02,1.57-1.59,1.58-1.58" style="fill: none; stroke: #ebc246; stroke-linecap: round; stroke-linejoin: round; stroke-width: 4px;"/>
      <path d="M31.56,25.25c.09.09,9.02-9.14,9.08-9.08.15.15-7.21,17.17-7.1,17.27.01.01.28-.32.3-.3.07.07,2.68,7.24,2.73,7.3.01.01,2.53-2.55,2.54-2.54" style="fill: none; stroke: #ebc246; stroke-linecap: round; stroke-linejoin: round; stroke-width: 4px;"/>
    </g>
    <g>
      <path d="M62.73,91.58s.92-.95.93-.93" style="fill: none; stroke: #ebc246; stroke-linecap: round; stroke-linejoin: round; stroke-width: 4px;"/>
      <path d="M60.02,91.57s2.84-2.93,2.89-2.89" style="fill: none; stroke: #ebc246; stroke-linecap: round; stroke-linejoin: round; stroke-width: 4px;"/>
    </g>
  </g>
  <g>
    <path d="M32.42,34.66c-4.57-1.2-7.55-6.21-7.15-10.92s3.68-8.87,7.82-11.14,9.04-2.85,13.76-2.52c8.12.57,16.75,4.44,19.84,11.97,1.78,4.32,1.05,9.56-.14,14-1.01,3.75-2.66,7.33-4.88,10.51-2.34,3.34-4.53,6.82-6.37,10.5-2.85,5.7-4.54,12.45-2.38,18.44" style="fill: none; stroke: #000; stroke-linecap: round; stroke-linejoin: round; stroke-width: 2px;"/>
    <path d="M53.35,86.81c-.16,1.11.49,2.26,1.47,2.8,2.13,1.17,5.16-.48,4-3.08-.98-2.2-5.07-2.47-5.47.27Z" style="fill: none; stroke: #000; stroke-miterlimit: 10; stroke-width: 2px;"/>
  </g>
</svg>