<?xml version="1.0" encoding="UTF-8"?>
<svg id="Icones" xmlns="http://www.w3.org/2000/svg" viewBox="0 0 100 100">
  <g>
    <path d="M30.76,18.38c.07.07,2.57-2.67,2.62-2.62.1.1-5.17,14.8-5.09,14.88.16.16,18.09-18.5,18.3-18.3.17.17-23.74,33.17-23.4,33.51.24.24,32.11-32.81,32.46-32.46.47.47-34.16,43.47-33.85,43.77.48.48,42.95-43.41,43.18-43.18.65.65-42.7,51.34-42.15,51.89.35.35,50.76-51.46,51.11-51.11.77.77-53.28,61.55-52.51,62.32.68.68,60.46-61.87,61.17-61.17.57.57-62.19,71.01-61.53,71.67.44.44,64.16-66.01,65.08-65.08.83.83-60.83,69.93-60.49,70.27.67.67,61.75-62.49,62.12-62.12.61.61-55.48,64.19-54.81,64.86.58.58,52.69-54.08,53.38-53.38.37.37-44.53,53.01-43.9,53.64s44.74-45.63,45.18-45.18c.36.36-37.27,46.48-37.04,46.71.27.27,34.69-35.36,35.03-35.03.4.4-25.28,35.02-25.07,35.23.23.23,22.7-22.94,22.82-22.82s-11.01,20.83-10.88,20.95c.05.05,6.21-6.29,6.25-6.25" style="fill: none; stroke: #ebc246; stroke-linecap: round; stroke-linejoin: round; stroke-width: 4px;"/>
    <path d="M38.59,58.67s.03-.03.03-.03c.06.06,8.15,1.67,8.21,1.73,0,0,1.97-1.97,1.97-1.97.06.06,8.45,1.26,8.51,1.33,0,0,1.16-1.17,1.16-1.16.05.05,7.43,2.66,7.46,2.69,0,0,.06-.06.06-.06" style="fill: none; stroke: #ebc246; stroke-linecap: round; stroke-linejoin: round; stroke-width: 4px;"/>
  </g>
  <g>
    <path d="M13.3,78.54c-.12,2.56-.13,5.36,1.47,7.35,1.67,2.08,4.57,2.62,7.21,2.99,11.85,1.63,23.8,2.51,35.76,2.64,3.4.04,7-.04,9.89-1.83,3.42-2.11,5.1-6.11,6.33-9.93,5.73-17.85,5.96-36.94,5.72-55.68-.04-3.36-.19-6.98-2.25-9.63-2.72-3.48-7.68-4.02-12.09-4.28-8.34-.49-16.68-.99-25.03-1.48-4.73-.28-10.23-.6-14.58,1.65-4.06,2.1-3.92,7.98-4.85,12.09-2.65,11.72-4.64,23.59-5.97,35.53-.76,6.84-1.3,13.7-1.62,20.58Z" style="fill: none; stroke: #000; stroke-miterlimit: 10; stroke-width: 2px;"/>
    <path d="M30.42,20.68l36.72,2.58" style="fill: none; stroke: #000; stroke-linecap: round; stroke-linejoin: round; stroke-width: 2px;"/>
    <path d="M29.33,37.91c6.12.38,12.24.76,18.37,1.14" style="fill: none; stroke: #000; stroke-linecap: round; stroke-linejoin: round; stroke-width: 2px;"/>
    <path d="M27.56,53.38c12.76.65,25.5,1.64,38.21,2.97" style="fill: none; stroke: #000; stroke-linecap: round; stroke-linejoin: round; stroke-width: 2px;"/>
    <path d="M26.33,72.66c5.72.45,11.43.89,17.15,1.34" style="fill: none; stroke: #000; stroke-linecap: round; stroke-linejoin: round; stroke-width: 2px;"/>
  </g>
</svg>