<?xml version="1.0" encoding="UTF-8"?>
<svg id="Icones" xmlns="http://www.w3.org/2000/svg" viewBox="0 0 100 100">
  <g>
    <path d="M24.94,77.06s.14-.14.14-.14c.07.07,9.69-.23,9.78-.14,0,0,.32-.33.32-.32" style="fill: none; stroke: #ebc246; stroke-linecap: round; stroke-linejoin: round; stroke-width: 4px;"/>
    <path d="M29.64,57.46s.12-.12.12-.12c.05.05,8.55,1.36,8.6,1.41,0,0,2.19-2.19,2.19-2.19" style="fill: none; stroke: #ebc246; stroke-linecap: round; stroke-linejoin: round; stroke-width: 4px;"/>
    <path d="M26.79,21.45c.07.07,4.1-4.17,4.14-4.14.16.16-7.25,16.81-7.1,16.97.1.1,16.46-16.74,16.6-16.6.32.32-20.07,29.07-19.76,29.39.23.23,27.6-28.13,27.86-27.86.48.48-30.8,39.76-30.38,40.18.5.5,40.11-40.59,40.35-40.35.29.29-45.12,54.26-44.83,54.55.61.61,52.45-53.69,53.07-53.07.33.33-55.46,64.35-54.99,64.82.57.57,59.07-60.29,59.68-59.68.72.72-54.95,63.33-54.29,63.99.75.75,55.19-56.46,55.83-55.83.4.4-47.73,57.01-47.33,57.4.31.31,46.69-47.98,47.33-47.33.44.44-39.12,48.4-38.88,48.64.47.47,36.15-37.18,36.67-36.67.34.34-26.34,35.57-25.93,35.97.33.33,23.55-23.99,23.77-23.77.18.18-14.96,24.74-14.82,24.88.15.15,11.28-11.55,11.42-11.42" style="fill: none; stroke: #ebc246; stroke-linecap: round; stroke-linejoin: round; stroke-width: 4px;"/>
    <g>
      <path d="M65.88,39.58c.19.19,14.81-15.14,14.98-14.98.57.57-34.01,42.94-33.51,43.44.43.43,42.54-43.83,43.18-43.18.4.4-41.96,50.33-41.31,50.97s43.41-44.35,43.88-43.88" style="fill: none; stroke: #ebc246; stroke-linecap: round; stroke-linejoin: round; stroke-width: 4px;"/>
      <path d="M50.86,63.08s.17-.17.17-.17c.05.05,5.34,4.18,5.4,4.24,0,0,.44-.45.44-.44" style="fill: none; stroke: #ebc246; stroke-linecap: round; stroke-linejoin: round; stroke-width: 4px;"/>
      <path d="M79.39,26.45s.26-.26.26-.26c.08.08,2.13,7.45,2.17,7.49.01.01,3.28-3.3,3.29-3.29.06.06,3.29,6.26,3.36,6.32,0,0,.43-.44.44-.44" style="fill: none; stroke: #ebc246; stroke-linecap: round; stroke-linejoin: round; stroke-width: 4px;"/>
    </g>
  </g>
  <g>
    <path d="M26.5,24.93c9.58.8,19.17,1.6,28.75,2.4" style="fill: none; stroke: #000; stroke-linecap: round; stroke-linejoin: round; stroke-width: 2px;"/>
    <path d="M23.69,39c7.35.67,14.71,1.33,22.06,2" style="fill: none; stroke: #000; stroke-linecap: round; stroke-linejoin: round; stroke-width: 2px;"/>
    <path d="M16.49,71.11c7.44-.08,14.89.38,22.26,1.38" style="fill: none; stroke: #000; stroke-linecap: round; stroke-linejoin: round; stroke-width: 2px;"/>
    <path d="M20.64,52.36c4.63-.19,9.27.11,13.83.89" style="fill: none; stroke: #000; stroke-linecap: round; stroke-linejoin: round; stroke-width: 2px;"/>
    <path d="M6.35,76.24c-.45,2.62-.76,5.65,1.04,7.61,1.43,1.56,3.74,1.87,5.84,2.08,9.51.93,19.04,1.61,28.59,2.04,3.46.15,7.18.21,10.05-1.73,2.91-1.96,4.26-5.5,5.34-8.84,5.31-16.44,8.29-33.63,8.8-50.89.09-3.08,0-6.45-1.98-8.8-2.16-2.56-5.84-3.09-9.17-3.4-6.61-.63-13.23-1.13-19.87-1.5-4.45-.25-12.52-2.63-14.73,2.11-2.59,5.57-3.51,12.74-4.99,18.7-1.66,6.65-3.2,13.34-4.62,20.04-1.59,7.5-3.03,15.04-4.32,22.6Z" style="fill: none; stroke: #000; stroke-linecap: round; stroke-linejoin: round; stroke-width: 2px;"/>
    <g>
      <path d="M38.34,69.31c-.14.95-.12,2.13.7,2.63.78.48,1.78.05,2.58-.4,16.06-8.91,28.04-22.97,39.93-36.69,1.83-2.11,3.69-4.28,4.72-6.88s1.08-5.76-.58-8.01c-2.18-2.97-6.66-3.39-10.05-1.97s-5.97,4.25-8.42,7c-6.58,7.36-13.2,14.78-18.59,23.08-4.19,6.45-9.18,13.52-10.28,21.23Z" style="fill: none; stroke: #000; stroke-linecap: round; stroke-linejoin: round; stroke-width: 2px;"/>
      <path d="M42.8,57.36c2.45.96,4.79,2.13,6.83,3.78,1.11.9,2.11,1.97,2.92,3.15" style="fill: none; stroke: #000; stroke-linecap: round; stroke-linejoin: round; stroke-width: 2px;"/>
      <path d="M71.88,20.31c1.33,3.41,3.46,6.51,6.2,8.95,1.57,1.4,3.35,2.58,5.24,3.5" style="fill: none; stroke: #000; stroke-linecap: round; stroke-linejoin: round; stroke-width: 2px;"/>
    </g>
  </g>
</svg>