<svg width="26" height="25" viewBox="0 0 26 25" fill="none" xmlns="http://www.w3.org/2000/svg">
<path d="M7.21248 13.9175C6.54998 15.9075 6.87748 18.6625 6.86498 20.2825C6.85248 22.125 8.25748 22.14 9.75248 22.2225C11.1325 22.3 12.5125 22.375 13.8925 22.4475C15.1875 22.5175 16.52 22.7025 17.7925 22.375C18.6225 22.1625 18.94 21.5625 19.0425 20.7625C19.1975 19.5325 19.24 18.29 19.175 17.055C19.065 15.0425 18.9025 12.44 16.53 11.85C15.2775 11.54 13.985 11.3975 12.695 11.365C11.515 11.335 10.265 11.3175 9.14248 11.7325C8.13498 12.105 7.54748 12.9125 7.21498 13.915L7.21248 13.9175Z" fill="black"/>
<path d="M8.63508 5.2075C8.33258 6.6475 9.08758 8.245 10.3901 8.93C11.2676 9.39 12.1901 9.4375 13.1501 9.53C14.0901 9.62 15.1526 9.535 15.9676 9C16.9276 8.37 17.3276 7.105 17.1001 6.0075C16.6326 3.745 13.9701 2.2625 11.7851 2.455C10.5551 2.5625 9.38508 3.4075 8.86508 4.52C8.76258 4.74 8.68508 4.9725 8.63508 5.21V5.2075Z" fill="black"/>
</svg>
