<svg width="26" height="25" viewBox="0 0 26 25" fill="none" xmlns="http://www.w3.org/2000/svg">
<g id="Heure 1">
<path id="Vector" d="M4.56119 7.53008C3.67119 9.78258 3.88369 12.3901 4.88869 14.5926C6.19369 17.4501 8.89119 19.6976 11.9937 20.1976C15.0962 20.6976 18.4887 19.3051 20.1312 16.6251C21.5587 14.3001 21.5687 11.2526 20.4462 8.76758C19.5762 6.84008 18.0637 5.21008 16.2062 4.20258C13.0762 2.50258 8.74619 2.43508 6.13869 5.10508C5.46119 5.80008 4.91869 6.62758 4.56119 7.53008Z" fill="black"/>
<path id="Vector_2" d="M13 7C12.7275 10.77 12.7101 9.8825 12.4351 13.7125C17 15.5 17 15.5 17 15.5" stroke="white" stroke-width="1.3" stroke-linecap="round" stroke-linejoin="round"/>
</g>
</svg>
