<svg width="100" height="101" viewBox="0 0 100 101" fill="none" xmlns="http://www.w3.org/2000/svg">
<path d="M21.3164 48.9793C21.3164 48.9793 26.7164 43.4993 26.7564 43.5393C26.8564 43.6393 19.0864 60.7093 19.2664 60.8893C19.4764 61.0993 44.6964 34.8193 45.0164 35.1393C45.2364 35.3593 15.8964 73.4693 16.3264 73.8993C16.7564 74.3293 53.6564 35.9093 53.9864 36.2393C54.3164 36.5693 19.6064 79.9293 19.9564 80.2693C20.6164 80.9293 62.6664 36.3793 63.2564 36.9693C63.7764 37.4893 26.5164 82.9392 26.9464 83.3792C27.1964 83.6292 71.3664 37.5893 72.0464 38.2793C72.3264 38.5593 34.5864 84.2193 35.1964 84.8293C35.5264 85.1593 79.7664 39.0893 80.3564 39.6693C80.8864 40.1993 41.9664 87.6793 42.1964 87.9093C42.8264 88.5393 87.2764 41.6893 87.8464 42.2593C88.1164 42.5293 50.9464 88.1293 51.3364 88.5193C51.6864 88.8693 93.5464 45.1393 94.1264 45.7293C94.3964 45.9993 60.4464 88.2493 60.9364 88.7393C61.2064 89.0093 97.0064 52.0093 97.3364 52.3393C97.5664 52.5693 69.3264 89.3992 69.6264 89.6992C69.8764 89.9492 97.1164 61.8493 97.2964 62.0293C97.6464 62.3793 76.0664 92.4593 76.3264 92.7093C76.5864 92.9593 94.6264 73.9193 94.8764 74.1593C95.0864 74.3693 86.2264 92.0393 86.4264 92.2393C86.4564 92.2693 92.2564 86.3093 92.3064 86.3593" stroke="#EBC246" stroke-width="4" stroke-linecap="round" stroke-linejoin="round"/>
<path d="M29.3264 35.1392C29.3264 35.1392 30.1064 34.3392 30.1164 34.3492C30.1664 34.3992 34.1664 39.8892 34.2364 39.9692C34.3064 40.0492 39.5064 34.6092 39.5564 34.6492" stroke="#EBC246" stroke-width="4" stroke-linecap="round" stroke-linejoin="round"/>
<path d="M28.1764 41.9893C28.1764 41.9893 30.5664 39.5093 30.6164 39.5493" stroke="#EBC246" stroke-width="4" stroke-linecap="round" stroke-linejoin="round"/>
<path d="M9.23639 36.4393C9.23639 36.4393 12.9764 32.6893 12.9764 32.6993C13.0364 32.7593 16.5164 38.7793 16.5464 38.8193C16.6564 38.9293 25.3164 29.7393 25.4764 29.8893C25.5464 29.9593 17.7664 47.2993 17.9464 47.4793C18.0464 47.5793 29.6264 35.6693 29.6964 35.7293" stroke="#EBC246" stroke-width="4" stroke-linecap="round" stroke-linejoin="round"/>
<path d="M70.5264 59.5792H71.0264V59.5477C73.5813 59.3272 75.5473 57.4494 76.5956 55.6957L76.5956 55.6957C77.6549 53.9232 78.1192 51.9404 77.872 50.1026L77.8718 50.1016C77.5196 47.5188 75.9756 45.5327 73.6856 44.869L73.6844 44.8686C71.3119 44.1876 68.6947 45.0955 66.9938 47.1173L66.9932 47.118C66.0565 48.2357 65.3041 49.7931 64.9373 51.4285C64.5709 53.0622 64.5782 54.8262 65.227 56.3366L65.227 56.3366L65.228 56.3388C65.5223 57.0146 66.0051 57.7802 66.8019 58.4001C67.6016 59.0222 68.6903 59.4762 70.1587 59.5678C70.2889 59.5792 70.4153 59.5792 70.5182 59.5792H70.5264ZM72.0764 47.2992H72.3455C72.5509 47.3149 72.75 47.3497 72.9414 47.4077L72.9414 47.4077L72.9464 47.4092C74.1555 47.7619 75.021 48.8256 75.2409 50.4558C75.4033 51.6652 75.0895 53.0519 74.3182 54.331L74.318 54.3315C73.9322 54.9729 73.3561 55.6538 72.6573 56.1556C71.9602 56.6561 71.1671 56.961 70.3278 56.9102C68.931 56.8192 68.0849 56.2506 67.6657 55.2816C67.2779 54.3745 67.2672 53.1704 67.5474 51.9553C67.8264 50.7453 68.3781 49.596 69.0288 48.8213C69.8644 47.8315 70.9996 47.2992 72.0764 47.2992Z" fill="black" stroke="black"/>
<path d="M65.1869 86.2212L65.2248 86.3248L65.3028 86.4028L65.3128 86.4128L65.5389 86.6389L65.839 86.5285L67.389 85.9585L67.8574 85.7863L67.686 85.3175C66.2899 81.5008 64.6831 77.745 62.9258 74.1402L62.9257 74.1398C61.6701 71.569 60.0281 68.5455 57.0387 67.0614C53.1951 65.1505 48.6532 66.694 45.8697 68.9723L45.8688 68.973C44.4724 70.1213 43.1906 71.5914 41.9497 73.4629L41.6727 73.8807L42.0911 74.1567L43.4711 75.0667L43.8876 75.3413L44.1632 74.9255C45.2835 73.2352 46.3613 71.9969 47.5522 71.0269L47.5526 71.0265C49.7679 69.2176 53.1744 68.1016 55.8638 69.437C58.0409 70.521 59.3881 72.9402 60.5369 75.2982L60.5374 75.2993C62.2594 78.8129 63.8226 82.4968 65.1869 86.2212Z" fill="black" stroke="black"/>
<path d="M44.0653 84.6752L43.0729 83.6828L43.0629 83.6727L42.3197 82.9295L42.8767 82.8722C42.5754 79.9947 42.1943 77.1495 41.7334 74.4122L41.733 74.4099C41.1251 70.6931 40.3579 66.9465 39.4413 63.2702L39.4411 63.2695C38.8892 61.0421 38.1817 59.36 37.3458 58.2003C36.5156 57.0486 35.5761 56.433 34.5402 56.2734L34.5393 56.2732C33.3193 56.0829 32.1207 56.5652 30.9561 57.4488C29.7924 58.3317 28.7249 59.5691 27.7906 60.7667L15.1507 76.9767L14.8435 77.3707L14.4492 77.0637L13.1392 76.0437L12.7444 75.7363L13.0521 75.3417L25.6921 59.1317L26.0864 59.4392L25.6921 59.1317C26.779 57.7379 28.0897 56.2212 29.6149 55.1267C31.146 54.028 32.9318 53.3284 34.9433 53.6451C38.3799 54.1743 40.7004 57.3435 42.0116 62.6186C42.9447 66.3609 43.7375 70.1841 44.3498 73.9681C44.3499 73.9685 44.3499 73.9689 44.35 73.9693L43.8564 74.0492C44.3464 76.9892 44.7564 80.0492 45.0664 83.1492L44.0653 84.6752ZM44.0653 84.6752L43.9731 83.7645L44.0653 84.6752Z" fill="black" stroke="black"/>
<path d="M72.5077 87.5284L72.5064 87.5283C55.0497 86.4767 37.5333 84.0029 20.4574 80.1872C17.5479 79.5395 14.6176 78.7567 12.5592 76.5285L12.5585 76.5278C10.9598 74.7905 10.3014 72.6509 10.1218 70.4358C9.94289 68.2282 10.237 65.9098 10.5725 63.7813L10.5727 63.7804H10.5727L11.8627 55.7004L11.8627 55.7002C12.7326 50.2607 13.5926 44.8212 14.4526 39.3811C14.5392 38.8326 14.5879 38.2608 14.6381 37.639L14.6382 37.6373L14.6417 37.5951C14.8083 35.6148 15.0169 33.1353 16.9644 31.4054L16.9648 31.405C18.2827 30.2371 19.9272 29.6 21.6372 29.2447C23.3456 28.8896 25.1524 28.8094 26.8169 28.7793C43.3672 28.4485 59.9373 30.1326 76.0764 33.7714L76.0765 33.7715C80.1808 34.6979 84.9902 36.0139 87.8538 39.7657C91.0631 43.9681 90.6799 49.5841 90.073 54.7574L90.073 54.7575L87.6931 75.0169C87.2652 78.6989 86.6486 82.405 83.9461 84.9062L83.946 84.9062C81.5355 87.1362 78.287 87.6182 75.2164 87.6192L72.5077 87.5284ZM72.5077 87.5284C73.3784 87.5784 74.2859 87.6189 75.2064 87.6192L72.5077 87.5284ZM14.1464 75.0592C15.7564 76.8092 18.2764 77.4892 20.9264 78.0792L14.5146 74.7208M14.1464 75.0592L14.5146 74.7208M14.1464 75.0592C11.6591 72.353 12.0919 68.0234 12.6972 64.1681L14.1464 75.0592ZM14.5146 74.7208C16.0031 76.3386 18.3641 76.9965 21.0351 77.5911L21.0354 77.5912C37.9795 81.3754 55.3431 83.8217 72.6666 84.8701C74.4032 84.9749 76.2064 85.0314 77.873 84.7882C79.5369 84.5453 81.0224 84.0092 82.1569 82.9622C84.1408 81.1266 84.6661 78.1328 85.0699 74.7204L87.4498 54.4611C87.7346 52.0282 87.9538 49.5931 87.7755 47.3373C87.5975 45.0853 87.0257 43.0501 85.7592 41.3928C83.4745 38.4068 79.3692 37.242 75.5072 36.3771L75.5062 36.3769C59.5757 32.7758 43.2161 31.1199 26.8865 31.4491L26.8863 31.4491C25.3744 31.479 23.804 31.5488 22.3657 31.8287C20.9255 32.109 19.6642 32.5917 18.7383 33.4132L18.7377 33.4137C17.6153 34.4066 17.4593 35.947 17.2947 37.8804C17.2445 38.503 17.1833 39.1581 17.0803 39.8073C17.0803 39.8074 17.0803 39.8075 17.0803 39.8076L17.0801 39.8083C16.2202 45.2479 15.3602 50.6879 14.4902 56.128C14.4902 56.1281 14.4902 56.1281 14.4902 56.1282L13.2002 64.208L13.1971 64.2078C12.8939 66.1342 12.6397 68.1361 12.7591 69.9832C12.8788 71.8334 13.3702 73.4758 14.5146 74.7208Z" fill="black" stroke="black"/>
<path d="M13.2321 28.8849L13.2317 28.8852C11.6539 30.1017 9.80152 30.8104 7.70789 31.022C8.52879 31.7536 9.41613 32.5976 10.2374 33.4861C11.3775 34.7197 12.4221 36.0728 12.9663 37.3531L13.2321 28.8849ZM13.2321 28.8849C14.8678 27.6209 16.1748 25.8751 17.1702 23.6308M13.2321 28.8849L17.1702 23.6308M17.1702 23.6308C17.7509 27.8314 19.0153 31.9691 21.6481 34.9633C20.3281 35.111 19.0953 35.5151 17.9706 36.1896C16.301 37.1766 14.9034 38.7075 13.7385 40.7645C13.6155 39.5185 13.3798 38.3228 12.9666 37.3537L17.1702 23.6308ZM12.1064 50.6192H12.3135L12.3433 50.5894C12.8612 50.4981 13.2884 50.1002 13.413 49.5745L13.413 49.5745L13.4145 49.5677C14.7282 43.6559 16.7695 39.9971 19.3427 38.4586C21.0545 37.437 23.1143 37.2472 25.6791 37.98L25.679 37.9801L25.6869 37.9822C26.3307 38.1549 27.0389 37.8299 27.2846 37.1748C27.5216 36.5428 27.2561 35.8204 26.6406 35.5123C24.0643 34.2144 22.1831 31.8999 20.9824 28.3647C19.7772 24.8164 19.267 20.0614 19.4362 13.9431L19.4363 13.9403C19.4524 13.2169 18.8907 12.6281 18.1904 12.5804L18.1904 12.5803L18.1791 12.5797C17.488 12.5483 16.8452 13.0617 16.7787 13.782C16.1319 20.3568 14.3504 24.6645 11.6216 26.7629L11.6209 26.7634C9.69971 28.2463 7.25157 28.7502 4.04717 28.2258L4.0444 28.2254C3.43413 28.129 2.84528 28.4659 2.60685 29.0223L2.60683 29.0223L2.60488 29.0269C2.36718 29.5974 2.54268 30.2429 3.0385 30.6108L3.0486 30.6183L3.05906 30.6252C3.05831 30.6247 3.06279 30.6281 3.07227 30.6352C3.14415 30.6892 3.50336 30.9588 4.0443 31.3932C4.64766 31.8776 5.46066 32.5539 6.31484 33.3315C7.16994 34.1099 8.06061 34.9845 8.82216 35.8658C9.58854 36.7527 10.2011 37.6202 10.5261 38.3845C10.8478 39.1443 11.0378 40.1795 11.1312 41.3386C11.2239 42.4902 11.2189 43.7291 11.1694 44.8764C11.0755 47.0537 10.8235 48.8675 10.7932 49.086C10.7921 49.0937 10.7913 49.0995 10.7908 49.1031C10.697 49.8065 11.153 50.4696 11.8637 50.6006C11.9301 50.6133 12.0003 50.6164 12.0302 50.6176C12.0509 50.6184 12.0692 50.6188 12.0823 50.619L12.0986 50.6192L12.1036 50.6192L12.1053 50.6192H12.106H12.1062H12.1063H12.1064Z" fill="black" stroke="black"/>
</svg>
