<?xml version="1.0" encoding="UTF-8"?>
<svg id="Icones" xmlns="http://www.w3.org/2000/svg" viewBox="0 0 100 100">
  <g>
    <g id="instagram">
      <g>
        <path d="M78.14,33s.86-.9.88-.88" style="fill: none; stroke: #ebc246; stroke-linecap: round; stroke-linejoin: round; stroke-width: 4px;"/>
        <path d="M72.65,35.35c.05.05,2.81-2.89,2.85-2.85.07.07,1.28,8.6,1.36,8.68.05.05,5.01-5.05,5.03-5.03" style="fill: none; stroke: #ebc246; stroke-linecap: round; stroke-linejoin: round; stroke-width: 4px;"/>
      </g>
    </g>
    <path d="M16.6,25.46s3.02-3.11,3.06-3.06c.14.14-4.11,13.99-4,14.1.09.09,14.96-15.12,15.04-15.04.2.2-15.31,24.97-15.16,25.12s24.78-25.31,25.04-25.04c.31.31-23.93,33.18-23.6,33.51S51.56,19.52,52.04,20c.55.55-33.97,43-33.4,43.57.51.51,43.46-43.93,43.7-43.7.72.72-44.44,53.55-43.91,54.08.34.34,53.65-54.92,54.29-54.29s-54.03,62.56-53.38,63.21c.9.9,62.27-63.39,62.83-62.83.48.48-58.68,67.13-57.96,67.85.6.6,62.33-63.69,63.01-63.01.46.46-53.51,61.68-52.78,62.41.35.35,53.65-54.22,53.94-53.94.27.27-47.02,55.72-46.54,56.2.55.55,48.85-49.6,49.23-49.23.6.6-40.48,49.09-39.94,49.63.58.58,38.76-39.26,39.01-39.01.22.22-29.16,38.63-28.89,38.9.24.24,30.46-30.99,30.73-30.73.19.19-20.28,29.58-20.02,29.84.22.22,19.14-19.62,19.38-19.38.11.11-8.67,18.38-8.56,18.49.03.03,5.75-5.89,5.82-5.82" style="fill: none; stroke: #ebc246; stroke-linecap: round; stroke-linejoin: round; stroke-width: 4px;"/>
    <path d="M37.61,45.71c.06.06,4.5-4.56,4.53-4.53.07.07-4.36,13.96-4.27,14.05.21.21,14.79-15,14.9-14.9.17.17-13.09,22.48-12.83,22.75s22.13-22.44,22.29-22.29c.17.17-16.45,25.81-16.18,26.08.28.28,20.51-20.8,20.65-20.65.12.12-13.22,22.53-13.05,22.7.11.11,14.92-15.19,15.05-15.05" style="fill: none; stroke: #ebc246; stroke-linecap: round; stroke-linejoin: round; stroke-width: 4px;"/>
  </g>
  <g>
    <g id="instagram-2" data-name="instagram">
      <path d="M70.34,35.76c-.55,0-1.1-.12-1.59-.39-.62-.33-1.16-.85-1.64-1.6-.8-1.25-1.15-2.67-.97-3.99h0c.23-1.7,1.4-3.5,3.12-3.5h0c1.63,0,3.4,1.51,4.14,2.58,1.05,1.52,1.17,3.52.3,4.99-.71,1.21-2.05,1.91-3.36,1.91ZM69.26,28.59c-.24,0-.74.73-.84,1.51h0c-.1.78.12,1.65.63,2.45.25.4.51.67.78.81.59.31,1.51,0,1.9-.66.41-.7.32-1.73-.21-2.51-.52-.75-1.7-1.58-2.25-1.58h0Z" style="stroke-width: 0px;"/>
    </g>
    <path d="M11.03,66.87c.26,4.72.74,9.95,4.23,13.15,2.67,2.45,6.48,3.1,10.07,3.54,14.87,1.81,29.92,1.76,44.86.7,3.53-.25,7.42-.73,9.76-3.39,1.81-2.06,2.23-4.96,2.57-7.68,2.02-16.19,3.66-33.05-1.59-48.5-1.03-3.02-2.45-6.13-5.11-7.88-2.76-1.82-6.29-1.85-9.59-1.81-16.31.19-32.62.38-48.93.57-11.73.14-8.44,11.51-7.99,19.71.57,10.53,1.15,21.06,1.72,31.59Z" style="fill: none; stroke: #000; stroke-miterlimit: 10; stroke-width: 2px;"/>
    <path d="M31.29,49.12c.28,3.1.86,6.32,2.78,8.77,1.74,2.22,4.41,3.55,7.15,4.2s5.59.66,8.41.68c3.43.02,7.27-.13,9.63-2.62,1.83-1.94,2.24-4.78,2.57-7.42.58-4.73.95-10.14-2.29-13.63-2.15-2.32-5.44-3.2-8.57-3.63-5.22-.71-12.25-1.02-17.22,1.1-4.3,1.83-2.8,8.8-2.45,12.56Z" style="fill: none; stroke: #000; stroke-miterlimit: 10; stroke-width: 2px;"/>
  </g>
</svg>