<svg width="83" height="13" viewBox="0 0 83 13" fill="none" xmlns="http://www.w3.org/2000/svg">
<g clip-path="url(#clip0_594_783)">
<path d="M0 6.5C0 3.18629 2.68629 0.5 6 0.5H23C24.1046 0.5 25 1.39543 25 2.5V10.5C25 11.6046 24.1046 12.5 23 12.5H6C2.68629 12.5 0 9.81371 0 6.5Z" fill="#F39957"/>
<rect x="29" y="0.5" width="25" height="12" rx="2" fill="#F39957"/>
<path d="M58 2.5C58 1.39543 58.8954 0.5 60 0.5H77C80.3137 0.5 83 3.18629 83 6.5C83 9.81371 80.3137 12.5 77 12.5H60C58.8954 12.5 58 11.6046 58 10.5V2.5Z" fill="#D2D2D2"/>
</g>
<defs>
<clipPath id="clip0_594_783">
<rect y="0.5" width="83" height="12" rx="6" fill="white"/>
</clipPath>
</defs>
</svg>
