<svg width="183" height="183" viewBox="0 0 183 183" fill="none" xmlns="http://www.w3.org/2000/svg">
<path d="M67.2235 114.158C67.3103 114.304 81.4744 105.46 81.572 105.624C81.6696 105.788 60.1563 129.913 60.384 130.296C60.6009 130.661 95.406 108.86 95.6626 109.312C95.8144 109.567 68.4891 137.076 68.7386 137.495C69.053 138.024 109.649 112.556 109.906 113.008C110.069 113.282 93.3679 134.73 93.4547 134.876C93.5739 135.076 115.644 121.431 115.752 121.613C115.861 121.795 106.677 139.241 106.774 139.405C106.861 139.551 126.758 127.21 126.884 127.444C127.011 127.677 111.661 148.679 111.726 148.788C111.791 148.898 127.195 139.44 127.26 139.549" stroke="#EBC246" stroke-width="8" stroke-linecap="round" stroke-linejoin="round"/>
<path d="M42.9796 78.005C43.0555 78.1326 47.9027 74.9533 47.9569 75.0445C48.0437 75.1903 42.8127 90.2355 42.8995 90.3814C42.9971 90.5455 55.659 82.5575 55.7712 82.7252C55.8362 82.8346 49.2652 98.2203 49.37 98.4172C49.4133 98.4901 61.9363 90.6835 62.0411 90.8803" stroke="#EBC246" stroke-width="8" stroke-linecap="round" stroke-linejoin="round"/>
<path d="M78.2952 54.0125C78.2952 54.0125 83.6741 50.6897 83.7283 50.7809C83.815 50.9268 72.431 69.1135 72.5612 69.3323C72.6913 69.5511 94.1629 56.3107 94.2388 56.4383C94.3364 56.6024 77.4321 77.9986 77.5802 78.2684C77.7646 78.5783 94.6385 67.9616 94.6999 68.0855C94.7867 68.2314 78.1495 90.1597 78.2688 90.3603C78.3447 90.4879 95.05 80.2307 95.115 80.3401" stroke="#EBC246" stroke-width="8" stroke-linecap="round" stroke-linejoin="round"/>
<path d="M117.387 73.7568C117.441 73.848 124.961 69.1036 125.026 69.213C125.124 69.3771 104.054 93.7078 104.22 93.9668C104.361 94.2038 134.661 75.5765 134.795 75.7807C134.936 76.0177 110.058 101.935 110.256 102.248C110.455 102.562 132.927 88.4304 133.064 88.682" stroke="#EBC246" stroke-width="8" stroke-linecap="round" stroke-linejoin="round"/>
<path d="M136.285 110.363C136.393 110.545 148.632 102.883 148.682 102.988C148.748 103.098 139.265 120.622 139.406 120.859C139.471 120.969 159.025 108.882 159.169 109.104" stroke="#EBC246" stroke-width="8" stroke-linecap="round" stroke-linejoin="round"/>
<path d="M87.1666 123.868C91.8431 126.295 95.2611 130.568 99.3777 133.858C103.494 137.148 109.208 139.513 113.975 137.257C119.041 134.861 120.697 128.038 118.953 122.72C117.209 117.402 112.917 113.34 108.565 109.82C102.787 105.148 96.5131 100.97 89.5046 98.5235C82.4962 96.0774 74.684 95.4545 67.6606 97.8796C61.8101 99.8909 56.5694 104.193 54.3281 109.969C52.0867 115.745 53.307 122.942 57.9663 127.02C61.8388 130.418 69.5904 131.645 73.1544 127.242C75.0003 124.971 75.1777 123.298 78.5057 122.565C81.3749 121.932 84.5851 122.516 87.1703 123.854L87.1666 123.868Z" stroke="black" stroke-width="4" stroke-linecap="round" stroke-linejoin="round"/>
<path d="M31.9254 79.4215C31.1238 75.9369 31.2149 72.1063 32.9259 68.966C34.6369 65.8256 38.1963 63.5727 41.7415 64.0556C44.1632 64.3923 46.3256 65.9322 47.7732 67.9095C49.2209 69.8869 50.0595 72.2512 50.6143 74.6363C51.8059 79.8142 51.7851 85.2566 50.5211 90.4142C47.2685 103.764 33.2744 85.3204 31.9109 79.4179L31.9254 79.4215Z" stroke="black" stroke-width="4" stroke-linecap="round" stroke-linejoin="round"/>
<path d="M67.1852 71.9129C67.9275 76.6052 70.1017 85.5305 76.4384 84.7725C84.6096 83.7997 86.6894 73.6648 87.3371 66.9732C87.9846 60.3435 87.3491 52.4283 83.4416 46.7925C79.1577 40.6278 68.1584 38.1737 66.7603 47.9401C65.7246 55.245 65.6378 62.7136 66.8687 69.9908C66.9647 70.5878 67.0678 71.2176 67.1743 71.8947L67.1852 71.9129Z" stroke="black" stroke-width="4" stroke-linecap="round" stroke-linejoin="round"/>
<path d="M105.952 66.3169C110.222 60.7779 116.047 56.0052 122.502 59.5952C133.219 65.5372 127.837 78.1916 121.693 85.4369C118.492 89.2046 114.451 93.7804 109.279 94.4627C104.794 95.0568 98.7065 92.5195 97.0066 88.0018C95.2599 83.3639 98.8835 77.6296 101.088 73.7636C102.312 71.6291 103.952 68.8886 105.937 66.3132L105.952 66.3169Z" stroke="black" stroke-width="4" stroke-linecap="round" stroke-linejoin="round"/>
<path d="M133.262 96.068C136.416 93.0932 140.739 91.0652 145.026 91.6746C149.313 92.284 153.205 96.1516 152.898 100.469C152.624 104.408 149.251 107.389 145.914 109.497C142.669 111.551 139.028 113.273 135.194 113.134C131.927 113.016 126.898 110.516 126.472 106.771C126.089 103.346 130.98 98.2276 133.262 96.068Z" stroke="black" stroke-width="4" stroke-linecap="round" stroke-linejoin="round"/>
</svg>
