<svg width="26" height="25" viewBox="0 0 26 25" fill="none" xmlns="http://www.w3.org/2000/svg">
<g id="patte 2">
<g id="Group">
<path id="Vector" d="M13.6991 18.0664C14.5541 18.2664 15.2816 18.8164 16.0816 19.1789C16.8816 19.5414 17.9016 19.6889 18.5791 19.1289C19.2991 18.5339 19.2866 17.3639 18.7866 16.5764C18.2866 15.7889 17.4266 15.3089 16.5791 14.9189C15.4541 14.4014 14.2691 13.9839 13.0366 13.8764C11.8041 13.7689 10.5166 13.9889 9.48161 14.6689C8.61911 15.2339 7.94911 16.1439 7.82411 17.1689C7.69911 18.1939 8.19161 19.3064 9.11161 19.7739C9.87661 20.1639 11.1791 20.0439 11.5741 19.1864C11.7791 18.7439 11.7391 18.4664 12.2466 18.2114C12.6841 17.9914 13.2266 17.9539 13.6991 18.0639V18.0664Z" fill="black" stroke="black" stroke-linecap="round" stroke-linejoin="round"/>
<path id="Vector_2" d="M2.95172 13.1539C2.67922 12.6239 2.53672 12.0014 2.68422 11.4239C2.83172 10.8464 3.31422 10.3364 3.90672 10.2689C4.31172 10.2239 4.72422 10.3839 5.03922 10.6439C5.35422 10.9039 5.58672 11.2514 5.77422 11.6139C6.17922 12.4014 6.39922 13.2814 6.40672 14.1664C6.42922 16.4564 3.41172 14.0514 2.94922 13.1539H2.95172Z" fill="black" stroke="black" stroke-linecap="round" stroke-linejoin="round"/>
<path id="Vector_3" d="M8.33932 10.4939C8.65182 11.2214 9.36932 12.5739 10.3618 12.1914C11.6418 11.6989 11.5618 9.97638 11.3918 8.86888C11.2243 7.77138 10.7968 6.51888 9.93432 5.76888C8.98932 4.94888 7.11182 5.00388 7.28682 6.63888C7.41932 7.86138 7.71182 9.07138 8.20932 10.1964C8.24932 10.2889 8.29182 10.3864 8.33682 10.4914L8.33932 10.4939Z" fill="black" stroke="black" stroke-linecap="round" stroke-linejoin="round"/>
<path id="Vector_4" d="M14.3716 7.99888C14.8341 6.92888 15.5791 5.91888 16.7691 6.23388C18.7441 6.75388 18.3941 9.01888 17.6991 10.4414C17.3366 11.1814 16.8716 12.0864 16.0641 12.4089C15.3641 12.6889 14.2766 12.5289 13.8166 11.8689C13.3441 11.1914 13.6941 10.1164 13.8916 9.40138C14.0016 9.00638 14.1541 8.49638 14.3691 7.99888H14.3716Z" fill="black" stroke="black" stroke-linecap="round" stroke-linejoin="round"/>
<path id="Vector_5" d="M20.0042 11.6839C20.3917 11.0739 21.0067 10.5689 21.7242 10.4914C22.4417 10.4139 23.2292 10.8789 23.3567 11.5889C23.4742 12.2364 23.0517 12.8564 22.5992 13.3339C22.1592 13.7989 21.6417 14.2264 21.0167 14.3614C20.4842 14.4764 19.5692 14.2789 19.3467 13.6914C19.1442 13.1539 19.7242 12.1264 20.0042 11.6839Z" fill="black" stroke="black" stroke-linecap="round" stroke-linejoin="round"/>
</g>
</g>
</svg>
