<?xml version="1.0" encoding="UTF-8"?>
<svg id="Icones" xmlns="http://www.w3.org/2000/svg" viewBox="0 0 100 100">
  <g>
    <path d="M31.81,56.38c.1.12,8.1-7,8.2-6.88.2.24-10.77,17.94-10.67,18.05.15.18,22.63-19.2,22.73-19.07.21.25-23.12,27.91-22.78,28.32.27.32,32.66-27.7,32.81-27.53.36.43-32.97,36-32.5,36.56.5.59,40.65-34.96,41.07-34.46.47.56-36.64,39.25-36.2,39.77.51.61,41.11-34.92,41.32-34.67.22.26-31.95,35.21-31.65,35.57.37.44,33.44-28.87,33.84-28.39.28.34-23.98,28.61-23.7,28.95.21.26,24.27-20.67,24.42-20.49.23.27-14.73,20.83-14.53,21.08.1.12,14.3-12.28,14.44-12.12" style="fill: none; stroke: #ebc246; stroke-linecap: round; stroke-linejoin: round; stroke-width: 5px;"/>
    <path d="M37.53,20.99c.11.13,9.04-7.82,9.15-7.68.19.23-9.82,17.15-9.73,17.26.13.15,19.92-16.9,20.01-16.79.16.19-16.52,22.53-16.26,22.85.19.22,22.96-19.48,23.06-19.35.2.24-16.47,22.56-16.2,22.88s20.8-17.89,21.01-17.63c.19.23-11.25,18.47-11.07,18.69.16.19,13-11.04,13.06-10.96" style="fill: none; stroke: #ebc246; stroke-linecap: round; stroke-linejoin: round; stroke-width: 5px;"/>
  </g>
  <g>
    <path d="M22.85,52.67c-2.65,7.96-1.34,18.98-1.39,25.46-.05,7.37,5.57,7.43,11.55,7.76,5.52.31,11.04.61,16.56.9,5.18.28,10.51,1.02,15.6-.29,3.32-.85,4.59-3.25,5-6.45.62-4.92.79-9.89.53-14.83-.44-8.05-1.09-18.46-10.58-20.82-5.01-1.24-10.18-1.81-15.34-1.94-4.72-.12-9.72-.19-14.21,1.47-4.03,1.49-6.38,4.72-7.71,8.73Z" style="fill: none; stroke: #000; stroke-miterlimit: 10; stroke-width: 2px;"/>
    <path d="M28.54,17.83c-1.21,5.76,1.81,12.15,7.02,14.89,3.51,1.84,7.2,2.03,11.04,2.4,3.76.36,8.01.02,11.27-2.12,3.84-2.52,5.44-7.58,4.53-11.97-1.87-9.05-12.52-14.98-21.26-14.21-4.92.43-9.6,3.81-11.68,8.26-.41.88-.72,1.81-.92,2.76Z" style="fill: none; stroke: #000; stroke-miterlimit: 10; stroke-width: 2px;"/>
  </g>
</svg>