<svg width="26" height="25" viewBox="0 0 26 25" fill="none" xmlns="http://www.w3.org/2000/svg">
<g id="personne 2">
<path id="Vector" d="M12.1426 3.12749C11.8201 4.07499 12.0301 5.22249 12.6326 5.80249C13.0376 6.18999 13.5151 6.30499 14.0051 6.45249C14.4851 6.59749 15.0501 6.63249 15.5401 6.34249C16.1151 6.00249 16.4676 5.17999 16.4751 4.41749C16.4901 2.84499 15.2701 1.60499 14.1051 1.54249C13.4501 1.50749 12.7426 1.97499 12.3426 2.67999C12.2626 2.81999 12.1976 2.96999 12.1426 3.12749Z" fill="black"/>
<path id="Vector_2" d="M21.23 12.375C21.15 12.04 20.715 11.9625 20.3725 11.9675C19.2275 11.9925 17.985 12.205 17.015 11.5975C16.5925 11.3325 16.27 10.935 15.97 10.535C15.7675 10.2625 15.5675 9.985 15.345 9.7325C15.285 9.03 15.0975 8.445 14.6675 8.17C14.1725 7.855 13.645 7.6675 13.105 7.5675C12.61 7.475 12.085 7.39 11.5675 7.65C11.3925 7.7375 11.235 7.8775 11.095 8.0575C10.535 8.1025 9.97995 8.1225 9.42745 8.24C8.61245 8.4125 7.81495 8.765 7.24245 9.37C6.74745 9.895 6.45245 10.57 6.23995 11.2575C5.98245 12.0925 5.83745 12.9575 5.80745 13.83C5.79495 14.1975 5.88995 14.6775 6.25745 14.73C6.59745 14.7825 6.83495 14.4075 6.95745 14.0875C7.36495 13.0175 7.63495 11.7875 8.56245 11.115C8.96495 10.8225 9.45745 10.6725 9.93995 10.545C10.03 10.5225 10.12 10.4975 10.21 10.475C9.94745 11.79 9.82495 13.255 9.68995 14.21C9.58995 14.925 9.68245 15.3075 9.87995 15.53C9.76245 15.905 9.64995 16.3525 9.55245 16.57C8.93745 17.95 8.07745 18.795 6.85995 19.5475C6.25245 19.9225 5.52995 20.09 5.06745 20.6375C4.89495 20.8425 4.72745 21.0625 4.76745 21.33C4.80745 21.5975 5.01245 21.75 5.29745 21.7825C5.58245 21.815 5.79995 21.775 6.13995 21.685C9.07745 20.91 10.6375 19.195 11.365 16.2625C11.3825 16.1925 11.4 16.13 11.415 16.07C11.75 16.15 12.0825 16.2325 12.4175 16.3125C12.475 16.3275 12.535 16.3425 12.5925 16.3575C12.82 16.705 13.1575 17.1625 13.2775 17.3825C13.9475 18.62 14.3925 19.7825 14.72 21.0725C14.8825 21.715 14.915 22.3025 15.1925 22.9C15.295 23.125 15.4325 23.3675 15.685 23.4375C15.9375 23.5075 16.15 23.3675 16.2725 23.13C16.395 22.8925 16.46 22.6525 16.49 22.355C16.7375 19.94 15.9125 17.98 14.4925 16.1025C14.6125 15.895 14.7 15.6175 14.7675 15.2925C14.92 14.555 15.045 13.8075 15.1425 13.055C15.375 13.225 15.625 13.3675 15.895 13.4725C16.5675 13.7325 17.305 13.755 18.02 13.6925C18.89 13.6175 19.7475 13.4275 20.5675 13.1275C20.9125 13 21.32 12.7325 21.2325 12.3725L21.23 12.375Z" fill="black"/>
</g>
</svg>
