<?xml version="1.0" encoding="UTF-8"?>
<svg id="Icones" xmlns="http://www.w3.org/2000/svg" viewBox="0 0 100 100">
  <g>
    <path d="M50.08,39.86c.13.13,11.15-11.36,11.25-11.25.37.37-23.93,33.19-23.74,33.38.1.1,15.71-15.88,15.8-15.8.32.32-21.12,30.73-20.92,30.93.06.06,12.03-12.14,12.08-12.08.12.12-13.81,23.15-13.59,23.37.06.06,3.32-3.4,3.36-3.36" style="fill: none; stroke: #ebc246; stroke-linecap: round; stroke-linejoin: round; stroke-width: 4px;"/>
    <g>
      <path d="M38.15,69.85c.22.22,18.58-18.77,18.68-18.68" style="fill: none; stroke: #ebc246; stroke-linecap: round; stroke-linejoin: round; stroke-width: 4px;"/>
      <path d="M28.78,57.69c.05.05,3.98-4.03,4.01-4.01.1.1-6.81,16.33-6.7,16.43.06.06,12.49-12.69,12.59-12.59.16.16-9.83,19.73-9.74,19.82.28.28,24.42-24.88,24.65-24.65.2.2-21.3,30.66-21.07,30.89.08.08,10.7-10.94,10.82-10.82" style="fill: none; stroke: #ebc246; stroke-linecap: round; stroke-linejoin: round; stroke-width: 4px;"/>
      <path d="M48.13,46.36c.43.43,29.69-30.18,29.94-29.94.22.22-13.41,23.22-13.22,23.4.13.13,13.65-14.07,13.86-13.86" style="fill: none; stroke: #ebc246; stroke-linecap: round; stroke-linejoin: round; stroke-width: 4px;"/>
      <path d="M47.81,27.71c.06.06,10.29-10.49,10.39-10.39.31.31-15.23,24.82-15,25.05.34.34,26.68-27.16,26.92-26.92.28.28-29.01,38.32-28.67,38.66.1.1,6.11-6.3,6.21-6.21" style="fill: none; stroke: #ebc246; stroke-linecap: round; stroke-linejoin: round; stroke-width: 4px;"/>
    </g>
  </g>
  <g>
    <path d="M21.89,90.63c1.98-17.45,8.56-34.13,17.11-49.47,3.98-7.14,8.8-14.4,16.22-17.83" style="fill: none; stroke: #000; stroke-linecap: round; stroke-linejoin: round; stroke-width: 2px;"/>
    <path d="M61.82,9.38c-1.63-.02-3.27.18-4.8.51-7.04,1.55-12.29,6.38-15.77,12.52-.38.67-.74,1.34-1.09,2.03-3.56,6.99-5.79,14.65-6.55,22.46-.26,2.68-.4,5.53-1.95,7.72-1.57-.61-2.14-2.47-2.83-4.01s-2.3-3.12-3.83-2.41c-.63.29-1.04.9-1.39,1.5-4.97,8.45-4.79,19.68.46,27.97,4.81-.22,9.88-1.78,13.67-4.75.63-.49,1.28-1.14,1.22-1.93-.07-.89-.99-1.44-1.81-1.79-2.94-1.26-6.07-2.08-9.26-2.43,9.62-4.12,18.82-9.73,25.59-17.72-4.88-2.27-9.76-4.55-14.64-6.82.85.4,4.08-1.03,5-1.31,1.73-.53,3.44-1.12,5.13-1.79,3.37-1.33,6.64-2.92,9.76-4.75,6.36-3.74,17.5-10.16,13.36-19.28-1.9-4.2-6.05-5.69-10.28-5.74Z" style="fill: none; stroke: #000; stroke-linecap: round; stroke-linejoin: round; stroke-width: 2px;"/>
  </g>
</svg>