<?xml version="1.0" encoding="UTF-8"?>
<svg id="Icones" xmlns="http://www.w3.org/2000/svg" viewBox="0 0 100 100">
  <g>
    <path d="M45.49,29.51c.08.08,14.52-14.66,14.59-14.59" style="fill: none; stroke: #ebc246; stroke-linecap: round; stroke-linejoin: round; stroke-width: 4px;"/>
    <path d="M28.68,44.16s4.55-4.6,4.57-4.57c.15.15-5.05,14.86-4.96,14.94.25.25,38.36-39.06,38.71-38.71.3.3-38.75,47.8-38.2,48.36.59.59,40.59-41.27,40.93-40.93s-44.65,53.14-43.96,53.82c.36.36,43.87-44.77,44.32-44.32.58.58-45.63,54.3-45.12,54.81s44.15-44.71,44.43-44.43c.55.55-38.63,48.26-38.37,48.51.41.41,46.52-47.57,47.05-47.05.27.27-38.18,47.45-37.86,47.77.59.59,40.9-41.48,41.19-41.19.36.36-32.85,42.24-32.53,42.56.36.36,31.77-32.54,32.15-32.15.31.31-21.6,31.28-21.42,31.47.29.29,21.34-21.84,21.59-21.59s-13.35,23.15-13.17,23.33c.16.16,12.13-12.42,12.28-12.28" style="fill: none; stroke: #ebc246; stroke-linecap: round; stroke-linejoin: round; stroke-width: 4px;"/>
  </g>
  <g>
    <path d="M32.85,34.86c3.31-8.27,8.69-15.71,15.55-21.41,1.51-1.26,3.12-2.46,4.99-3.07s4.04-.56,5.67.54c2.03,1.39,2.75,4.02,3.19,6.45,1.28,7.06,1.49,14.31.63,21.44" style="fill: none; stroke: #000; stroke-miterlimit: 10; stroke-width: 2px;"/>
    <path d="M73.99,46.69c-.14,6.08-.35,12.15-.64,18.22,0,.07,0,.13-.01.19-3.27,2.55-7.06,4.46-11.1,5.36-3.86.86-7.93.78-11.73-.28-3.55-1-6.81-2.82-10.19-4.32-1.13-.5-2.26-.97-3.43-1.36-4.64-1.56-9.84-1.82-14.5-.18-1.31.47-1.85.6-2.06,1.73,0-.3.04-.58.07-.88.32-3.4.63-6.79.95-10.19.37-3.98.75-7.95,1.12-11.93.27-2.83-.38-7.58,3.08-8.59,1.29-.38,2.67-.21,4-.03,1.1.14,2.2.29,3.3.43,10.01,1.32,20.02,2.64,30.03,3.95,1.4.18,2.8.37,4.2.55,2.26.3,4.81.77,6.07,2.68.88,1.34.88,3.05.84,4.65Z" style="fill: none; stroke: #000; stroke-miterlimit: 10; stroke-width: 2px;"/>
    <path d="M73.34,65.1c-.24,5.33-.54,10.66-.9,15.98-.14,2.14-.34,4.41-1.65,6.1-2.02,2.64-5.85,2.89-9.18,2.82-12.72-.26-25.41-1.77-37.83-4.52-1.52-.33-3.18-.78-4.07-2.05-.86-1.23-.76-2.87-.62-4.36.26-2.76.52-5.53.78-8.3.13-1.42.27-2.84.4-4.26.02-.17.03-.32.06-.46.21-1.13.75-1.26,2.06-1.73,4.66-1.64,9.86-1.38,14.5.18,1.17.39,2.3.86,3.43,1.36,3.38,1.5,6.64,3.32,10.19,4.32,3.8,1.06,7.87,1.14,11.73.28,4.04-.9,7.83-2.81,11.1-5.36Z" style="fill: none; stroke: #000; stroke-miterlimit: 10; stroke-width: 2px;"/>
  </g>
</svg>