<svg width="250" height="250" viewBox="0 0 250 250" fill="none" xmlns="http://www.w3.org/2000/svg">
<g id="respect 1">
<g id="Respect">
<g id="Group">
<path id="Vector" d="M170.594 66.8719C170.672 66.9438 177.706 58.85 177.903 59.0344" stroke="#EBC246" stroke-width="3" stroke-linecap="round" stroke-linejoin="round"/>
<path id="Vector_2" d="M145.841 63.4438C145.928 63.525 150.419 58.4906 150.441 58.5094C150.488 58.5531 143.069 70.9063 143.219 71.0469C143.419 71.2344 156.803 56.1531 156.966 56.3031C156.997 56.3313 143.713 74.35 144.013 74.6313C144.059 74.675 159.422 57.2344 159.856 57.6406C159.984 57.7594 143.216 79.375 143.434 79.5781C143.694 79.8219 162.094 58.6844 162.534 59.0938C162.975 59.5031 144.741 81.5688 145.363 82.15C145.509 82.2875 163.363 62.5969 163.488 62.7156C163.709 62.9219 145.666 85.1438 146.288 85.7219C146.763 86.1656 163.984 66.2219 164.244 66.4656C164.863 67.0438 146.369 89.7312 146.519 89.8687C146.609 89.9531 164.406 70.1063 164.697 70.375C165.203 70.8469 149.075 91.4781 149.209 91.6031C149.25 91.6406 166.675 72.0938 167.066 72.4563C167.538 72.8969 149.719 95.0656 150.134 95.4562C150.931 96.2 184.975 57.3719 185.334 57.7063C185.888 58.2219 151.634 97.0062 152.4 97.7219C153.322 98.5812 187.559 59.5656 187.784 59.775C188.363 60.3125 154.644 98.7219 155.284 99.3188C155.513 99.5313 189.169 62.4656 189.425 62.7063C190.441 63.6531 155.844 101.859 156.634 102.6C157.519 103.425 190.325 66.2969 190.413 66.3781C191.35 67.25 157.491 104.65 158.128 105.244C159.075 106.128 191.531 68.4969 191.994 68.9281C192.297 69.2094 160.891 105.606 161.644 106.309C162.472 107.081 189.734 74.5156 190.566 75.2938C191.397 76.0719 163.769 108.353 163.969 108.541C164.088 108.653 189.216 80.1938 189.85 80.7844C189.994 80.9188 167.263 108.953 167.456 109.131C168.016 109.653 188.488 86.3344 188.609 86.4469C188.872 86.6906 170.756 110.003 170.975 110.206C171.225 110.437 183.444 96.7625 183.478 96.7969" stroke="#EBC246" stroke-width="3" stroke-linecap="round" stroke-linejoin="round"/>
<path id="Vector_3" d="M79.5939 146.716C79.5939 146.716 79.9001 146.384 79.9032 146.384C79.9157 146.397 80.5814 150.362 80.6251 150.403C80.6532 150.428 82.4939 148.353 82.5189 148.372C82.5251 148.378 82.322 152.897 82.3845 152.953C82.3907 152.959 83.7814 151.328 83.8439 151.387C83.872 151.416 82.1657 157.412 82.2157 157.459C82.2532 157.494 85.5564 153.75 85.6189 153.809C85.7158 153.897 84.1095 159.797 84.2439 159.922C84.2657 159.941 86.147 157.847 86.1626 157.862C86.2095 157.906 84.8939 163.528 85.022 163.647C85.0908 163.709 86.8126 161.65 86.8501 161.688C86.9908 161.819 84.897 168.109 84.9314 168.141C84.9439 168.153 87.247 165.581 87.2845 165.616C87.3782 165.703 87.0845 170.4 87.1064 170.422C87.1126 170.425 89.2876 167.991 89.3345 168.031C89.4564 168.144 87.197 174.953 87.3032 175.053C87.3345 175.084 88.572 173.666 88.5845 173.678C88.6345 173.725 88.5658 178.256 88.6345 178.319C88.6501 178.334 89.2439 177.659 89.247 177.663" stroke="#EBC246" stroke-width="3" stroke-linecap="round" stroke-linejoin="round"/>
<g id="Group_2">
<path id="Vector_4" d="M111.338 169.744L111.5 169.569C111.525 169.594 118.481 166.719 118.559 166.794C118.572 166.803 119.328 165.95 119.338 165.959" stroke="#EBC246" stroke-width="3" stroke-linecap="round" stroke-linejoin="round"/>
<path id="Vector_5" d="M104.059 172.841C104.059 172.841 104.191 172.697 104.191 172.7" stroke="#EBC246" stroke-width="3" stroke-linecap="round" stroke-linejoin="round"/>
</g>
<path id="Vector_6" d="M197.2 125.628C197.2 125.628 197.366 125.447 197.369 125.447" stroke="#EBC246" stroke-width="3" stroke-linecap="round" stroke-linejoin="round"/>
<path id="Vector_7" d="M197.728 124.916C197.76 124.944 201.003 121.184 201.113 121.288" stroke="#EBC246" stroke-width="3" stroke-linecap="round" stroke-linejoin="round"/>
<path id="Vector_8" d="M103.778 173.019C104.322 173.525 148.019 122.784 149.413 124.081C150.472 125.069 110.713 169.669 111.163 170.088C111.375 170.284 150.991 124.934 152.209 126.069C152.4 126.247 118.416 165.922 118.856 166.334C119.953 167.356 155.85 126.413 155.975 126.528C156.475 126.994 122.856 164.416 123.922 165.409C124.819 166.247 159.178 126.853 159.553 127.2C160.372 127.963 127.756 163.734 128.716 164.628C129.072 164.959 162.591 128.234 162.625 128.266C163.072 128.684 131.834 164.347 132.816 165.263C133.678 166.069 164.803 129.641 165.463 130.253C166.153 130.897 135.234 167.097 135.291 167.15C135.725 167.553 169.178 130.588 169.291 130.691C169.975 131.328 139.641 165.581 140.506 166.388C141.084 166.928 171.9 131.013 172.753 131.806C173.75 132.734 142.622 166.988 143.247 167.569C143.872 168.15 174.55 132.072 175.513 132.969C175.828 133.263 147.575 166.434 147.934 166.769C148.7 167.484 177.631 134.816 177.684 134.866C178.45 135.578 152.725 164.891 153.419 165.538C154.303 166.363 195.106 119.506 195.769 120.122C196.566 120.866 157.25 163.709 158.45 164.831C158.753 165.113 199.172 119.616 199.944 120.334C200.506 120.859 164.353 162.122 164.847 162.581C165.959 163.619 201.234 123.413 201.309 123.481C201.841 123.975 171.513 158.547 172.225 159.213C172.297 159.281 206.775 120.578 207.566 121.316C208.356 122.053 177.928 157.388 178.141 157.588C178.828 158.228 211.688 119.709 212.638 120.594C212.863 120.803 187.094 152.578 187.175 152.653C187.5 152.956 213.25 123.559 213.816 124.084C213.975 124.234 195.563 146.725 196.194 147.313C196.272 147.384 216.734 124.444 217.153 124.834" stroke="#EBC246" stroke-width="3" stroke-linecap="round" stroke-linejoin="round"/>
<path id="Vector_9" d="M39.8813 147.244C39.9001 147.259 40.3188 146.766 40.322 146.772C40.3376 146.788 40.3595 151.428 40.4063 151.472C40.522 151.581 48.2782 142.841 48.372 142.931C48.3907 142.947 42.0626 153.797 42.2313 153.953C42.2657 153.987 53.8751 140.794 54.2095 141.109C54.3063 141.2 41.9626 158.231 42.1313 158.391C42.3751 158.619 59.747 138.669 60.1626 139.056C60.5782 139.444 43.6501 160.237 44.2313 160.778C44.397 160.934 64.8438 138.387 64.9876 138.522C65.2407 138.756 44.3751 163.772 45.0813 164.431C45.7313 165.037 69.4782 137.553 69.8345 137.884C70.672 138.666 44.8563 168.662 45.0595 168.85C45.2063 168.987 73.872 137.019 74.3376 137.453C75.1688 138.228 47.0907 170.853 47.3063 171.056C47.3813 171.128 79.9939 134.537 80.7251 135.219C81.5876 136.025 46.8126 174.897 47.5782 175.609C48.4063 176.381 83.8126 136.003 84.1876 136.353C84.7751 136.9 48.2063 178.003 49.022 178.759C50.0282 179.697 87.5126 136.987 87.7595 137.219C88.4095 137.825 50.1876 180.756 50.9095 181.428C51.1751 181.675 90.5814 138.284 90.8814 138.566C92.1001 139.7 50.1438 185.078 51.0938 185.963C52.197 186.991 93.2563 140.531 93.3657 140.631C94.5657 141.75 50.5845 189.119 51.4001 189.881C52.6657 191.059 95.5501 141.297 96.1688 141.872C96.5845 142.259 52.4032 191.559 53.4407 192.528C54.7157 193.716 97.1563 143.078 98.4376 144.275C99.8095 145.553 53.897 196.119 54.2188 196.419C54.4657 196.65 106.513 137.722 107.819 138.941C108.131 139.231 56.3657 197.612 56.7845 198.003C58.4251 199.534 118.531 131.066 118.894 131.4C119.663 132.116 61.3157 196.706 61.9595 197.303C63.1595 198.422 126.516 127.731 126.688 127.891C127.356 128.516 66.2407 196.541 66.7376 197.006C68.4907 198.644 132.959 124.791 133.559 125.35C135.491 127.15 70.9313 195.887 71.4376 196.359C71.5657 196.478 137.328 124.297 138.028 124.95C139.775 126.578 76.5938 192.753 77.7001 193.784C79.3407 195.312 141.009 123.444 142.231 124.584C144.166 126.388 82.2657 190.431 83.6626 191.734C85.0595 193.037 145.931 123.9 146.459 124.394C147.459 125.328 88.9501 187.103 90.7188 188.753C90.9501 188.969 102.459 175.994 102.544 176.072" stroke="#EBC246" stroke-width="3" stroke-linecap="round" stroke-linejoin="round"/>
<path id="Vector_10" d="M197.2 125.628C197.2 125.628 197.366 125.447 197.369 125.447" stroke="#EBC246" stroke-width="3" stroke-linecap="round" stroke-linejoin="round"/>
</g>
<g id="Group_3">
<path id="Vector_11" d="M165.088 106.037C160.688 105.778 156.734 102.603 153.419 100.009C149.378 96.85 145.875 93 143.209 88.6156C138.612 81.0562 134.653 69.0062 138.347 60.3406C140.372 55.5969 148.291 48.3563 153.881 52.4219C158.622 55.8719 158.419 64.0438 160.387 69C163.575 62.375 168.45 54.45 176.047 52.2625C182.25 50.4781 184.356 56.9875 184.937 61.8469C185.672 67.9813 184.869 74.275 182.584 80.0156C180.206 85.9906 177.522 92.1313 174.45 97.7875C172.572 101.247 169.916 106.206 165.322 106.041C165.244 106.041 165.166 106.034 165.088 106.028V106.037Z" stroke="black" stroke-width="4" stroke-linecap="round" stroke-linejoin="round"/>
<path id="Vector_12" d="M32.9094 142.428C43.8094 135.666 56.8719 133.544 69.5469 131.559C72.6438 131.075 75.7782 130.591 78.9 130.862C82.0219 131.134 85.1813 132.25 87.3344 134.528C89.9813 137.334 90.7063 141.375 91.7219 145.097C93.1063 150.169 95.2313 155.034 96.3282 160.178C97.425 165.322 97.3844 170.991 94.6626 175.487C92.1344 179.662 87.6813 182.253 83.2719 184.344C72.5032 189.45 60.8375 192.656 48.9688 193.766" stroke="black" stroke-width="4" stroke-linecap="round" stroke-linejoin="round"/>
<path id="Vector_13" d="M73.2063 141.266C74.4719 141.497 75.5657 142.338 76.3438 143.366C77.1219 144.391 77.6219 145.597 78.0813 146.8C81.5719 155.909 83.2501 165.712 82.9907 175.462" stroke="black" stroke-width="4" stroke-linecap="round" stroke-linejoin="round"/>
<path id="Vector_14" d="M173.25 136.775C177 135.212 184.756 129.312 188.822 127.244C194.119 124.55 200.178 120.884 206.194 119.991C206.519 119.941 206.844 119.9 207.169 119.869C208.144 119.772 209.197 119.794 210.006 120.347C211.509 121.378 210.703 123.109 209.772 124.184C204.881 129.816 199.144 134.728 193.572 139.669C186.95 145.534 176.284 150.887 168.206 153.597C162.569 155.487 157.069 158.059 151.325 159.578C144.703 161.328 137.234 163.062 130.391 161.684C126.969 160.994 123.612 160.203 120.125 159.9C111.831 159.184 104.788 166.034 96.925 168.103H96.9219" stroke="black" stroke-width="4" stroke-linecap="round" stroke-linejoin="round"/>
<path id="Vector_15" d="M128.25 134.588C141.019 133.022 158.397 142.481 170.503 138.138C172.334 137.478 174.334 136.369 174.669 134.45C174.906 133.078 174.163 131.681 173.109 130.772C172.909 130.6 172.703 130.441 172.488 130.297C171.559 129.663 170.488 129.244 169.431 128.838C162.966 126.344 156.481 123.897 149.863 121.853C144.738 120.272 139.45 118.922 134.091 119.1C125.456 119.391 117.466 123.6 110.156 128.206C103.659 132.3 97.3095 136.844 90.1938 139.638" stroke="black" stroke-width="4" stroke-linecap="round" stroke-linejoin="round"/>
<path id="Vector_16" d="M206.175 120.013C206.934 119.375 207.053 118.166 206.584 117.291C206.116 116.416 205.172 115.866 204.2 115.678C203.228 115.491 202.216 115.622 201.247 115.837C198.588 116.428 196.109 117.634 193.722 118.944C186.828 122.734 180.475 127.513 174.919 133.084" stroke="black" stroke-width="4" stroke-linecap="round" stroke-linejoin="round"/>
<path id="Vector_17" d="M172.488 130.297C176.753 123.244 183.091 117.444 190.528 113.884C191.591 113.378 192.878 112.919 193.894 113.512C194.709 113.984 195.063 115.016 194.994 115.953C194.925 116.894 194.513 117.769 194.109 118.619" stroke="black" stroke-width="4" stroke-linecap="round" stroke-linejoin="round"/>
</g>
</g>
</g>
</svg>
