<svg width="100" height="100" viewBox="0 0 100 100" fill="none" xmlns="http://www.w3.org/2000/svg">
<g id="Hiver 1">
<g id="4 saisons">
<g id="Group">
<g id="Group_2">
<path id="Vector" d="M29.7197 51.18L35.7697 43.98L27.7197 57.29L38.3297 44.64" stroke="#EBC246" stroke-width="4" stroke-linecap="round" stroke-linejoin="round"/>
<path id="Vector_2" d="M8.0498 64.87L14.2198 57.52L8.7898 67.75L18.5098 56.16L9.8498 71.7L23.1098 55.9L13.4998 74.36L27.8798 57.23L19.2698 75.51L45.1998 44.6L25.3298 77.42L55.6698 41.27L30.7198 77.68L62.4898 39.82L36.3398 79.81L69.8398 39.89L42.7398 79.65L73.0598 43.52L45.7598 79.52L75.6598 43.89L48.8498 79.83L77.2998 45.93L54.0698 82.45L81.2698 50.03L59.0898 83.47L81.2998 57L62.8298 82.7L80.7098 61.39L65.7398 84.28L72.8498 75.8" stroke="#EBC246" stroke-width="4" stroke-linecap="round" stroke-linejoin="round"/>
</g>
<g id="Group_3">
<path id="Vector_3" d="M50.3496 20.57L51.6696 19L51.8896 23.77L53.4896 21.86L51.4296 28.22L54.0996 25.05L54.1396 30.71L54.3596 30.44L55.1996 34.97L57.1696 32.62" stroke="#EBC246" stroke-width="4" stroke-linecap="round" stroke-linejoin="round"/>
<path id="Vector_4" d="M73.2793 30.92L76.0593 27.6L73.3993 35.17L73.6693 34.85" stroke="#EBC246" stroke-width="4" stroke-linecap="round" stroke-linejoin="round"/>
<path id="Vector_5" d="M83.5293 47.91L84.9793 46.18L88.8493 46.61L90.7393 44.36L91.4593 47.41L94.4393 43.85" stroke="#EBC246" stroke-width="4" stroke-linecap="round" stroke-linejoin="round"/>
<path id="Vector_6" d="M81.1592 72.08L82.2692 70.76L84.4292 73.22L85.6792 71.74L85.2692 76.13L87.6192 73.33L89.3992 76.92L90.6592 75.42L92.6292 78.75L94.4692 76.55" stroke="#EBC246" stroke-width="4" stroke-linecap="round" stroke-linejoin="round"/>
<path id="Vector_7" d="M83.8193 61.52L85.0993 59.99L88.2693 61.26L89.6293 59.64" stroke="#EBC246" stroke-width="4" stroke-linecap="round" stroke-linejoin="round"/>
</g>
</g>
<g id="Group_4">
<path id="Nuage" d="M12.2896 73.56C13.4596 73.85 14.6696 74.05 15.8496 74.24C29.6096 76.48 43.3596 78.72 57.1196 80.96C60.4796 81.51 64.4096 81.88 66.8196 79.48C68.7596 77.54 68.9496 74.44 68.4196 71.75C68.0896 70.07 67.5196 68.41 66.4496 67.07C65.3796 65.73 63.7796 64.76 62.0696 64.75C62.3696 62.08 61.2796 59.29 59.2596 57.51C57.2396 55.73 54.3296 55.03 51.7196 55.68C50.4196 51.15 48.0996 46.76 44.3496 43.91C40.5996 41.06 35.2296 40.07 31.0696 42.28C26.3796 44.77 24.3396 50.55 24.3396 55.85C20.9696 52.9 15.8696 52.1 11.7596 53.87C8.30961 55.36 5.70961 58.59 4.85961 62.23C4.75961 62.65 4.68961 63.08 4.63961 63.51C4.58961 63.92 4.65961 64.31 4.61961 64.71C4.52961 65.63 4.40961 66.42 4.63961 67.34C5.08961 69.12 6.30961 70.69 7.81961 71.71C9.16961 72.62 10.7096 73.17 12.2996 73.56H12.2896Z" stroke="black" stroke-width="4" stroke-linecap="round" stroke-linejoin="round"/>
<g id="Soleil">
<path id="Vector_8" d="M68.4291 69.97C69.3991 69.43 70.3091 68.78 71.1391 67.99C76.1591 63.24 79.0591 56.52 77.0791 49.59C74.9491 42.15 67.4891 36.65 59.7491 36.6C54.0391 36.56 48.4991 39.39 44.8691 43.78" stroke="black" stroke-width="4" stroke-linecap="round" stroke-linejoin="round"/>
</g>
<g id="Group_5">
<path id="Vector_9" d="M51.6396 32.43C50.0096 27.26 48.7496 21.97 47.8896 16.62" stroke="black" stroke-width="4" stroke-linecap="round" stroke-linejoin="round"/>
<path id="Vector_10" d="M68.9795 33.66C69.8895 30.78 70.9995 27.96 72.2895 25.22" stroke="black" stroke-width="4" stroke-linecap="round" stroke-linejoin="round"/>
<path id="Vector_11" d="M80.8594 44.21L91.4594 42.6" stroke="black" stroke-width="4" stroke-linecap="round" stroke-linejoin="round"/>
<path id="Vector_12" d="M78.4893 68.38C81.8193 71.24 85.3693 73.85 89.0793 76.19" stroke="black" stroke-width="4" stroke-linecap="round" stroke-linejoin="round"/>
<path id="Vector_13" d="M81.1494 57.8199C82.8594 57.8599 84.5594 58.2199 86.1494 58.8599" stroke="black" stroke-width="4" stroke-linecap="round" stroke-linejoin="round"/>
</g>
</g>
</g>
</g>
</svg>
