<?xml version="1.0" encoding="UTF-8"?>
<svg id="Icones" xmlns="http://www.w3.org/2000/svg" viewBox="0 0 100 100">
  <g>
    <g>
      <path d="M53.2,30.71s.67-.68.67-.67" style="fill: none; stroke: #ebc246; stroke-linecap: round; stroke-linejoin: round; stroke-width: 4px;"/>
      <path d="M68.39,15.34s1.06-1.07,1.07-1.07c.17.17-8.1,17.92-7.93,18.08.07.07,9.48-9.59,9.53-9.53.07.07-4.95,14.56-4.86,14.65.12.12,10.23-10.34,10.29-10.29" style="fill: none; stroke: #ebc246; stroke-linecap: round; stroke-linejoin: round; stroke-width: 4px;"/>
    </g>
    <path d="M80.38,43.89s1.78-1.81,1.79-1.79c.12.12-2.09,12.05-2.05,12.1.08.08,4.08-4.22,4.15-4.15" style="fill: none; stroke: #ebc246; stroke-linecap: round; stroke-linejoin: round; stroke-width: 4px;"/>
    <path d="M19.54,58c.12.12,9.76-9.9,9.83-9.83.21.21-9.88,19.78-9.8,19.86.31.31,21.95-22.56,22.26-22.26.29.29-17.86,27.26-17.53,27.59.2.2,25.43-25.96,25.69-25.69.28.28-21.54,31.04-21.36,31.21.44.44,29.6-30.22,29.91-29.91.18.18-24.62,33.84-24.26,34.2.22.22,29.27-29.72,29.5-29.5.31.31-27.64,36.75-27.26,37.13.2.2,32.61-33.13,32.87-32.87.4.4-28.3,37.49-28.04,37.74s29.46-30.29,29.88-29.88" style="fill: none; stroke: #ebc246; stroke-linecap: round; stroke-linejoin: round; stroke-width: 4px;"/>
    <path d="M18.35,63.79s1.23-1.23,1.23-1.23c.09.09,7.99,1.57,8.07,1.64,0,0,.62-.62.62-.62.06.06,7.21,2.37,7.26,2.42.01.01,1.68-1.7,1.69-1.69.05.05,8.97.7,9,.73,0,0,.98-1,.99-.99.06.06,9.44.33,9.54.43,0,0,.73-.74.74-.74.04.04,7.79,1.85,7.87,1.93,0,0,.56-.57.56-.56" style="fill: none; stroke: #ebc246; stroke-linecap: round; stroke-linejoin: round; stroke-width: 4px;"/>
    <path d="M38.42,55.53c.12.12,8.26-8.46,8.36-8.36.12.12-11.76,21.5-11.59,21.67.14.14,14.8-15.14,14.97-14.97.15.15-13.74,23.04-13.46,23.32.16.16,15.12-15.49,15.3-15.3.23.23-12.2,21.55-12.01,21.74.13.13,9.49-9.72,9.61-9.61.18.18-6.69,16.34-6.6,16.43.03.03,4.36-4.47,4.42-4.42" style="fill: none; stroke: #ebc246; stroke-linecap: round; stroke-linejoin: round; stroke-width: 4px;"/>
  </g>
  <g>
    <path d="M58.41,20.84c-3.02,3.79-8.42,5.36-13.11,4.14,3.84-.29,8.02-.49,11.17,1.72,2.44,1.71,3.81,4.64,4.29,7.58s.16,5.95-.15,8.92c.07-4.36,1.03-8.85,3.66-12.32s7.15-5.72,11.41-4.8c-3.08-.67-6.94-5.19-8.95-7.47-1.23-1.39-5.26-8.77-6.49-8.6.89,3.8.72,7.64-1.83,10.83Z" style="fill: none; stroke: #000; stroke-linecap: round; stroke-linejoin: round; stroke-width: 2px;"/>
    <path d="M72.43,43.32c-.31.49-.67.95-1.13,1.35-1.59,1.41-3.72,2.25-5.85,2.32,2.62-.96,5.63.66,7.17,2.99s1.96,5.2,2.34,7.97c-.05-2.42.51-4.93,2.02-6.81s4.09-3.01,6.43-2.38c-2.22-.6-3.83-3.2-4.99-5-.85-1.31-1.44-2.77-1.79-4.29-.12-.53-.35-4.54-1.1-4.14-.84.45-1.31,3.31-1.56,4.13-.41,1.33-.81,2.7-1.53,3.86Z" style="fill: none; stroke: #000; stroke-linecap: round; stroke-linejoin: round; stroke-width: 2px;"/>
    <path d="M33.97,88.01c.74.75,1.52,1.52,2.53,1.83,1.34.42,2.78-.05,4.05-.64,7.21-3.31,12.13-10.09,16.49-16.72,2.18-3.32,4.31-6.67,6.44-10.03.68-1.07,1.38-2.25,1.22-3.5-.13-.97-.75-1.79-1.36-2.55-2.68-3.41-5.37-6.82-8.05-10.22-.98-1.25-2.01-2.53-3.42-3.25-1.48-.76-3.22-.82-4.88-.85-6.69-.15-13.39-.31-20.08-.46-1.52-.03-3.09-.06-4.47.58-1.1.51-1.97,1.39-2.8,2.28-2.49,2.67-4.79,5.52-6.88,8.52-.99,1.42-2.23,2.95-2.93,4.54-.74,1.69.46,2.68,1.46,4.03,4.46,6.02,9.2,11.84,14.2,17.43,2.75,3.08,5.58,6.08,8.48,9.02Z" style="fill: none; stroke: #000; stroke-linecap: round; stroke-linejoin: round; stroke-width: 2px;"/>
    <path d="M9.61,58.25c5.36.57,10.74,1,16.13,1.31,6.51.38,13.02.57,19.54.59h0c6.48.01,12.95-.15,19.42-.5" style="fill: none; stroke: #000; stroke-linecap: round; stroke-linejoin: round; stroke-width: 2px;"/>
    <path d="M38.22,42.23c1.96,3.24,3.68,6.62,5.17,10.1.66,1.54,1.33,3.09,1.85,4.69s.3,2.18-.1,3.67c-.9,3.33-1.33,6.85-2.03,10.24-.73,3.52-1.5,7.02-2.35,10.51-.35,1.45-1.53,9.12-3.34,8.27-.98-.47-1.8-3.31-2.26-4.27-.79-1.66-1.54-3.34-2.26-5.02-1.44-3.38-2.76-6.81-3.95-10.28-1.16-3.38-2.41-6.87-3.18-10.36-.62-2.81,2.82-5.95,4.45-8.06.69-.9,8.18-9.19,8.01-9.46Z" style="fill: none; stroke: #000; stroke-linecap: round; stroke-linejoin: round; stroke-width: 2px;"/>
  </g>
</svg>