<svg width="26" height="25" viewBox="0 0 26 25" fill="none" xmlns="http://www.w3.org/2000/svg">
<g id="vers 2">
<g id="Group">
<path id="Vector" d="M8.56163 11.2C9.55163 13.7725 10.0091 16.5475 9.89913 19.3025C9.87163 19.98 9.81163 20.6675 9.98163 21.325C10.1516 21.9825 10.6091 22.61 11.2666 22.77C12.2216 23 13.0891 22.2025 13.7416 21.4675C15.3466 19.6575 16.9091 17.7825 18.0391 15.6425C19.1691 13.5025 19.8441 11.0625 19.5591 8.66004C19.0291 4.17254 15.3266 1.44004 10.9216 2.37754C9.52413 2.67504 8.67163 3.23004 7.98663 4.50504C6.71913 6.86004 7.67663 8.90004 8.56413 11.2025L8.56163 11.2Z" fill="black" stroke="black" stroke-miterlimit="10"/>
<path id="Vector_2" d="M13.3191 10.0276C14.1116 10.1451 14.9591 9.96756 15.5841 9.46756C18.1141 7.43756 14.6566 4.56506 12.3491 5.14006C9.50408 5.84756 10.9491 9.67756 13.3191 10.0276Z" fill="white" stroke="black" stroke-miterlimit="10"/>
</g>
</g>
</svg>
