<?xml version="1.0" encoding="UTF-8"?>
<svg id="Icones" xmlns="http://www.w3.org/2000/svg" viewBox="0 0 100 100">
  <g>
    <path d="M29.82,24.92c.06.06,10.04-10.14,10.09-10.09.12.12-11.87,21.19-11.7,21.36.14.14,22.15-22.78,22.47-22.47.17.17-19.86,29.61-19.69,29.79.16.16,29.27-29.72,29.5-29.5.38.38-25.62,34.73-25.3,35.05.25.25,30.94-31.46,31.2-31.2s-30.12,39.4-29.68,39.85c.47.47,33.4-34.29,33.85-33.85.36.36-33.33,42.38-32.91,42.8.53.53,35.42-36.41,35.92-35.92.32.32-35.97,44.8-35.38,45.38.4.4,38.78-39.92,39.35-39.35.63.63-38.54,46.99-37.94,47.58.34.34,38.32-39.22,38.77-38.77.35.35-38.06,46.67-37.45,47.28.42.42,34-34.67,34.34-34.34.2.2-27.31,36.79-27.06,37.04.18.18,14.8-15.22,15.01-15.01" style="fill: none; stroke: #ebc246; stroke-linecap: round; stroke-linejoin: round; stroke-width: 4px;"/>
    <path d="M43,30.93c.08.08,5.71-5.83,5.77-5.77.07.07-3.89,13.27-3.74,13.41.17.17,12.92-13.07,13-13,.11.11-7.72,17.41-7.62,17.51.14.14,12.55-12.88,12.72-12.72.05.05-3.7,13.27-3.55,13.42.06.06,4.45-4.59,4.52-4.52" style="fill: none; stroke: #ebc246; stroke-linecap: round; stroke-linejoin: round; stroke-width: 4px;"/>
  </g>
  <g>
    <path d="M26.75,44.8c3.96,10.29,5.79,21.39,5.35,32.41-.11,2.71-.35,5.46.33,8.09s2.51,5.14,5.14,5.78c3.82.92,7.29-2.27,9.9-5.21,6.42-7.24,12.67-14.74,17.19-23.3s7.22-18.32,6.08-27.93c-2.12-17.95-16.93-28.88-34.55-25.13-5.59,1.19-9,3.41-11.74,8.51-5.07,9.42-1.24,17.58,2.31,26.79Z" style="fill: none; stroke: #000; stroke-miterlimit: 10; stroke-width: 2px;"/>
    <path d="M45.78,40.11c3.17.47,6.56-.24,9.06-2.24,10.12-8.12-3.71-19.61-12.94-17.31-11.38,2.83-5.6,18.15,3.88,19.55Z" style="fill: none; stroke: #000; stroke-miterlimit: 10; stroke-width: 2px;"/>
  </g>
</svg>