<svg width="100" height="100" viewBox="0 0 100 100" fill="none" xmlns="http://www.w3.org/2000/svg">
<g id="4 saisons 3">
<g id="Flocon">
<g id="Group">
<path id="Vector" d="M15.6698 42.14L16.3198 41.36L13.0498 53.2L19.8898 45.05L13.9898 59.36L21.4898 50.42L20.2798 58.35L27.4098 49.85" stroke="#EBC246" stroke-width="4" stroke-linecap="round" stroke-linejoin="round"/>
<path id="Vector_2" d="M42.4199 88.57L44.4099 86.19L47.7899 88.78L57.8699 76.76L52.0699 90.51L60.0999 80.94L58.3299 88.32L61.6699 84.35L61.8099 89.72L62.0499 89.44" stroke="#EBC246" stroke-width="4" stroke-linecap="round" stroke-linejoin="round"/>
<path id="Vector_3" d="M55.3594 54.87L55.6894 54.48L57.8794 57.17L60.3394 54.23L60.9694 59.88L62.2494 58.35L63.3594 61.07L64.4294 59.8L66.2094 65.12L68.1894 62.77L67.3894 69.52L70.1194 66.27L71.8394 70.1L75.4894 65.75L72.4094 72.81L77.9994 66.14L71.1194 78.46L78.2894 69.91L75.3294 81.19L85.1194 69.53" stroke="#EBC246" stroke-width="4" stroke-linecap="round" stroke-linejoin="round"/>
<path id="Vector_4" d="M55.9795 52.6L59.7695 48.09L59.2595 52.67L61.8595 49.57L65.4995 51.18L67.6895 48.58L73.1095 51.15L76.4995 47.11L78.0795 48.37L79.4795 46.71L80.4895 54.33L90.9995 41.8L84.4895 54.46L89.7895 48.14L87.6095 58.91L88.4795 57.87L87.6995 62.34L89.0895 60.68" stroke="#EBC246" stroke-width="4" stroke-linecap="round" stroke-linejoin="round"/>
<path id="Vector_5" d="M70.6602 31.47L77.0502 23.86L78.2202 31.33L80.8502 28.2L81.3302 33.15L82.7001 31.52L84.2102 33.72L85.5901 32.09" stroke="#EBC246" stroke-width="4" stroke-linecap="round" stroke-linejoin="round"/>
<path id="Vector_6" d="M41.9102 64.22L69.0502 31.87L52.1402 59.57L53.5702 57.88L52.0802 64.73L54.8602 61.42L51.1702 72.39L54.0002 69.01L51.0902 78.85L54.4302 74.86" stroke="#EBC246" stroke-width="4" stroke-linecap="round" stroke-linejoin="round"/>
<path id="Vector_7" d="M72.0395 17.86L72.1695 17.71L68.0195 28.64L75.3195 19.94" stroke="#EBC246" stroke-width="4" stroke-linecap="round" stroke-linejoin="round"/>
<path id="Vector_8" d="M18.8896 71.07L20.6096 69.02L22.0296 72.22L23.6496 70.3L22.2896 76.13L26.0796 71.62L24.9296 77.1L29.6096 71.52L26.5096 79.79L77.0797 19.52L31.5396 82.31L36.8396 76L32.4796 85.24L33.2896 84.27" stroke="#EBC246" stroke-width="4" stroke-linecap="round" stroke-linejoin="round"/>
<path id="Vector_9" d="M60.4795 15.85L61.1395 15.07" stroke="#EBC246" stroke-width="4" stroke-linecap="round" stroke-linejoin="round"/>
<path id="Vector_10" d="M41.3701 14.37L43.6001 11.7L44.6201 18.97L50.3601 12.13L45.6701 21.05L52.7701 12.6L48.9601 25.02L57.2301 15.16L49.3701 32.92L50.3001 31.81L50.5601 39.86L52.7801 37.22L50.2401 45.44L53.9301 41.04" stroke="#EBC246" stroke-width="4" stroke-linecap="round" stroke-linejoin="round"/>
<path id="Vector_11" d="M29.0596 52.09L29.7996 51.2L35.1996 51.92L37.8896 48.72L41.0296 54.09L44.8596 49.54L47.8496 51.86L51.9996 46.92" stroke="#EBC246" stroke-width="4" stroke-linecap="round" stroke-linejoin="round"/>
<path id="Vector_12" d="M17.6494 32.88L23.0094 26.5L21.4894 34.14L32.6494 20.84L28.7194 34.2L32.3394 29.9L32.6294 34.97L34.8694 32.3L35.5894 37.44L35.6894 37.32L39.4094 41.09L40.1894 40.15L40.3994 43.12L42.0294 41.19L43.5594 48.47L46.4094 45.08L46.8694 48.41L48.6494 46.29" stroke="#EBC246" stroke-width="4" stroke-linecap="round" stroke-linejoin="round"/>
</g>
<g id="Group_2">
<g id="Group_3">
<path id="Vector_13" d="M16.7002 24.8C38.8502 38.36 58.7102 55.64 75.2102 75.7" stroke="black" stroke-width="4" stroke-linecap="round" stroke-linejoin="round"/>
<path id="Vector_14" d="M82.6397 68.39C55.4297 59.78 71.9797 64.56 65.6797 82.46" stroke="black" stroke-width="4" stroke-linecap="round" stroke-linejoin="round"/>
<path id="Vector_15" d="M12.3398 29.1C39.5498 37.71 22.9998 32.93 29.2998 15.03" stroke="black" stroke-width="4" stroke-linecap="round" stroke-linejoin="round"/>
</g>
<g id="Group_4">
<path id="Vector_16" d="M42.6494 10.04C48.7194 35.29 50.5494 61.56 48.0294 87.41" stroke="black" stroke-width="4" stroke-linecap="round" stroke-linejoin="round"/>
<path id="Vector_17" d="M58.4595 87.49C45.3095 62.16 53.6295 77.24 36.5195 85.44" stroke="black" stroke-width="4" stroke-linecap="round" stroke-linejoin="round"/>
<path id="Vector_18" d="M36.5195 10C49.6695 35.33 41.3495 20.25 58.4595 12.05" stroke="black" stroke-width="4" stroke-linecap="round" stroke-linejoin="round"/>
</g>
<g id="Group_5">
<path id="Vector_19" d="M71.4303 17.95C57.8703 40.1 40.5903 59.96 20.5303 76.46" stroke="black" stroke-width="4" stroke-linecap="round" stroke-linejoin="round"/>
<path id="Vector_20" d="M27.8503 83.9C36.4603 56.69 31.6803 73.24 13.7803 66.94" stroke="black" stroke-width="4" stroke-linecap="round" stroke-linejoin="round"/>
<path id="Vector_21" d="M67.1301 13.59C58.5201 40.8 63.3001 24.25 81.2001 30.55" stroke="black" stroke-width="4" stroke-linecap="round" stroke-linejoin="round"/>
</g>
<g id="Group_6">
<path id="Vector_22" d="M86.1903 43.9C60.9403 49.97 34.6703 51.8 8.82031 49.28" stroke="black" stroke-width="4" stroke-linecap="round" stroke-linejoin="round"/>
<path id="Vector_23" d="M8.75 59.71C34.08 46.56 19 54.88 10.8 37.77" stroke="black" stroke-width="4" stroke-linecap="round" stroke-linejoin="round"/>
<path id="Vector_24" d="M86.2403 37.78C60.9103 50.93 75.9903 42.61 84.1903 59.72" stroke="black" stroke-width="4" stroke-linecap="round" stroke-linejoin="round"/>
</g>
</g>
</g>
</g>
</svg>
